<?xml version="1.0" standalone="no"?>
<!DOCTYPE svg PUBLIC "-//W3C//DTD SVG 20010904//EN"
 "http://www.w3.org/TR/2001/REC-SVG-20010904/DTD/svg10.dtd">
<svg version="1.0" xmlns="http://www.w3.org/2000/svg"
 width="512.000000pt" height="512.000000pt" viewBox="0 0 512.000000 512.000000"
 preserveAspectRatio="xMidYMid meet">
<metadata>
Created by potrace 1.14, written by Peter Selinger 2001-2017
</metadata>
<g transform="translate(0.000000,512.000000) scale(0.100000,-0.100000)"
fill="#000000" stroke="none">
<path d="M1260 4758 c-6 -13 -19 -36 -30 -53 -11 -16 -23 -37 -27 -45 -18 -39
-88 -156 -96 -161 -5 -3 -9 -10 -9 -15 0 -10 -28 -63 -58 -109 -28 -44 -46
-74 -75 -130 -14 -27 -35 -63 -45 -80 -11 -16 -24 -39 -29 -50 -6 -11 -28 -49
-50 -85 -23 -36 -46 -77 -52 -92 -6 -16 -15 -28 -20 -28 -5 0 -9 -6 -9 -14 0
-7 -9 -25 -21 -40 -11 -14 -17 -26 -14 -26 4 0 1 -7 -6 -16 -7 -9 -18 -24 -24
-34 -5 -10 -25 -45 -44 -77 -19 -32 -43 -74 -54 -93 -64 -117 -82 -146 -91
-152 -6 -4 -7 -8 -3 -8 5 0 -1 -13 -12 -29 -12 -16 -21 -34 -21 -40 0 -6 -4
-11 -9 -11 -5 0 -14 -12 -20 -27 -6 -16 -20 -41 -31 -58 -11 -16 -23 -37 -27
-45 -16 -32 -117 -205 -122 -210 -3 -3 -17 -27 -31 -53 -49 -94 -53 -102 -62
-105 -4 -2 -8 -8 -8 -14 0 -5 -9 -23 -21 -39 -11 -16 -17 -29 -12 -29 4 0 3
-4 -3 -8 -6 -4 -17 -19 -25 -34 -8 -15 -33 -61 -56 -102 -24 -41 -43 -80 -43
-85 0 -6 26 -56 58 -112 31 -55 63 -112 71 -127 8 -15 17 -29 20 -32 3 -3 15
-23 26 -45 11 -22 23 -42 27 -45 4 -3 12 -17 17 -30 6 -14 20 -38 30 -55 10
-16 47 -79 81 -140 35 -60 71 -123 82 -140 10 -16 23 -42 29 -57 6 -16 15 -28
20 -28 5 0 9 -4 9 -10 0 -5 16 -34 35 -65 20 -30 32 -55 28 -55 -4 0 -3 -4 3
-8 5 -4 25 -34 44 -67 18 -33 42 -76 53 -95 47 -84 71 -125 77 -130 7 -5 13
-16 60 -107 14 -26 28 -50 31 -53 3 -3 30 -48 60 -100 30 -52 59 -104 66 -115
7 -11 17 -32 24 -47 6 -16 14 -28 17 -28 4 0 16 -20 27 -45 11 -25 23 -45 26
-45 4 0 12 -12 18 -27 6 -16 16 -37 23 -47 33 -50 78 -126 78 -130 0 -4 80
-145 100 -176 6 -8 14 -25 20 -37 l10 -23 1295 0 1295 0 10 23 c6 12 14 29 20
37 20 31 100 172 100 176 0 4 45 80 78 130 7 10 17 31 23 47 6 15 14 27 18 27
3 0 15 20 26 45 11 25 23 45 27 45 3 0 11 12 17 28 7 15 17 36 24 47 7 11 36
63 66 115 30 52 57 97 60 100 3 3 17 27 31 53 47 91 53 102 60 107 6 5 30 46
77 130 11 19 35 62 53 95 19 33 39 63 44 67 6 4 7 8 3 8 -4 0 8 25 28 55 19
31 35 60 35 65 0 6 4 10 9 10 5 0 14 12 20 27 6 16 19 42 29 58 11 17 47 80
82 140 34 61 71 124 81 140 10 17 24 41 30 55 5 13 13 27 17 30 4 3 16 23 27
45 11 22 23 42 26 45 3 3 12 17 20 32 8 15 38 68 67 119 33 59 52 103 51 123
0 18 -17 59 -39 96 -22 36 -45 77 -51 93 -6 15 -16 27 -22 27 -6 0 -7 3 -4 6
4 4 -2 19 -13 34 -11 16 -20 33 -20 38 0 6 -4 12 -8 14 -9 3 -13 11 -62 105
-14 26 -28 50 -31 53 -5 5 -106 178 -122 210 -4 8 -16 29 -27 45 -11 17 -25
42 -31 58 -6 15 -15 27 -20 27 -5 0 -9 5 -9 11 0 6 -9 24 -21 40 -11 16 -17
29 -12 29 4 0 3 4 -3 8 -9 6 -29 39 -94 157 -12 22 -34 60 -48 84 l-25 44 -66
-7 c-36 -3 -317 -6 -623 -6 -307 0 -558 -3 -558 -7 0 -5 12 -21 26 -38 66 -77
113 -223 114 -353 0 -76 -28 -239 -49 -280 -43 -86 -60 -114 -98 -164 -23 -31
-62 -71 -85 -89 -24 -19 -45 -36 -48 -40 -7 -10 -128 -71 -170 -86 -147 -54
-364 -69 -507 -34 -85 21 -203 68 -203 82 0 5 -7 9 -16 9 -57 0 -134 -188
-106 -260 5 -14 11 -29 12 -35 4 -19 57 -62 105 -85 47 -23 69 -25 410 -42
467 -23 581 -44 720 -133 59 -38 167 -144 159 -156 -3 -5 -1 -9 4 -9 5 0 22
-30 38 -67 26 -63 29 -78 28 -188 0 -131 -7 -161 -62 -275 -60 -121 -173 -228
-307 -290 -106 -49 -150 -63 -279 -89 -83 -18 -136 -21 -327 -21 -163 0 -252
4 -311 15 -190 36 -294 76 -408 157 -69 49 -108 101 -145 192 -31 76 -29 262
5 351 12 33 25 62 28 65 4 3 17 23 29 44 24 45 158 183 185 192 28 8 21 30
-14 47 -36 17 -120 94 -136 124 -25 46 -52 141 -52 183 0 65 33 187 65 245 16
27 50 78 77 112 53 69 58 91 28 118 -11 10 -20 24 -20 32 0 7 -3 13 -8 13 -7
0 -26 39 -68 140 -28 66 -27 350 1 430 10 30 20 57 20 60 3 17 51 110 57 110
5 0 8 5 8 10 0 22 83 119 138 162 96 76 204 122 354 152 103 21 276 20 353 -1
53 -14 150 -17 798 -20 518 -3 737 -1 737 7 0 6 -10 27 -23 48 -13 20 -27 44
-30 52 -4 8 -16 29 -27 45 -10 17 -31 53 -45 80 -14 28 -34 64 -45 80 -49 78
-94 158 -91 164 2 2 -1 7 -6 10 -8 5 -78 122 -96 161 -4 8 -16 29 -27 45 -11
17 -24 40 -30 53 l-10 22 -1295 0 -1295 0 -10 -22z"/>
<path d="M2485 3784 c-212 -55 -314 -166 -345 -375 -36 -246 68 -440 272 -503
89 -28 272 -20 356 16 63 26 149 92 151 116 1 6 4 12 9 12 11 0 48 85 68 155
23 78 22 204 -1 281 -19 66 -56 144 -67 144 -5 0 -8 6 -8 13 -1 22 -118 98
-183 119 -60 19 -212 32 -252 22z"/>
<path d="M2183 1964 c-95 -96 -119 -129 -144 -201 -26 -75 -25 -161 2 -218 20
-41 111 -135 132 -135 5 0 23 -6 40 -14 92 -41 168 -51 377 -51 170 0 216 3
270 19 135 38 251 111 288 180 55 104 67 214 31 292 -28 63 -63 99 -123 127
-91 44 -165 55 -421 61 -132 4 -270 9 -307 13 l-67 6 -78 -79z"/>
</g>
</svg>
