<svg xmlns="http://www.w3.org/2000/svg" xmlns:xlink="http://www.w3.org/1999/xlink" xmlns:xodm="http://www.corel.com/coreldraw/odm/2003" xml:space="preserve" version="1.1" style="shape-rendering:geometricPrecision; text-rendering:geometricPrecision; image-rendering:optimizeQuality; fill-rule:evenodd; clip-rule:evenodd" viewBox="1462873 5820530 18059990 18059992">
 <defs>
  <style type="text/css">
   <![CDATA[
    .fil0 {fill:#57A7B3}
    .fil1 {fill:white}
   ]]>
  </style>
 </defs>
 <g id="Vrstva_x0020_1">
  <metadata id="CorelCorpID_0Corel-Layer"/>
  <g id="_2381834812544">
   <path class="fil0" d="M9086220 23770060l-2090 -6311620 -2293780 -460 100 -2611920 2293370 -520c8490,-688260 -1370,-1392960 500,-2084920 590,-221950 23750,-436900 51320,-643030 71480,-534400 276990,-1087180 576940,-1504390 115600,-160790 263560,-334710 406200,-457460 32530,-27990 62520,-53290 95890,-81880 534080,-457560 1338500,-699770 2051890,-723080 104870,-3430 231800,-13620 334210,-4200 97850,9000 236710,7740 334340,11540 355070,13820 613380,42320 964100,78350 207000,21270 412700,59480 616140,85330l1150 2222360c-382720,10480 -1078890,-19130 -1403960,16140 -642150,69680 -1028880,412240 -1162130,980580 -49750,212180 -41840,428150 -41840,671450 0,476730 -4870,956000 280,1432420l2495640 850c6980,41780 -34140,262750 -43570,322700 -119160,757610 -227470,1532790 -351120,2289690l-2100270 20c-11010,254020 -960,530960 -960,787080 0,600680 11760,5478840 -6880,5524870 198630,-15270 720500,-139870 901540,-189520 429260,-117730 816560,-253340 1217820,-415780 126800,-51330 260080,-111490 378590,-171520 118910,-60230 253380,-120290 364600,-185400l351860 -198420c293520,-162760 720210,-467230 971700,-670330l446150 -374790c165960,-147300 483500,-444510 615290,-612060 21510,-27360 46150,-45590 69930,-73980 163580,-195310 341480,-391180 492620,-599300 78470,-108050 154530,-206180 229930,-320020 455930,-688370 830900,-1364390 1099070,-2184870 191670,-586410 337330,-1155150 412790,-1779480 285150,-2359180 -314430,-4662470 -1714210,-6539470 -78180,-104830 -156680,-201180 -236760,-304910 -80980,-104890 -160300,-202020 -252780,-297360l-130340 -140460c-45890,-55620 -87060,-94600 -136430,-142900 -94590,-92540 -180920,-181930 -274980,-275190 -595570,-590450 -1525860,-1216270 -2262690,-1571380 -34070,-16410 -59040,-23800 -93990,-41500 -34830,-17650 -55490,-28380 -91890,-43790 -68760,-29120 -124530,-56030 -192860,-86210 -258390,-114130 -522110,-206450 -793830,-298300 -138520,-46820 -282410,-86360 -423910,-126050 -72980,-20470 -143170,-36580 -216710,-54330 -73790,-17810 -144640,-37020 -226320,-52830 -494200,-95680 -668710,-122170 -1145440,-171090 -244200,-25060 -478750,-28180 -711970,-28190 -809960,-10 -1514840,76130 -2281860,274450 -149630,38680 -286620,73010 -429780,120220 -420290,138610 -793610,271300 -1184730,457430 -479120,228020 -954590,494320 -1383030,809080 -107170,78740 -214750,152480 -315900,234060 -184490,148810 -431410,338220 -593790,506510l-672400 690340c-23700,27030 -41090,48750 -62030,73460l-310710 383380c-321890,416080 -607930,867540 -848640,1343250 -121480,240080 -244040,486130 -344790,747170 -26290,68100 -48570,125760 -76100,194530 -305470,763150 -471210,1621400 -550740,2437560 -58910,604480 -27980,1278850 41440,1900380 66960,599550 227510,1238420 408400,1766820 154000,449850 385150,1017310 625750,1422810l150310 264300c244790,432840 694110,1052100 1042600,1420240l267020 283210c94780,92670 179840,182770 274960,275190l141130 129760c29460,22300 42120,40920 71140,64190 229890,184300 443760,378660 687360,548490l325120 224900c108380,73470 222400,141960 336760,213390 169380,105790 342990,199550 523830,288620 186020,91640 371270,187950 565040,264670 665860,263620 939140,361410 1667220,524720l464170 86400z"/>
   <path class="fil1" d="M9086220 23770060c106590,6580 214770,32980 328040,43930 112490,10880 230190,29460 347140,33760 236290,8700 476390,32960 727820,32770 277020,-200 799120,-27220 1075840,-65580 109880,-15230 230380,-35940 336630,-44980 18640,-46030 6880,-4924190 6880,-5524870 0,-256120 -10050,-533060 960,-787080l2100270 -20c123650,-756900 231960,-1532080 351120,-2289690 9430,-59950 50550,-280920 43570,-322700l-2495640 -860c-5150,-476410 -280,-955680 -280,-1432410 0,-243300 -7910,-459270 41840,-671450 133250,-568340 519980,-910900 1162130,-980580 325070,-35270 1021240,-5660 1403960,-16140l-1150 -2222360c-203440,-25850 -409140,-64060 -616140,-85330 -350720,-36030 -609030,-64530 -964100,-78350 -97630,-3800 -236490,-2540 -334340,-11540 -102410,-9420 -229340,770 -334210,4200 -713390,23310 -1517810,265520 -2051890,723080 -33370,28590 -63360,53890 -95890,81880 -142640,122750 -290600,296670 -406200,457460 -299950,417210 -505460,969990 -576940,1504390 -27570,206130 -50730,421080 -51320,643030 -1870,691960 7990,1396660 -500,2084920l-2293370 520 -100 2611920 2293780 460 2090 6311620z"/>
  </g>
 </g>
</svg>