<svg xmlns="http://www.w3.org/2000/svg" xmlns:xlink="http://www.w3.org/1999/xlink" xmlns:xodm="http://www.corel.com/coreldraw/odm/2003" xml:space="preserve" version="1.1" style="shape-rendering:geometricPrecision; text-rendering:geometricPrecision; image-rendering:optimizeQuality; fill-rule:evenodd; clip-rule:evenodd" viewBox="9805240 20274790 2999990 2598070">
 <defs>
  <style type="text/css">
   <![CDATA[
    .fil0 {fill:#57A7B3}
    .fil1 {fill:#FEFEFE;fill-rule:nonzero}
   ]]>
  </style>
 </defs>
 <g id="Vrstva_x0020_1">
  <metadata id="CorelCorpID_0Corel-Layer"/>
  <g id="_1938843359872">
   <polygon class="fil0" points="9805240,21573820 10180230,22223340 10555230,22872860 11305230,22872860 12055240,22872860 12430240,22223340 12805230,21573820 12430240,20924300 12055240,20274790 11305230,20274790 10555230,20274790 10180230,20924300 "/>
   <path class="fil1" d="M12410660 20890380l-723580 2720c30620,31510 52220,66160 64370,104410 12600,38260 18450,78310 18450,119720 0,68420 -10790,129160 -32840,181840 -22060,52650 -53110,97210 -94080,133660 -40950,36450 -89560,64350 -145820,83710 -56250,19350 -118810,29250 -187210,29250 -48170,0 -94520,-6310 -137730,-19350 -43650,-12600 -77400,-28800 -100810,-48160 -15760,15750 -28810,33760 -39160,54010 -9900,20260 -14860,43660 -14860,70220 0,30600 13960,56240 42760,76510 28360,20250 66610,31050 113870,32840l310090 13070c58960,1780 112980,9890 162020,24290 49060,14850 91820,35100 127810,62110 36020,26990 64380,59850 84620,99020 20250,39150 30170,84600 30170,136360 0,54460 -11270,106220 -34210,155720 -22970,49060 -58070,92270 -104870,129620 -47260,37360 -107110,67070 -180030,88660 -72900,21160 -158870,31950 -258320,31950 -95870,0 -177340,-8090 -244840,-24290 -67050,-16200 -122420,-38260 -165180,-66620 -43190,-27900 -74250,-61650 -93600,-100820 -19360,-39150 -29260,-81450 -29260,-127360 0,-28790 3590,-57150 10790,-84160 6770,-27450 17550,-53110 31970,-77860 14840,-24750 32840,-48150 54460,-70660 21140,-22510 46340,-44560 74250,-66610 -43200,-22050 -74710,-49500 -95410,-82820 -20710,-33290 -31060,-69750 -31060,-108460 0,-53540 10810,-101260 32860,-143560 22060,-42320 49500,-80110 81910,-113410 -27450,-32410 -49070,-69310 -64810,-109830 -15750,-40950 -23860,-90450 -23860,-148520 0,-67500 11700,-128270 34670,-181810 22500,-53570 54450,-99020 94950,-135930 40060,-36900 88670,-65260 145380,-85050 56700,-19810 118810,-29710 185430,-29710 35990,0 69740,1800 100800,5850 31060,4050 59380,16640 87770,16660l813130 1270 99010 171520zm-848690 227760c0,-80570 -22490,-143580 -66600,-189030 -44560,-45450 -107560,-67960 -189490,-67960 -42300,0 -78750,7200 -109810,21160 -31510,13940 -57150,33300 -77850,58050 -20710,24750 -36020,53100 -46370,85070 -9900,31950 -15290,65700 -15290,100810 0,78310 22490,139970 66600,184530 44560,44990 106670,67500 186790,67500 43190,0 80550,-6760 112060,-20700 31500,-13510 57600,-32410 78300,-56720 20700,-23840 36010,-51740 46360,-83710 9900,-31490 15300,-64350 15300,-99000zm109370 940170c0,-50850 -21150,-90010 -62550,-117910 -41870,-27450 -98570,-42310 -169680,-44110l-307390 -10350c-27900,21600 -50870,42750 -68870,62570 -17990,19790 -32410,38690 -43200,56690 -10350,18010 -17550,35560 -21610,53110 -4050,17550 -5850,35560 -5850,54000 0,57180 28810,100830 86860,130080 58070,29250 139080,44100 242600,44100 66160,0 121050,-6300 165610,-18900 44560,-13050 80120,-29700 107570,-50860 27010,-21140 46800,-45460 58500,-72450 11700,-27460 18010,-55800 18010,-85970z"/>
  </g>
 </g>
</svg>