<svg xmlns="http://www.w3.org/2000/svg" xmlns:xlink="http://www.w3.org/1999/xlink" xmlns:xodm="http://www.corel.com/coreldraw/odm/2003" xml:space="preserve" version="1.1" style="shape-rendering:geometricPrecision; text-rendering:geometricPrecision; image-rendering:optimizeQuality; fill-rule:evenodd; clip-rule:evenodd" viewBox="994470 17848736 7839720 8900175">
 <defs>
  <style type="text/css">
   <![CDATA[
    .fil0 {fill:#00AEC8}
    .fil1 {fill:white}
   ]]>
  </style>
 </defs>
 <g id="Vrstva_x0020_1">
  <metadata id="CorelCorpID_0Corel-Layer"/>
  <path class="fil0" d="M8587980 19893520l-3427410 -1978800c-152400,-87980 -340120,-87980 -492480,0l-3427400 1978800c-152360,87940 -246220,250540 -246220,426470l0 3957640c0,175970 93860,338530 246220,426510l3427400 1978770c76200,44020 161180,66000 246240,66000 85020,0 170040,-22010 246240,-66000l3427410 -1978770c152370,-87980 246200,-250540 246200,-426510l10 -3957640c0,-175930 -93850,-338520 -246210,-426470z"/>
  <path class="fil1" d="M6645690 22191200c153040,0 277070,-124040 277070,-277070l10 -749760c0,-631190 -513510,-1144690 -1144700,-1144690 -215900,-10 -418010,60140 -590550,164460l0 -882130c0,-153030 -124040,-277060 -277070,-277060 -153040,0 -277110,124030 -277110,277070l0 1862350 0 12980c-44060,282360 -288180,499360 -582720,499360 -325610,0 -590520,-264900 -590520,-590520 0,-325610 264910,-590510 590520,-590510 153040,0 277110,-124040 277110,-277070 0,-153040 -124070,-277110 -277110,-277110 -631190,0 -1144690,513500 -1144690,1144690 0,631190 513500,1144700 1144690,1144700 212690,-10 411910,-58530 582720,-159990l0 1453660c-44100,282320 -288220,499280 -582680,499280 -325650,0 -590570,-264930 -590570,-590550l0 -749760c0,-153030 -124050,-277070 -277090,-277070 -153040,0 -277090,124040 -277090,277080l0 749750c0,631190 513520,1144730 1144750,1144730 212650,0 411870,-58520 582680,-159980l0 877600c0,153040 124070,277070 277110,277070 153030,0 277070,-124030 277070,-277070l0 -1730760c4970,-43220 7800,-87070 7800,-131590l0 -12980c44060,-282360 288220,-499360 582750,-499360 325620,0 590510,264910 590510,590520 10,325610 -264900,590480 -590510,590480 -153030,0 -277110,124070 -277110,277110 0,153030 124070,277070 277110,277070 631190,0 1144690,-513510 1144690,-1144660 10,-631190 -513500,-1144690 -1144690,-1144690 -213850,-10 -414130,59090 -585540,161600 -1230,-9140 -2890,-18130 -5010,-26950l0 -469480 0 -814310c4970,-43180 7800,-86960 7800,-131450 0,-3280 -390,-6490 -500,-9770 42690,-283950 287590,-502570 583250,-502570 325620,0 590510,264900 590510,590520l10 749760c0,153030 124030,277070 277100,277070z"/>
 </g>
</svg>