<svg xmlns="http://www.w3.org/2000/svg" xmlns:xlink="http://www.w3.org/1999/xlink" version="1.1" id="layer" x="0px" y="0px" style="enable-background:new 0 0 652 652;" xml:space="preserve" viewBox="25.5 170.45 600 311.55">
<style type="text/css">
	.st0{fill:#00448C;}
	.st1{fill:#008FD3;}
	.st2{fill:#B9000C;}
	.st3{fill:#E00012;}
	.st4{fill:#231815;}
	.st5{fill:#C6E5F8;}
	.st6{fill:#21B2E8;}
</style>
<polygon class="st0" points="34.5,367.3 50.6,404.5 66.8,367.3 75.8,414.1 70.8,414.1 65,384.2 64.9,384.2 50.6,415.9 36.4,384.2   36.3,384.2 30.5,414.1 25.5,414.1 "/>
<rect x="82.9" y="369.8" class="st0" width="4.9" height="44.3"/>
<polygon class="st0" points="98.1,367.9 132.7,404.1 132.7,369.8 137.6,369.8 137.6,416.1 103,380 103,414.1 98.1,414.1 "/>
<rect x="148" y="369.8" class="st0" width="5" height="44.3"/>
<path class="st0" d="M182.7,378.5c-1.8-3.1-3.9-4.8-7.7-4.8c-3.9,0-7.4,2.8-7.4,6.9c0,3.8,3.9,5.6,7,6.9l2.9,1.3  c5.8,2.5,10.7,5.4,10.7,12.5c0,7.7-6.2,13.7-14,13.7c-7.1,0-12.4-4.6-13.8-11.5l4.8-1.4c0.6,4.5,4.1,8.2,8.9,8.2  c4.8,0,9.1-3.6,9.1-8.6c0-5.2-4.1-6.9-8.2-8.8l-2.7-1.2c-5.2-2.3-9.7-5-9.7-11.3c0-6.9,5.8-11.3,12.4-11.3c4.9,0,9.1,2.5,11.5,6.9  L182.7,378.5z"/>
<polygon class="st0" points="205.4,414.1 200.4,414.1 200.4,374.4 189.7,374.4 189.7,369.8 216.2,369.8 216.2,374.4 205.4,374.4 "/>
<path class="st0" d="M226.9,390.3L226.9,390.3h1.5c5.6,0,11.2-1.1,11.2-7.9c0-7.3-5.4-8-11.3-8h-1.5V390.3z M226.9,414.1h-4.9v-44.3  h6.4c8.4,0,16.3,2.2,16.3,12.2c0,6.8-4.3,11.6-11.1,12.2l14.1,19.9h-6.1l-13.4-19.4h-1.2V414.1z"/>
<polygon class="st0" points="248.3,369.8 254,369.8 265.3,389.6 276.6,369.8 282.3,369.8 267.8,395.1 267.8,414.1 262.8,414.1   262.8,395.1 "/>
<path class="st0" d="M309.9,392L309.9,392c0,10,8.1,18.3,18.2,18.3c10.1,0,18.2-8.3,18.2-18.3c0-10-8-18.3-18.2-18.3  C317.9,373.6,309.9,381.9,309.9,392 M351.2,392c0,12.7-10.5,22.9-23.1,22.9c-12.7,0-23.1-10.1-23.1-22.9c0-12.7,10.5-23,23.1-23  C340.7,369.1,351.2,379.3,351.2,392z"/>
<polygon class="st0" points="364.1,374.4 364.1,387.6 378.8,387.6 378.8,392.1 364.1,392.1 364.1,414.1 359.1,414.1 359.1,369.8   379.3,369.8 379.3,374.4 "/>
<rect x="28.8" y="435.7" class="st0" width="4.9" height="44.3"/>
<polygon class="st0" points="44,433.9 78.7,470 78.7,435.7 83.6,435.7 83.6,482 49,445.9 49,480 44,480 "/>
<path class="st0" d="M102.5,475.4L102.5,475.4c5.4,0,9.9-0.8,14-4.6c3.7-3.4,5.5-8,5.5-13c0-5.1-1.9-9.9-5.8-13.3  c-4.1-3.6-8.5-4.3-13.8-4.3h-3.6v35.1H102.5z M93.9,435.7h8.4c6.7,0,12.1,0.9,17.3,5.3c5.1,4.3,7.4,10.3,7.4,16.9  c0,6.5-2.4,12.2-7.2,16.5c-5.3,4.7-10.6,5.6-17.6,5.6h-8.2V435.7z"/>
<path class="st0" d="M139.6,462.1c0,3.3-0.1,7,1.9,9.9c1.9,2.7,5.7,4.2,8.9,4.2c3.2,0,6.7-1.5,8.7-3.9c2.4-2.8,2.2-6.7,2.2-10.2  v-26.4h4.9v27.7c0,4.8-0.4,8.6-3.9,12.3c-3.1,3.3-7.5,5.1-12,5.1c-4.2,0-8.5-1.6-11.5-4.5c-3.9-3.7-4.4-7.8-4.4-12.8v-27.7h4.9  V462.1z"/>
<path class="st0" d="M195.4,444.4c-1.8-3.1-3.9-4.8-7.7-4.8c-3.9,0-7.4,2.8-7.4,6.9c0,3.8,3.9,5.6,6.9,6.9l2.9,1.3  c5.8,2.5,10.7,5.4,10.7,12.5c0,7.8-6.2,13.7-14,13.7c-7.1,0-12.4-4.6-13.8-11.5l4.8-1.4c0.6,4.5,4.1,8.2,8.9,8.2  c4.8,0,9.1-3.6,9.1-8.6c0-5.2-4.1-6.9-8.2-8.8l-2.7-1.2c-5.2-2.3-9.7-5-9.7-11.3c0-6.9,5.8-11.3,12.4-11.3c5,0,9.1,2.5,11.5,6.9  L195.4,444.4z"/>
<polygon class="st0" points="218.1,480 213.1,480 213.1,440.3 202.4,440.3 202.4,435.7 228.9,435.7 228.9,440.3 218.1,440.3 "/>
<path class="st0" d="M239.6,456.3L239.6,456.3h1.5c5.6,0,11.2-1.1,11.2-7.9c0-7.3-5.4-8-11.3-8h-1.5V456.3z M239.6,480h-4.9v-44.3  h6.4c8.4,0,16.2,2.2,16.2,12.2c0,6.8-4.3,11.6-11.1,12.2l14.1,19.9h-6.1l-13.4-19.4h-1.2V480z"/>
<polygon class="st0" points="261,435.7 266.7,435.7 278,455.5 289.3,435.7 295.1,435.7 280.5,461 280.5,480 275.6,480 275.6,461 "/>
<path class="st0" d="M332.2,445.1L332.2,445.1l-7.6,17.7h15L332.2,445.1z M322.6,467.5l-5.4,12.6h-5.4l20.5-46.4l20,46.4h-5.5  l-5.2-12.6H322.6z"/>
<polygon class="st0" points="358,433.9 392.7,470 392.7,435.7 397.6,435.7 397.6,482 363,445.9 363,480 358,480 "/>
<path class="st0" d="M416.5,475.4L416.5,475.4c5.4,0,10-0.8,14-4.6c3.6-3.4,5.5-8,5.5-13c0-5.1-1.9-9.9-5.8-13.3  c-4.1-3.6-8.5-4.3-13.8-4.3h-3.6v35.1H416.5z M407.9,435.7h8.4c6.7,0,12.1,0.9,17.3,5.3c5.1,4.3,7.4,10.3,7.4,16.9  c0,6.5-2.4,12.2-7.2,16.5c-5.3,4.7-10.6,5.6-17.5,5.6h-8.3V435.7z"/>
<polygon class="st0" points="476.2,480 471.3,480 471.3,440.3 460.6,440.3 460.6,435.7 487.1,435.7 487.1,440.3 476.2,440.3 "/>
<path class="st0" d="M497.7,456.3L497.7,456.3h1.5c5.6,0,11.2-1.1,11.2-7.9c0-7.3-5.4-8-11.3-8h-1.5V456.3z M497.7,480h-4.9v-44.3  h6.4c8.4,0,16.3,2.2,16.3,12.2c0,6.8-4.3,11.6-11.1,12.2l14.1,19.9h-6.1L499,460.6h-1.2V480z"/>
<path class="st0" d="M537.6,445.1L537.6,445.1l-7.6,17.7h15L537.6,445.1z M528,467.5l-5.4,12.6h-5.4l20.5-46.4l20,46.4h-5.5  l-5.2-12.6H528z"/>
<path class="st0" d="M570,475.4L570,475.4c5.4,0,10-0.8,14-4.6c3.7-3.4,5.5-8,5.5-13c0-5.1-1.9-9.9-5.8-13.3  c-4.1-3.6-8.5-4.3-13.8-4.3h-3.6v35.1H570z M561.5,435.7h8.4c6.7,0,12.1,0.9,17.3,5.3c5.1,4.3,7.4,10.3,7.4,16.9  c0,6.5-2.4,12.2-7.2,16.5c-5.3,4.7-10.6,5.6-17.6,5.6h-8.2V435.7z"/>
<polygon class="st0" points="602.5,435.7 625.5,435.7 625.5,440.3 607.4,440.3 607.4,453.5 625,453.5 625,458.1 607.4,458.1   607.4,475.4 625.5,475.4 625.5,480 602.5,480 "/>
<path class="st1" d="M333.4,318.1c-0.9-43.1-30.5-83.8-58.7-106.1c-33-26.1-59.7-36.5-90.5-41.2c28.8,5.8,56.9,14.6,92.6,44.8  C299.2,234.5,328.1,265.7,333.4,318.1"/>
<path class="st2" d="M59.5,228.3c-9.7,12.2-18.5,28.4-24.9,45.1c-7.3,19-9.6,38.5-9,56.6h1.7c-0.1-16.9,2.3-34.1,7.5-49.9  c13.9-41.9,38.4-72.9,81.9-96.3C92.8,196.7,75,209.7,59.5,228.3"/>
<path class="st3" d="M284.3,212.9c-6.8-5.5-21.3-15.1-66.2-23.2c-45.6-8.2-85.7-7-94.2-8.6l-3.1,1.2c6.6,2.7,32.3,0.8,65.2,4.8  c32.8,4,82.6,12.1,101.6,29L284.3,212.9z"/>
<path class="st4" d="M314.8,252.4c-7.7-9-35.2-19.5-126.5-22.2c-92.6-2.7-121.4,2.1-129.7-0.7c0,0,2.1-2.7,2.8-3.4  c0,2.1,58.3-1.5,102.4-0.6c43,0.9,132.4,3.7,148.4,22.6C313.5,250,314.8,252.4,314.8,252.4"/>
<path class="st2" d="M233.5,180.9c-0.3-0.1-0.4-0.2-0.4-0.2S233.2,180.8,233.5,180.9"/>
<path class="st2" d="M237.4,182.6c-0.9-0.4-3-1.3-4-1.7c1,0.5,3.7,1.8,3.7,3.9c0,11.1-36.1,26.9-108.4,68.8  c-51.8,30.1-84.5,55.6-96.4,76.3h3.6c21.9-31.8,83.7-66.2,124-89.3c56.2-32.1,81.1-45.2,81.1-54C241,184.7,238.6,183.1,237.4,182.6"/>
<path class="st5" d="M96,328.1c0,0.6,0,1.3,0,1.9h4.3c-0.1-3.7-0.2-7.3-0.2-11c0-69.9,21.3-132,46.6-145c0,0-1.3,0.1-2.6,0.8  C119.4,189.3,96,239.5,96,328.1"/>
<path class="st6" d="M40.6,295.7c-2.8,10.9-4.5,22.5-5,34.2h2.3c1-15.4,4-33.6,10.4-52.6c13.3-38.4,43.6-82.8,81.4-98.2  C88.9,195.4,54.3,242.3,40.6,295.7"/>
<path class="st6" d="M129.7,179.1c2.6-1,5.2-1.9,7.8-2.7C134.9,177.2,132.2,178.1,129.7,179.1"/>
<path class="st6" d="M230.8,179.9c-10.2-2.2-36.3,0.6-70,6.5c-34,6-78.4,19-90,29.9c6.7-7.2,19.9-17,76.5-29.2  c46.5-10,72.3-10.4,79.2-8.7C228.4,179.1,230.8,179.9,230.8,179.9"/>
<path class="st1" d="M252.1,189.5c18,10.6,33,26.6,33,57.2c0,23.4-8.6,49.5-26.7,83.3h5.2c14.4-27.9,24.9-55.5,24.9-77.9  C288.6,224.8,279.3,204.1,252.1,189.5"/>
<path class="st4" d="M32.8,279.1c0.3-1,0.6-1.8,0.6-1.8S33,278,32.8,279.1"/>
<path class="st4" d="M37.4,292.8c-5.3-5.9-5.2-11.1-4.7-13.7c-0.4,1.5-1,3.5-1.3,5.1c-0.2,6.8,1.9,16.4,28.6,29.4  c11.9,5.8,26.5,11.2,42.5,16.3h17.2C78.3,317.6,50,306.8,37.4,292.8"/>
<path class="st1" d="M100.9,192.5c0,0-5.4,3.2-9.4,6.2c-11.4,8.8-26.8,26.1-26.8,51.7c0,17.5,5.4,43,29,79.6h8.4  c-21.9-32.2-32.8-60-32.8-83.3C69.4,218.1,86.4,201,100.9,192.5"/>
<path class="st0" d="M268.7,200c2.3,1.8,5.3,4.7,5.3,8.8c0,15.5-32.9,39.2-101.5,82c-23.9,14.9-43.5,27.8-59.6,39.1h9.3  c14.1-9.7,30.7-20.6,50.3-32.8c97.8-60.8,104.8-75.7,104.8-86C277.3,206.5,273.8,203.3,268.7,200"/>
<path class="st2" d="M147.2,173.9c2.9-0.3,4.3,0,9.8,1.2c14.5,3,54.7,12,93.1,28.8c29,12.7,57.2,32.3,66.6,52.2  c-5.3-11.5-21.6-38.5-85.4-61.8c-39.8-14.6-67.5-19.2-80.8-21C150.5,173.3,148,173.6,147.2,173.9"/>
<path class="st1" d="M164.7,171.2c9.5-0.3,38.2,10.1,76.3,49.5c29.2,30.2,55.3,68.2,66.3,109.2h4.4c-5.9-24.4-18-50-37.8-77.4  C242.4,208.9,189.7,169.5,164.7,171.2"/>
<path class="st4" d="M130.9,203.3C120.2,227,105.5,274.6,103,330h13c2.2-45.1,12.5-90.1,20-115.7c7.3-25.1,15.4-41.6,20.3-42  c-0.8,0.1-2.6,0.2-3.7,0.6C145.8,175.8,137.8,188,130.9,203.3"/>
<path class="st4" d="M287.8,216.3c-7.2-6.1-32.2-7.8-87.6-5.1c-47.4,2.3-132.7,14.4-145.4,23.5c0,0,2.1-2.8,3.2-4  c21.5-11.5,108.2-20.3,127.7-21.8c33.6-2.6,87.1-4.4,99.1,4.3C286.4,214.6,287.8,216.3,287.8,216.3"/>
<path class="st3" d="M148.8,202.8c-6.4-12.3-6.9-18.6-6.9-21.5c0-1.7,0.7-6.3,5.3-7.4c-6.8,1.4-10.2,5.5-10.2,11.7  c0,8.8,2.5,19.3,20.4,50.7c13.4,23.5,36.3,57.5,56.8,93.7h12.7c-8-14.4-17.7-30.4-29.3-48.2C189.9,270,161.7,227.6,148.8,202.8"/>
<path class="st6" d="M171.8,278.3C68.4,251,59.6,239.7,59.6,231.5c0-1.4,0.2-3,2.6-6c-1.2,1-3.6,4.1-3.6,4.1  c-0.8,1.4-1.8,3.5-1.8,5.3c0,13.1,20.9,23.3,115,48.9c63.3,17.2,107.3,32,132.6,46.3h9C285.9,310.4,229.7,293.6,171.8,278.3"/>
<path class="st0" d="M218.9,179.5c-17.7-7.7-34.9-9.4-42.2-9c35.5,1.3,73.6,26.6,102.6,62.1c24,29.4,38.4,63.9,42.5,97.3h5.5  C323,270.7,279.3,205.8,218.9,179.5"/>
<path class="st4" d="M190,171c5.3,0.8,15.6,2.5,15.6,14c0,9.5-6.6,26.3-58.3,93.2c-15.3,19.8-27.4,36.9-36.8,51.9h6.3  c9.4-14.4,20.1-29.4,31.7-44.9c42.2-56.1,60.5-82.1,60.5-99.6C208.9,174.3,197.2,171.5,190,171"/>
<path class="st6" d="M315.5,277.2c-6.4,3.7-26.8,12-83.9,28.9c-22.4,6.6-52.3,15.4-80.7,23.9h52c26.8-7.9,54.5-16.3,67.9-21  c22.7-7.9,40.8-14,48.8-18.8c5.1-3.1,7.9-4.9,7.7-8c-1.2-4.1-4.1-12-4.1-12C323.1,272.8,321.3,273.9,315.5,277.2"/>
</svg>