<svg xmlns="http://www.w3.org/2000/svg" xmlns:xlink="http://www.w3.org/1999/xlink" xmlns:xodm="http://www.corel.com/coreldraw/odm/2003" xml:space="preserve" version="1.1" style="shape-rendering:geometricPrecision; text-rendering:geometricPrecision; image-rendering:optimizeQuality; fill-rule:evenodd; clip-rule:evenodd" viewBox="6135000 4929220 10000000 3155850">
 <defs>
  <style type="text/css">
   <![CDATA[
    .fil2 {fill:#FEFEFE}
    .fil0 {fill:#CDE5E8}
    .fil1 {fill:#57A7B3}
    .fil3 {fill:#FEFEFE;fill-rule:nonzero}
   ]]>
  </style>
 </defs>
 <g id="Vrstva_x0020_1">
  <metadata id="CorelCorpID_0Corel-Layer"/>
  <g id="_1938831888400">
   <polygon class="fil0" points="6135000,5956710 6431610,6470460 6728220,6984200 7321450,6984200 7914670,6984200 8211280,6470460 8507880,5956710 8211280,5442960 7914670,4929220 7321450,4929220 6728220,4929220 6431610,5442960 "/>
   <polygon class="fil0" points="13762120,5956710 14058730,6470460 14355340,6984200 14948560,6984200 15541790,6984200 15838400,6470460 16135000,5956710 15838400,5442960 15541790,4929220 14948560,4929220 14355340,4929220 14058730,5442960 "/>
   <polygon class="fil0" points="9948570,5956710 10245180,6470460 10541790,6984200 11135010,6984200 11728230,6984200 12024850,6470460 12321450,5956710 12024850,5442960 11728230,4929220 11135010,4929220 10541790,4929220 10245180,5442960 "/>
   <polygon class="fil1" points="11855350,7057590 12151960,7571330 12448570,8085070 13041790,8085070 13635010,8085070 13931620,7571330 14228230,7057590 13931620,6543840 13635010,6030100 13041790,6030100 12448570,6030100 12151960,6543840 "/>
   <polygon class="fil0" points="8041790,7057590 8338400,7571330 8635010,8085070 9228230,8085070 9821450,8085070 10118070,7571330 10414670,7057590 10118070,6543840 9821450,6030100 9228230,6030100 8635010,6030100 8338400,6543840 "/>
   <path class="fil2" d="M12415350 7057590c0,345910 280530,626430 626430,626430 345910,0 626430,-280520 626430,-626430 0,-345900 -280520,-626430 -626430,-626430 -345900,0 -626430,280530 -626430,626430zm151100 0c0,262480 212850,475340 475330,475340 262490,0 475340,-212860 475340,-475340 0,-262480 -212850,-475330 -475340,-475330 -262480,0 -475330,212850 -475330,475330z"/>
   <path class="fil3" d="M9661640 7528530c0,8190 -2850,14600 -8550,18510 -5340,4270 -13170,7480 -22780,9610 -9970,2140 -24210,3210 -42720,3210 -18150,0 -32750,-1070 -43430,-3210 -10680,-2130 -18510,-5340 -23490,-9610 -4990,-3910 -7120,-10320 -7120,-18510l0 -93980c-41300,43790 -86860,77960 -137410,102170 -50200,24210 -103590,36660 -159840,36660 -49480,0 -94330,-6400 -134200,-19570 -39870,-12820 -74050,-31330 -102170,-55540 -28120,-24560 -50190,-54460 -65860,-89700 -15300,-35600 -23130,-75830 -23130,-121040 0,-53040 10670,-98610 32030,-137760 21720,-38810 52690,-71200 92910,-96830 40230,-25990 89710,-45210 148090,-58030 58380,-12810 124240,-19220 197220,-19220l129220 0 0 -72970c0,-36310 -3920,-68350 -11390,-96120 -7830,-27770 -19940,-50900 -37030,-69060 -17080,-18510 -39150,-32390 -66210,-42010 -27050,-9250 -60510,-13880 -100030,-13880 -42720,0 -80450,4980 -114270,14950 -33820,10330 -63360,21360 -88640,33460 -25630,12110 -46630,23140 -63720,33470 -17090,9960 -29550,14950 -38090,14950 -5340,0 -10320,-1430 -14590,-3920 -4280,-2850 -7840,-7120 -11040,-12810 -2850,-5340 -5340,-12460 -6760,-21360 -1430,-8550 -2140,-18160 -2140,-28480 0,-17440 1420,-31330 3920,-41290 2490,-9970 8180,-19580 17800,-28840 9250,-8900 25270,-19580 48410,-31680 22780,-12100 49120,-23140 79030,-33460 29900,-9970 62650,-18160 98250,-24920 35240,-6770 71190,-9970 107500,-9970 67280,0 124600,7830 171940,23140 47350,15310 85440,37730 114630,67280 29190,29550 50550,66210 63720,110000 13170,43780 19940,94690 19940,153070l0 633290zm-171230 -428600l-147020 0c-47350,0 -88290,3920 -123170,11750 -34530,8180 -63370,19930 -86510,35590 -22780,15670 -39870,34540 -50540,56250 -10680,22070 -16020,46990 -16020,75470 0,48770 15300,87570 46270,116400 30970,28840 74400,43430 129940,43430 45210,0 86860,-11390 125660,-34530 38440,-22780 79030,-58020 121390,-105370l0 -198990z"/>
   <path class="fil3" d="M15323040 6171000c0,48060 -8900,90770 -26700,128150 -17800,37740 -43080,69420 -75830,95050 -32390,25630 -71550,45210 -116760,58380 -45210,13170 -94690,19930 -149160,19930 -33100,0 -65140,-2840 -95400,-7830 -30260,-5340 -57310,-12100 -81160,-19930 -24210,-7830 -44500,-16380 -61230,-24920 -16380,-8900 -28840,-16730 -36310,-23500 -7830,-7110 -13170,-16730 -16730,-29190 -3560,-12450 -5340,-29540 -5340,-51260 0,-13170 710,-24200 2130,-33460 1430,-8900 3210,-16020 5340,-21710 2140,-5700 4990,-9620 8900,-12110 3560,-2490 8190,-3560 12820,-3560 7830,0 19220,4630 34170,14240 14950,9260 33110,19580 55180,30620 21710,11030 47700,21360 77600,30610 29910,9610 64440,14240 103240,14240 29190,0 55530,-3200 79380,-9260 23500,-6400 44140,-15660 61590,-27760 17080,-12110 30610,-27770 39870,-46280 9610,-18870 14240,-41290 14240,-66920 0,-26350 -6770,-48770 -20290,-66570 -13530,-18160 -31690,-34180 -53760,-48060 -22420,-13880 -47340,-26340 -75110,-37020 -27770,-10680 -56600,-22070 -86150,-33820 -29540,-12100 -58380,-25280 -86500,-40230 -28120,-14950 -53400,-33100 -75470,-54820 -22430,-21710 -40230,-47340 -53750,-77250 -13530,-29900 -20290,-65500 -20290,-107500 0,-36670 7120,-71910 21360,-105730 14230,-33820 35590,-63360 64070,-88640 28480,-25270 64080,-45560 106800,-60870 42710,-15310 92910,-23140 149860,-23140 24920,0 49840,2140 75120,6410 24920,3910 47340,9250 67630,15660 20290,6050 37380,12820 51620,20290 14240,7120 24920,13530 32400,19220 7110,5700 12100,10330 14590,14600 2490,4270 4270,8900 5340,14240 1070,4980 1780,11390 2850,19220 1070,7480 1780,17090 1780,28120 0,11750 -710,22080 -1780,30620 -1070,8900 -2490,16020 -4990,21360 -2490,5690 -5340,9610 -8900,12100 -3560,2490 -7470,3560 -11390,3560 -6400,0 -15300,-3560 -27410,-11390 -11740,-7480 -27050,-15660 -45560,-24560 -18870,-8550 -40940,-16730 -66570,-24570 -25280,-7470 -54110,-11390 -86860,-11390 -29190,0 -54820,3210 -77250,9970 -22070,6760 -40580,16020 -54820,28120 -14240,12110 -24920,26700 -32390,43430 -7120,16730 -10680,34530 -10680,54110 0,27060 6760,49840 20640,68350 13890,18510 32040,34530 54470,48410 22070,13890 47340,26350 75820,37740 28840,11030 57670,22430 87220,34170 29540,12110 58730,25280 87570,39870 28830,14600 54460,32040 76890,53040 22070,21010 39870,45930 53400,75120 13530,29190 20650,64070 20650,104300z"/>
   <path class="fil3" d="M11851860 6433370c0,5340 -1320,10330 -3620,13890 -2630,3910 -6910,7120 -12500,9960 -5920,2850 -13810,4990 -24330,6410 -10200,1430 -23030,2140 -38480,2140 -16120,0 -29280,-710 -39480,-2140 -10190,-1420 -18410,-3560 -24660,-6410 -5930,-2840 -10200,-6050 -12830,-9960 -2630,-3560 -3940,-8550 -3940,-13890l0 -570640c0,-39510 -3290,-75820 -9550,-108210 -6580,-32750 -16770,-60880 -30910,-84730 -14150,-23490 -32230,-41650 -53940,-54110 -21710,-12460 -47700,-18860 -76970,-18860 -36830,0 -73670,15300 -110510,45920 -36830,30610 -77620,75470 -121690,134560l0 656070c0,5340 -1320,10330 -3940,13890 -2640,3910 -6920,7120 -13160,9960 -5920,2850 -14150,4990 -24350,6410 -10520,1430 -23340,2140 -38800,2140 -14800,0 -27300,-710 -37830,-2140 -10850,-1420 -19080,-3560 -25320,-6410 -5930,-2840 -10200,-6050 -12500,-9960 -1970,-3560 -3290,-8550 -3290,-13890l0 -570640c0,-39510 -3620,-75820 -10530,-108210 -7230,-32750 -17750,-60880 -31900,-84730 -14150,-23490 -31900,-41650 -53280,-54110 -21710,-12460 -47030,-18860 -76630,-18860 -36840,0 -73680,15300 -110850,45920 -37160,30610 -77950,75470 -121370,134560l0 656070c0,5340 -1310,10330 -3940,13890 -2630,3910 -6900,7120 -12490,9960 -5930,2850 -13830,4990 -24020,6410 -10520,1430 -23680,2140 -39790,2140 -15130,0 -27960,-710 -38480,-2140 -10200,-1420 -18430,-3560 -24350,-6410 -6240,-2840 -10520,-6050 -12490,-9960 -2310,-3560 -3620,-8550 -3620,-13890l0 -938720c0,-5700 990,-10320 2960,-14240 1970,-3560 5920,-7120 11510,-10320 5920,-3210 13150,-4990 22370,-6050 8880,-1070 20720,-1780 35520,-1780 14140,0 25980,710 35190,1780 9210,1060 16440,2840 21710,6050 4930,3200 8880,6760 11180,10320 1970,3920 3290,8540 3290,14240l0 124240c48680,-59100 96040,-102530 142090,-129940 46050,-27410 92420,-41290 139120,-41290 36190,0 68410,4630 97030,13530 28610,9250 53610,21710 75650,38090 21700,16370 40450,35950 55910,58380 15130,22780 28290,48060 38490,75820 28930,-34170 56240,-63010 82220,-86500 25980,-23850 51300,-43070 75320,-57670 24010,-14600 47360,-24920 70380,-31680 22690,-6770 45720,-9970 68740,-9970 55920,0 102950,10680 140770,32040 37830,21000 68420,49480 92100,84720 23350,35600 40130,77250 49990,124600 9860,47700 14800,97890 14800,150930l0 593420z"/>
   <path class="fil3" d="M8195800 5416140l-572330 2140c24220,24930 41300,52330 50920,82590 9960,30260 14590,61940 14590,94700 0,54110 -8540,102160 -25980,143820 -17440,41640 -42010,76890 -74410,105720 -32400,28830 -70840,50900 -115340,66210 -44490,15310 -93980,23140 -148080,23140 -38100,0 -74760,-4990 -108940,-15310 -34520,-9960 -61220,-22780 -79730,-38090 -12470,12460 -22790,26700 -30980,42720 -7820,16030 -11750,34540 -11750,55540 0,24200 11050,44490 33820,60520 22430,16010 52690,24560 90070,25970l245270 10340c46630,1410 89360,7830 128150,19210 38810,11750 72630,27770 101100,49130 28480,21350 50910,47340 66930,78320 16010,30970 23850,66920 23850,107860 0,43070 -8900,84010 -27050,123160 -18170,38810 -45930,72990 -82950,102530 -37380,29550 -84720,53050 -142400,70130 -57660,16740 -125660,25270 -204320,25270 -75830,0 -140260,-6400 -193660,-19220 -53030,-12810 -96830,-30250 -130650,-52690 -34160,-22070 -58730,-48760 -74030,-79740 -15310,-30970 -23140,-64420 -23140,-100740 0,-22770 2840,-45200 8530,-66570 5350,-21710 13880,-42000 25290,-61580 11730,-19580 25970,-38090 43070,-55890 16720,-17800 36660,-35250 58730,-52690 -34170,-17440 -59090,-39150 -75470,-65500 -16370,-26340 -24560,-55170 -24560,-85790 0,-42350 8550,-80090 25990,-113550 17440,-33470 39150,-63370 64780,-89710 -21700,-25630 -38800,-54820 -51260,-86860 -12450,-32400 -18870,-71550 -18870,-117480 0,-53390 9260,-101450 27420,-143810 17800,-42360 43080,-78320 75110,-107510 31680,-29190 70130,-51620 114990,-67270 44850,-15670 93970,-23500 146660,-23500 28470,0 55170,1430 79730,4630 24570,3200 46970,13160 69430,13170l643150 1010 78320 135670zm-671290 180150c0,-63730 -17790,-113570 -52670,-149520 -35250,-35950 -85080,-53760 -149880,-53760 -33460,0 -62290,5700 -86860,16740 -24920,11030 -45200,26340 -61580,45910 -16370,19580 -28480,42010 -36670,67290 -7830,25270 -12100,51970 -12100,79740 0,61940 17790,110710 52680,145950 35240,35600 84370,53400 147740,53400 34170,0 63720,-5350 88640,-16380 24910,-10680 45560,-25630 61930,-44860 16380,-18850 28490,-40920 36670,-66210 7830,-24910 12100,-50900 12100,-78300zm86510 743630c0,-40220 -16730,-71190 -49480,-93260 -33110,-21710 -77960,-33460 -134210,-34890l-243130 -8190c-22070,17080 -40230,33820 -54470,49490 -14230,15660 -25630,30600 -34170,44850 -8190,14240 -13880,28120 -17090,42000 -3200,13890 -4630,28130 -4630,42720 0,45220 22790,79740 68700,102880 45930,23140 110010,34890 191890,34890 52330,0 95740,-4990 130990,-14950 35250,-10320 63370,-23500 85080,-40240 21360,-16720 37020,-35950 46270,-57300 9260,-21720 14250,-44140 14250,-68000z"/>
  </g>
 </g>
</svg>