<svg xmlns="http://www.w3.org/2000/svg" xmlns:xlink="http://www.w3.org/1999/xlink" xmlns:xodm="http://www.corel.com/coreldraw/odm/2003" xml:space="preserve" version="1.1" style="shape-rendering:geometricPrecision; text-rendering:geometricPrecision; image-rendering:optimizeQuality; fill-rule:evenodd; clip-rule:evenodd" viewBox="5916920 7682806.5 17865090 5648653.5">
 <defs>
  <style type="text/css">
   <![CDATA[
    .fil3 {fill:#2B2A29;fill-rule:nonzero}
    .fil1 {fill:#B32223;fill-rule:nonzero}
    .fil2 {fill:#DC1F25;fill-rule:nonzero}
    .fil4 {fill:#C8E5F9;fill-rule:nonzero}
    .fil5 {fill:#2FB4E8;fill-rule:nonzero}
    .fil0 {fill:#0094D4;fill-rule:nonzero}
    .fil6 {fill:#094A89;fill-rule:nonzero}
   ]]>
  </style>
 </defs>
 <g id="Vrstva_x0020_1">
  <metadata id="CorelCorpID_0Corel-Layer"/>
  <g id="_2318945556496">
   <path class="fil0" d="M11561220 10363610c-17040,-782180 -552160,-1522480 -1064260,-1927930 -597920,-473680 -1082110,-663540 -1640310,-748810 522290,105310 1031280,264800 1678380,813900 407310,345510 930060,912310 1026190,1862840z"/>
   <path class="fil1" d="M6598910 8733210c-176070,221580 -335840,515130 -452050,819080 -131930,344880 -174630,698960 -163830,1027430l31220 0c-2300,-307370 40710,-618670 135530,-906430 251330,-760660 695050,-1323940 1484360,-1749030 -433360,234420 -755230,471520 -1035230,808950z"/>
   <path class="fil2" d="M10671590 8452720c-123400,-99840 -386510,-274820 -1199980,-421780 -826240,-149330 -1553770,-127140 -1707090,-156780l-55350 21800c119630,48900 586040,15380 1181240,87530 594820,72250 1496560,219210 1841190,526800l-60010 -57570z"/>
   <path class="fil3" d="M11224920 9171010c-139280,-162990 -638810,-354300 -2291960,-403300 -1678340,-49810 -2200590,37640 -2349890,-12170 0,0 38130,-48680 51220,-61800 320,37710 1056540,-27630 1856600,-10450 779540,16830 2399000,66960 2689690,410390 20320,32670 44340,77330 44340,77330z"/>
   <path class="fil1" d="M9750840 7872290c-4660,-1970 -8080,-3420 -8080,-3420 0,0 3100,1450 8080,3420z"/>
   <path class="fil1" d="M9822700 7902770c-16790,-7230 -55280,-23670 -71830,-30480 18880,8260 66820,32950 66820,71400 0,202290 -654090,487720 -1965610,1249650 -939230,545990 -1531690,1010390 -1747100,1386590l64920 0c395990,-576820 1516200,-1202620 2247400,-1621610 1019390,-583950 1470660,-820210 1470660,-980190 0,-37750 -43920,-65940 -65260,-75360z"/>
   <path class="fil4" d="M7259700 10545400c0,11460 310,22860 310,34320l78150 0c-2090,-66570 -3430,-133030 -3430,-199710 0,-1270070 385310,-2397330 845440,-2634220 0,0 -23820,1020 -47490,15060 -449300,264090 -872980,1175670 -872980,2784550z"/>
   <path class="fil5" d="M6254980 9957950c-50720,198540 -81840,408340 -91360,621770l41450 0c18970,-279580 71800,-610200 189120,-956240 241020,-696910 789270,-1504380 1475530,-1783430 -739390,295270 -1365810,1146490 -1614740,2117900z"/>
   <path class="fil5" d="M7869720 7840050c46920,-18700 94260,-35460 142060,-49600 -48080,13830 -95280,30480 -142060,49600z"/>
   <path class="fil5" d="M9702150 7854510c-184750,-40500 -658420,9920 -1268970,118430 -615460,109250 -1420250,345020 -1631810,543740 121990,-130000 361000,-309110 1386800,-530510 843280,-181890 1309760,-188100 1435320,-158120 35870,10340 78660,26460 78660,26460z"/>
   <path class="fil0" d="M10089220 8027440c325860,192230 598560,483700 598560,1039110 0,425910 -155430,899480 -483520,1513210l93630 0c261830,-506240 451560,-1008420 451560,-1415630 0,-494670 -167790,-871470 -660230,-1136690z"/>
   <path class="fil3" d="M6113600 9655440c5780,-18690 10120,-31920 10120,-31920 0,0 -5650,11670 -10120,31920z"/>
   <path class="fil3" d="M6198370 9904010c-96280,-107810 -94470,-201650 -84750,-248570 -7820,26570 -18610,64170 -24290,93520 -4140,124360 34110,298490 518470,534890 215860,105190 480020,202770 770710,295870l310730 0c-750680,-223870 -1263650,-421250 -1490870,-675710z"/>
   <path class="fil0" d="M7348460 8082090c0,0 -98460,57470 -169900,112750 -207510,160510 -485920,474200 -485920,939480 0,318520 97550,781260 525850,1445610l152400 0c-397510,-585190 -594040,-1089660 -594040,-1513700 0,-518540 308500,-830150 571610,-984140z"/>
   <path class="fil6" d="M10390180 8219670c40920,33060 96160,85900 96160,160620 0,281520 -597110,711660 -1840300,1488790 -432930,270800 -788950,505080 -1080910,710680l168880 0c255440,-176750 556430,-373950 912030,-595420 1771790,-1103740 1898650,-1374710 1898650,-1562100 0,-85270 -62610,-143870 -154510,-202570z"/>
   <path class="fil1" d="M8188210 7744020c51890,-6000 78880,810 177300,21490 263180,54890 990990,217270 1688220,523480 525500,230790 1037030,586530 1206330,948900 -96630,-208490 -392260,-699380 -1548420,-1122640 -722240,-264580 -1223180,-349430 -1464660,-381140 0,0 -46000,5680 -58770,9910z"/>
   <path class="fil0" d="M8504830 7696190c171480,-4980 692460,184070 1383130,899900 528600,547650 1002420,1238140 1201780,1983840l79160 0c-107180,-443260 -325760,-908150 -684350,-1405500 -572070,-793860 -1526470,-1509360 -1979720,-1478240z"/>
   <path class="fil3" d="M7891490 8279610c-193110,430460 -459570,1295330 -505710,2300110l235590 0c39890,-820100 226900,-1636470 362370,-2101570 132750,-455260 279260,-756350 368830,-763270 -14750,1550 -48090,4020 -67660,11190 -122770,52280 -268220,275090 -393420,553540z"/>
   <path class="fil3" d="M10735410 8515160c-131490,-109960 -584420,-141390 -1586870,-93030 -858560,41450 -2405380,261590 -2634610,427780 0,0 37500,-50020 57710,-73480 389150,-208140 1961800,-368660 2314010,-395430 609000,-46390 1578360,-80290 1795600,78240 29140,23990 54160,55920 54160,55920z"/>
   <path class="fil2" d="M8216570 8269590c-116130,-223980 -124420,-338700 -124420,-390770 0,-30800 11920,-114510 96060,-134760 -122270,25820 -185100,100330 -185100,212260 0,160410 45720,350810 369350,921000 242540,427460 658010,1045000 1029160,1702610l230680 0c-144700,-261370 -319930,-551570 -531700,-876510 -139460,-213960 -650910,-984040 -884030,-1433830z"/>
   <path class="fil5" d="M8633450 9641580c-1873430,-496320 -2033200,-702380 -2033200,-851110 0,-24910 4270,-54050 47270,-109650 -21450,18810 -64450,74720 -64450,74720 -15490,25610 -32390,63430 -32390,95390 0,237600 379030,422490 2083790,888020 1146500,313160 1945080,580840 2402450,840770l162670 0c-498260,-355250 -1517580,-660430 -2566140,-938140z"/>
   <path class="fil6" d="M9487810 7846960c-320430,-139200 -632990,-170740 -765180,-163090 644140,24170 1334490,482780 1860380,1128930 434940,534630 695180,1161060 770780,1766920l100650 0c-81420,-1076320 -872420,-2256190 -1966630,-2732760z"/>
   <path class="fil3" d="M8963610 7691210c96030,14780 282050,45160 282050,253610 0,171810 -119380,478330 -1057450,1692420 -277600,359550 -495900,671090 -667700,942480l114510 0c169650,-261800 363960,-534850 574320,-815450 764080,-1018360 1096650,-1491290 1096650,-1808790 0,-203380 -212240,-254460 -342380,-264270z"/>
   <path class="fil5" d="M11238010 9620910c-116600,67270 -485920,218260 -1521250,524510 -405980,119900 -947240,280380 -1463360,434510l942200 0c485710,-143970 988170,-296330 1229750,-381170 411300,-144180 739420,-253830 883670,-342200 92430,-56760 142880,-89220 139070,-146050 -22330,-75350 -75220,-217980 -75220,-217980 2970,49210 -30370,68230 -134860,128380z"/>
   <polygon class="fil6" points="6081980,11251060 6377580,11933930 6674260,11251060 6839290,12110850 6746480,12110850 6641840,11560690 6639730,11560690 6377580,12144360 6116520,11560690 6114370,11560690 6009730,12110850 5916920,12110850 "/>
   <polygon class="fil6" points="6945650,12110850 7036290,12110850 7036290,11297490 6945650,11297490 "/>
   <polygon class="fil6" points="7206890,11262950 7841150,11927510 7841150,11297480 7931810,11297480 7931810,12147540 7297480,11484140 7297480,12110850 7206890,12110850 "/>
   <polygon class="fil6" points="8103930,12110850 8194550,12110850 8194550,11297490 8103930,11297490 "/>
   <path class="fil6" d="M8728730 11455990c-32420,-56030 -71220,-88380 -140260,-88380 -72280,0 -134830,51790 -134830,126190 0,70100 72280,102450 127320,127250l53940 23780c105650,46390 195220,99200 195220,228700 0,142420 -114370,251360 -255650,251360 -130530,0 -227620,-84140 -253510,-210430l88480 -24810c11810,83120 75490,151100 162870,151100 87390,0 167220,-66960 167220,-158640 0,-94870 -74470,-127220 -149970,-161750l-49600 -21590c-94930,-43220 -176950,-91690 -176950,-208250 0,-126220 106820,-207110 227650,-207110 90590,0 167180,46390 210320,126260l-72250 46320z"/>
   <polygon class="fil6" points="9179020,12110850 9088360,12110850 9088360,11381580 8892040,11381580 8892040,11297480 9377460,11297480 9377460,11381580 9179020,11381580 "/>
   <path class="fil6" d="M9561150 11673970l28050 0c102480,0 206050,-19440 206050,-145630 0,-133740 -98180,-146760 -207110,-146760l-26990 0 0 292390zm0 436880l-90590 0 0 -813400 117580 0c154230,0 297710,41020 297710,224360 0,125170 -78780,213650 -203870,224410l258900 364630 -111130 0 -245950 -357090 -22650 0 0 357090z"/>
   <polygon class="fil6" points="9960710,11297450 10065340,11297450 10272460,11659890 10479570,11297450 10584240,11297450 10317790,11761280 10317790,12110810 10227160,12110810 10227160,11761280 "/>
   <path class="fil6" d="M11056290 11704160c0,183340 148840,336620 333310,336620 184530,0 333370,-153280 333370,-336620 0,-184500 -146750,-336510 -333370,-336510 -186590,0 -333310,152010 -333310,336510zm757200 1130c0,234000 -192010,419630 -423890,419630 -231920,0 -423940,-185630 -423940,-419630 0,-233040 192020,-421880 423940,-421880 231880,0 423890,188840 423890,421880z"/>
   <polygon class="fil6" points="12027880,11381580 12027880,11623240 12298670,11623240 12298670,11707340 12027880,11707340 12027880,12110850 11937140,12110850 11937140,11297450 12307140,11297450 12307140,11381580 "/>
   <polygon class="fil6" points="12787730,12110850 12878460,12110850 12878460,11297490 12787730,11297490 "/>
   <polygon class="fil6" points="13048990,11262950 13683390,11927510 13683390,11297480 13773920,11297480 13773920,12147540 13139520,11484140 13139520,12110850 13048990,12110850 "/>
   <path class="fil6" d="M14100310 12026710c99230,0 182310,-14040 256710,-84140 66990,-62620 101500,-147780 101500,-238410 0,-92810 -35740,-182310 -105840,-243800 -74400,-65760 -156240,-78780 -252370,-78780l-65730 0 0 645130 65730 0zm-156460 -729260l153140 0c121950,0 221190,16220 317290,98170 92810,79800 134790,188740 134790,309670 0,118640 -43210,223240 -132710,303040 -97160,86290 -194100,102520 -321420,102520l-151090 0 0 -813400z"/>
   <path class="fil6" d="M14764230 11781880c0,60360 -2080,129400 35770,181190 35530,49600 104600,77710 163910,77710 58310,0 121740,-26950 159590,-72350 43180,-51750 39900,-122980 39900,-186550l0 -484400 90740 0 0 509200c0,88370 -6640,158580 -71340,225430 -56020,60460 -137050,92810 -218890,92810 -76700,0 -155440,-29140 -210440,-83110 -71120,-67980 -79760,-142420 -79760,-235130l0 -509200 90520 0 0 484400z"/>
   <path class="fil6" d="M15784110 11455990c-32240,-56030 -71120,-88380 -140150,-88380 -72320,0 -134980,51790 -134980,126190 0,70100 72360,102450 127320,127250l53980 23780c105830,46390 195330,99200 195330,228700 0,142420 -114300,251360 -255700,251360 -130630,0 -227570,-84140 -253610,-210430l88440 -24810c12000,83120 75680,151100 162920,151100 87420,0 167210,-66960 167210,-158640 0,-94870 -74430,-127220 -149890,-161750l-49600 -21590c-94860,-43220 -176920,-91690 -176920,-208250 0,-126220 106860,-207110 227580,-207110 90730,0 167210,46390 210430,126260l-72360 46320z"/>
   <polygon class="fil6" points="16234540,12110850 16143770,12110850 16143770,11381580 15947410,11381580 15947410,11297480 16432980,11297480 16432980,11381580 16234540,11381580 "/>
   <path class="fil6" d="M16616780 11673970l27830 0c102550,0 206160,-19440 206160,-145630 0,-133740 -98210,-146760 -207220,-146760l-26770 0 0 292390zm0 436880l-90810 0 0 -813400 117580 0c154310,0 297920,41020 297920,224360 0,125170 -78740,213650 -204040,224410l258970 364630 -111130 0 -246060 -357090 -22430 0 0 357090z"/>
   <polygon class="fil6" points="17016080,11297450 17120860,11297450 17327980,11659890 17535090,11297450 17639760,11297450 17373270,11761280 17373270,12110810 17282780,12110810 17282780,11761280 "/>
   <path class="fil6" d="M18359850 11470060l-139060 325760 274840 0 -135780 -325760zm-175890 409890l-98220 230900 -99160 0 375390 -852240 365650 852240 -100220 0 -95990 -230900 -347450 0z"/>
   <polygon class="fil6" points="18822020,11262950 19456500,11927510 19456500,11297480 19546980,11297480 19546980,12147540 18912620,11484140 18912620,12110850 18822020,12110850 "/>
   <path class="fil6" d="M19873370 12026710c99270,0 182350,-14040 256750,-84140 67000,-62620 101500,-147780 101500,-238410 0,-92810 -35770,-182310 -105830,-243800 -74410,-65760 -156320,-78780 -252420,-78780l-65720 0 0 645130 65720 0zm-156420 -729260l153140 0c121920,0 221190,16220 317290,98170 92820,79800 134730,188740 134730,309670 0,118640 -43180,223240 -132720,303040 -97150,86290 -194100,102520 -321410,102520l-151030 0 0 -813400z"/>
   <polygon class="fil6" points="20997010,12110850 20906520,12110850 20906520,11381580 20710090,11381580 20710090,11297480 21195440,11297480 21195440,11381580 20997010,11381580 "/>
   <path class="fil6" d="M21379280 11673970l28040 0c102550,0 206060,-19440 206060,-145630 0,-133740 -98110,-146760 -207120,-146760l-26980 0 0 292390zm0 436880l-90600 0 0 -813400 117580 0c154200,0 297710,41020 297710,224360 0,125170 -78740,213650 -203830,224410l258760 364630 -110910 0 -246070 -357090 -22640 0 0 357090z"/>
   <path class="fil6" d="M22171540 11470060l-139170 325760 274960 0 -135790 -325760zm-175890 409890l-98210 230900 -99170 0 375280 -852240 365760 852240 -100330 0 -95880 -230900 -347450 0z"/>
   <path class="fil6" d="M22784850 12026710c99160,0 182240,-14040 256750,-84140 66670,-62620 101280,-147780 101280,-238410 0,-92810 -35560,-182310 -105620,-243800 -74510,-65760 -156530,-78780 -252410,-78780l-65940 0 0 645130 65940 0zm-156530 -729260l153250 0c121920,0 221080,16220 317070,98170 92820,79800 134940,188740 134940,309670 0,118640 -43180,223240 -132710,303040 -97160,86290 -194310,102520 -321630,102520l-150920 0 0 -813400z"/>
   <polygon class="fil6" points="23360050,11297450 23782010,11297450 23782010,11381580 23450860,11381580 23450860,11623200 23772270,11623200 23772270,11707340 23450860,11707340 23450860,12026710 23782010,12026710 23782010,12110810 23360050,12110810 "/>
   <path class="fil6" d="M6025920 12910700c0,183340 148840,336620 333310,336620 184500,0 333310,-153280 333310,-336620 0,-184500 -146650,-336520 -333310,-336520 -186590,0 -333310,152020 -333310,336520zm757280 1130c0,234000 -192050,419630 -423970,419630 -231910,0 -423920,-185630 -423920,-419630 0,-233050 192010,-421890 423920,-421890 231920,0 423970,188840 423970,421890z"/>
   <polygon class="fil6" points="6997440,12588120 6997440,12829770 7268230,12829770 7268230,12913870 6997440,12913870 6997440,13317380 6906810,13317380 6906810,12503980 7276840,12503980 7276840,12588120 "/>
   <polygon class="fil6" points="7971000,13317380 7880410,13317380 7880410,12588120 7684090,12588120 7684090,12503980 8169550,12503980 8169550,12588120 7971000,12588120 "/>
   <polygon class="fil6" points="8773890,12834110 8773890,12504020 8864550,12504020 8864550,13317380 8773890,13317380 8773890,12918250 8357540,12918250 8357540,13317380 8266910,13317380 8266910,12504020 8357540,12504020 8357540,12834110 "/>
   <polygon class="fil6" points="9033390,12504020 9455170,12504020 9455170,12588150 9123990,12588150 9123990,12829770 9445470,12829770 9445470,12913910 9123990,12913910 9123990,13233280 9455170,13233280 9455170,13317420 9033390,13317420 "/>
   <path class="fil6" d="M10562580 12681960c-64740,-66850 -154310,-107810 -248140,-107810 -181230,0 -327950,157410 -327950,336550 0,179070 147780,336580 330100,336580 91680,0 181250,-43180 245990,-107870l0 112140c-70130,50730 -156420,79870 -242710,79870 -229800,0 -423970,-186650 -423970,-417550 0,-232930 190960,-423930 423970,-423930 90590,0 170430,25930 242710,79870l0 112150z"/>
   <polygon class="fil6" points="11231900,13233240 11231900,13317380 10649360,13317380 11092730,12588120 10705490,12588120 10705490,12503980 11243720,12503980 10799330,13233240 "/>
   <polygon class="fil6" points="11348890,12504020 11770700,12504020 11770700,12588150 11439410,12588150 11439410,12829770 11761000,12829770 11761000,12913910 11439410,12913910 11439410,13233280 11770700,13233280 11770700,13317420 11348890,13317420 "/>
   <path class="fil6" d="M12545680 12681960c-64690,-66850 -154410,-107810 -248250,-107810 -181080,0 -327830,157410 -327830,336550 0,179070 147780,336580 330090,336580 91580,0 181300,-43180 245990,-107870l0 112140c-70270,50730 -156490,79870 -242880,79870 -229660,0 -423940,-186650 -423940,-417550 0,-232930 191000,-423930 423940,-423930 90770,0 170530,25930 242880,79870l0 112150z"/>
   <polygon class="fil6" points="13210640,12834110 13210640,12504020 13301160,12504020 13301160,13317380 13210640,13317380 13210640,12918250 12794320,12918250 12794320,13317380 12703590,13317380 12703590,12504020 12794320,12504020 12794320,12834110 "/>
   <path class="fil6" d="M13893190 12880500l27900 0c102520,0 206100,-19440 206100,-145620 0,-133740 -98180,-146760 -207120,-146760l-26880 0 0 292380zm0 436880l-90730 0 0 -813400 117610 0c154200,0 297850,41030 297850,224370 0,125160 -78740,213640 -204010,224400l259010 364630 -111230 0 -245960 -357080 -22540 0 0 357080z"/>
   <polygon class="fil6" points="14387610,12504020 14809280,12504020 14809280,12588150 14478130,12588150 14478130,12829770 14799580,12829770 14799580,12913910 14478130,12913910 14478130,13233280 14809280,13233280 14809280,13317420 14387610,13317420 "/>
   <path class="fil6" d="M15054680 12877290l60360 0c100260,0 185630,-30270 185630,-146750 0,-132720 -106890,-142420 -212520,-142420l-33470 0 0 289170zm0 440090l-90740 0 0 -813400 133740 0c70270,0 142420,2190 201750,43220 60540,42050 91760,113270 91760,185490 0,65860 -26880,132710 -77720,174800 -54990,45260 -125060,53940 -193070,53940l-65720 0 0 355950z"/>
   <path class="fil6" d="M15595410 12988420c0,60360 -2080,129400 35770,181180 35530,49600 104600,77720 163910,77720 58310,0 121740,-26990 159590,-72350 43180,-51790 39870,-122980 39870,-186550l0 -484400 90770 0 0 509200c0,88370 -6640,158540 -71340,225420 -56020,60470 -137010,92820 -218890,92820 -76700,0 -155440,-29140 -210440,-83120 -71080,-68010 -79760,-142410 -79760,-235120l0 -509200 90520 0 0 484400z"/>
   <path class="fil6" d="M16337060 13233240l90520 0c101460,0 208140,-24800 208140,-148830 0,-126300 -120650,-144570 -219920,-144570l-78740 0 0 293400zm0 -371120l34530 0c102520,0 189730,-11820 189730,-138110 0,-122870 -77720,-135890 -188700,-135890l-35560 0 0 274000zm-90740 -358140l133740 0c147820,0 272060,53980 272060,220030 0,65860 -24870,121950 -80010,158640 97160,23680 154410,111130 154410,208180 0,161850 -130700,226550 -291280,226550l-188920 0 0 -813400z"/>
   <polygon class="fil6" points="16950150,13233240 17174620,13233240 17174620,13317380 16859660,13317380 16859660,12503980 16950150,12503980 "/>
   <polygon class="fil6" points="17266590,13317380 17357180,13317380 17357180,12503980 17266590,12503980 "/>
   <path class="fil6" d="M18142680 12681960c-64770,-66850 -154200,-107810 -248070,-107810 -181300,0 -328090,157410 -328090,336550 0,179070 147850,336580 330100,336580 91860,0 181290,-43180 246060,-107870l0 112140c-70170,50730 -156530,79870 -242680,79870 -229870,0 -423960,-186650 -423960,-417550 0,-232930 190920,-423930 423960,-423930 90490,0 170290,25930 242680,79870l0 112150z"/>
   <path class="fil0" d="M11561220 10363610c-17040,-782180 -552160,-1522480 -1064260,-1927930 -597920,-473680 -1082110,-663540 -1640310,-748810 522290,105310 1031280,264800 1678380,813900 407310,345510 930060,912310 1026190,1862840z"/>
   <path class="fil1" d="M6598910 8733210c-176070,221580 -335840,515130 -452050,819080 -131930,344880 -174630,698960 -163830,1027430l31220 0c-2300,-307370 40710,-618670 135530,-906430 251330,-760660 695050,-1323940 1484360,-1749030 -433360,234420 -755230,471520 -1035230,808950z"/>
   <path class="fil2" d="M10671590 8452720c-123400,-99840 -386510,-274820 -1199980,-421780 -826240,-149330 -1553770,-127140 -1707090,-156780l-55350 21800c119630,48900 586040,15380 1181240,87530 594820,72250 1496560,219210 1841190,526800l-60010 -57570z"/>
   <path class="fil3" d="M11224920 9171010c-139280,-162990 -638810,-354300 -2291960,-403300 -1678340,-49810 -2200590,37640 -2349890,-12170 0,0 38130,-48680 51220,-61800 320,37710 1056540,-27630 1856600,-10450 779540,16830 2399000,66960 2689690,410390 20320,32670 44340,77330 44340,77330z"/>
   <path class="fil1" d="M9750840 7872290c-4660,-1970 -8080,-3420 -8080,-3420 0,0 3100,1450 8080,3420z"/>
   <path class="fil1" d="M9822700 7902770c-16790,-7230 -55280,-23670 -71830,-30480 18880,8260 66820,32950 66820,71400 0,202290 -654090,487720 -1965610,1249650 -939230,545990 -1531690,1010390 -1747100,1386590l64920 0c395990,-576820 1516200,-1202620 2247400,-1621610 1019390,-583950 1470660,-820210 1470660,-980190 0,-37750 -43920,-65940 -65260,-75360z"/>
   <path class="fil4" d="M7259700 10545400c0,11460 310,22860 310,34320l78150 0c-2090,-66570 -3430,-133030 -3430,-199710 0,-1270070 385310,-2397330 845440,-2634220 0,0 -23820,1020 -47490,15060 -449300,264090 -872980,1175670 -872980,2784550z"/>
   <path class="fil5" d="M6254980 9957950c-50720,198540 -81840,408340 -91360,621770l41450 0c18970,-279580 71800,-610200 189120,-956240 241020,-696910 789270,-1504380 1475530,-1783430 -739390,295270 -1365810,1146490 -1614740,2117900z"/>
   <path class="fil5" d="M7869720 7840050c46920,-18700 94260,-35460 142060,-49600 -48080,13830 -95280,30480 -142060,49600z"/>
   <path class="fil5" d="M9702150 7854510c-184750,-40500 -658420,9920 -1268970,118430 -615460,109250 -1420250,345020 -1631810,543740 121990,-130000 361000,-309110 1386800,-530510 843280,-181890 1309760,-188100 1435320,-158120 35870,10340 78660,26460 78660,26460z"/>
   <path class="fil0" d="M10089220 8027440c325860,192230 598560,483700 598560,1039110 0,425910 -155430,899480 -483520,1513210l93630 0c261830,-506240 451560,-1008420 451560,-1415630 0,-494670 -167790,-871470 -660230,-1136690z"/>
   <path class="fil3" d="M6113600 9655440c5780,-18690 10120,-31920 10120,-31920 0,0 -5650,11670 -10120,31920z"/>
   <path class="fil3" d="M6198370 9904010c-96280,-107810 -94470,-201650 -84750,-248570 -7820,26570 -18610,64170 -24290,93520 -4140,124360 34110,298490 518470,534890 215860,105190 480020,202770 770710,295870l310730 0c-750680,-223870 -1263650,-421250 -1490870,-675710z"/>
   <path class="fil0" d="M7348460 8082090c0,0 -98460,57470 -169900,112750 -207510,160510 -485920,474200 -485920,939480 0,318520 97550,781260 525850,1445610l152400 0c-397510,-585190 -594040,-1089660 -594040,-1513700 0,-518540 308500,-830150 571610,-984140z"/>
   <path class="fil6" d="M10390180 8219670c40920,33060 96160,85900 96160,160620 0,281520 -597110,711660 -1840300,1488790 -432930,270800 -788950,505080 -1080910,710680l168880 0c255440,-176750 556430,-373950 912030,-595420 1771790,-1103740 1898650,-1374710 1898650,-1562100 0,-85270 -62610,-143870 -154510,-202570z"/>
   <path class="fil1" d="M8188210 7744020c51890,-6000 78880,810 177300,21490 263180,54890 990990,217270 1688220,523480 525500,230790 1037030,586530 1206330,948900 -96630,-208490 -392260,-699380 -1548420,-1122640 -722240,-264580 -1223180,-349430 -1464660,-381140 0,0 -46000,5680 -58770,9910z"/>
   <path class="fil0" d="M8504830 7696190c171480,-4980 692460,184070 1383130,899900 528600,547650 1002420,1238140 1201780,1983840l79160 0c-107180,-443260 -325760,-908150 -684350,-1405500 -572070,-793860 -1526470,-1509360 -1979720,-1478240z"/>
   <path class="fil3" d="M7891490 8279610c-193110,430460 -459570,1295330 -505710,2300110l235590 0c39890,-820100 226900,-1636470 362370,-2101570 132750,-455260 279260,-756350 368830,-763270 -14750,1550 -48090,4020 -67660,11190 -122770,52280 -268220,275090 -393420,553540z"/>
   <path class="fil3" d="M10735410 8515160c-131490,-109960 -584420,-141390 -1586870,-93030 -858560,41450 -2405380,261590 -2634610,427780 0,0 37500,-50020 57710,-73480 389150,-208140 1961800,-368660 2314010,-395430 609000,-46390 1578360,-80290 1795600,78240 29140,23990 54160,55920 54160,55920z"/>
   <path class="fil2" d="M8216570 8269590c-116130,-223980 -124420,-338700 -124420,-390770 0,-30800 11920,-114510 96060,-134760 -122270,25820 -185100,100330 -185100,212260 0,160410 45720,350810 369350,921000 242540,427460 658010,1045000 1029160,1702610l230680 0c-144700,-261370 -319930,-551570 -531700,-876510 -139460,-213960 -650910,-984040 -884030,-1433830z"/>
   <path class="fil5" d="M8633450 9641580c-1873430,-496320 -2033200,-702380 -2033200,-851110 0,-24910 4270,-54050 47270,-109650 -21450,18810 -64450,74720 -64450,74720 -15490,25610 -32390,63430 -32390,95390 0,237600 379030,422490 2083790,888020 1146500,313160 1945080,580840 2402450,840770l162670 0c-498260,-355250 -1517580,-660430 -2566140,-938140z"/>
   <path class="fil6" d="M9487810 7846960c-320430,-139200 -632990,-170740 -765180,-163090 644140,24170 1334490,482780 1860380,1128930 434940,534630 695180,1161060 770780,1766920l100650 0c-81420,-1076320 -872420,-2256190 -1966630,-2732760z"/>
   <path class="fil3" d="M8963610 7691210c96030,14780 282050,45160 282050,253610 0,171810 -119380,478330 -1057450,1692420 -277600,359550 -495900,671090 -667700,942480l114510 0c169650,-261800 363960,-534850 574320,-815450 764080,-1018360 1096650,-1491290 1096650,-1808790 0,-203380 -212240,-254460 -342380,-264270z"/>
   <path class="fil5" d="M11238010 9620910c-116600,67270 -485920,218260 -1521250,524510 -405980,119900 -947240,280380 -1463360,434510l942200 0c485710,-143970 988170,-296330 1229750,-381170 411300,-144180 739420,-253830 883670,-342200 92430,-56760 142880,-89220 139070,-146050 -22330,-75350 -75220,-217980 -75220,-217980 2970,49210 -30370,68230 -134860,128380z"/>
   <polygon class="fil6" points="6081980,11251060 6377580,11933930 6674260,11251060 6839290,12110850 6746480,12110850 6641840,11560690 6639730,11560690 6377580,12144360 6116520,11560690 6114370,11560690 6009730,12110850 5916920,12110850 "/>
   <polygon class="fil6" points="6945650,12110850 7036290,12110850 7036290,11297490 6945650,11297490 "/>
   <polygon class="fil6" points="7206890,11262950 7841150,11927510 7841150,11297480 7931810,11297480 7931810,12147540 7297480,11484140 7297480,12110850 7206890,12110850 "/>
   <polygon class="fil6" points="8103930,12110850 8194550,12110850 8194550,11297490 8103930,11297490 "/>
   <path class="fil6" d="M8728730 11455990c-32420,-56030 -71220,-88380 -140260,-88380 -72280,0 -134830,51790 -134830,126190 0,70100 72280,102450 127320,127250l53940 23780c105650,46390 195220,99200 195220,228700 0,142420 -114370,251360 -255650,251360 -130530,0 -227620,-84140 -253510,-210430l88480 -24810c11810,83120 75490,151100 162870,151100 87390,0 167220,-66960 167220,-158640 0,-94870 -74470,-127220 -149970,-161750l-49600 -21590c-94930,-43220 -176950,-91690 -176950,-208250 0,-126220 106820,-207110 227650,-207110 90590,0 167180,46390 210320,126260l-72250 46320z"/>
   <polygon class="fil6" points="9179020,12110850 9088360,12110850 9088360,11381580 8892040,11381580 8892040,11297480 9377460,11297480 9377460,11381580 9179020,11381580 "/>
   <path class="fil6" d="M9561150 11673970l28050 0c102480,0 206050,-19440 206050,-145630 0,-133740 -98180,-146760 -207110,-146760l-26990 0 0 292390zm0 436880l-90590 0 0 -813400 117580 0c154230,0 297710,41020 297710,224360 0,125170 -78780,213650 -203870,224410l258900 364630 -111130 0 -245950 -357090 -22650 0 0 357090z"/>
   <polygon class="fil6" points="9960710,11297450 10065340,11297450 10272460,11659890 10479570,11297450 10584240,11297450 10317790,11761280 10317790,12110810 10227160,12110810 10227160,11761280 "/>
   <path class="fil6" d="M11056290 11704160c0,183340 148840,336620 333310,336620 184530,0 333370,-153280 333370,-336620 0,-184500 -146750,-336510 -333370,-336510 -186590,0 -333310,152010 -333310,336510zm757200 1130c0,234000 -192010,419630 -423890,419630 -231920,0 -423940,-185630 -423940,-419630 0,-233040 192020,-421880 423940,-421880 231880,0 423890,188840 423890,421880z"/>
   <polygon class="fil6" points="12027880,11381580 12027880,11623240 12298670,11623240 12298670,11707340 12027880,11707340 12027880,12110850 11937140,12110850 11937140,11297450 12307140,11297450 12307140,11381580 "/>
   <polygon class="fil6" points="12787730,12110850 12878460,12110850 12878460,11297490 12787730,11297490 "/>
   <polygon class="fil6" points="13048990,11262950 13683390,11927510 13683390,11297480 13773920,11297480 13773920,12147540 13139520,11484140 13139520,12110850 13048990,12110850 "/>
   <path class="fil6" d="M14100310 12026710c99230,0 182310,-14040 256710,-84140 66990,-62620 101500,-147780 101500,-238410 0,-92810 -35740,-182310 -105840,-243800 -74400,-65760 -156240,-78780 -252370,-78780l-65730 0 0 645130 65730 0zm-156460 -729260l153140 0c121950,0 221190,16220 317290,98170 92810,79800 134790,188740 134790,309670 0,118640 -43210,223240 -132710,303040 -97160,86290 -194100,102520 -321420,102520l-151090 0 0 -813400z"/>
   <path class="fil6" d="M14764230 11781880c0,60360 -2080,129400 35770,181190 35530,49600 104600,77710 163910,77710 58310,0 121740,-26950 159590,-72350 43180,-51750 39900,-122980 39900,-186550l0 -484400 90740 0 0 509200c0,88370 -6640,158580 -71340,225430 -56020,60460 -137050,92810 -218890,92810 -76700,0 -155440,-29140 -210440,-83110 -71120,-67980 -79760,-142420 -79760,-235130l0 -509200 90520 0 0 484400z"/>
   <path class="fil6" d="M15784110 11455990c-32240,-56030 -71120,-88380 -140150,-88380 -72320,0 -134980,51790 -134980,126190 0,70100 72360,102450 127320,127250l53980 23780c105830,46390 195330,99200 195330,228700 0,142420 -114300,251360 -255700,251360 -130630,0 -227570,-84140 -253610,-210430l88440 -24810c12000,83120 75680,151100 162920,151100 87420,0 167210,-66960 167210,-158640 0,-94870 -74430,-127220 -149890,-161750l-49600 -21590c-94860,-43220 -176920,-91690 -176920,-208250 0,-126220 106860,-207110 227580,-207110 90730,0 167210,46390 210430,126260l-72360 46320z"/>
   <polygon class="fil6" points="16234540,12110850 16143770,12110850 16143770,11381580 15947410,11381580 15947410,11297480 16432980,11297480 16432980,11381580 16234540,11381580 "/>
   <path class="fil6" d="M16616780 11673970l27830 0c102550,0 206160,-19440 206160,-145630 0,-133740 -98210,-146760 -207220,-146760l-26770 0 0 292390zm0 436880l-90810 0 0 -813400 117580 0c154310,0 297920,41020 297920,224360 0,125170 -78740,213650 -204040,224410l258970 364630 -111130 0 -246060 -357090 -22430 0 0 357090z"/>
   <polygon class="fil6" points="17016080,11297450 17120860,11297450 17327980,11659890 17535090,11297450 17639760,11297450 17373270,11761280 17373270,12110810 17282780,12110810 17282780,11761280 "/>
   <path class="fil6" d="M18359850 11470060l-139060 325760 274840 0 -135780 -325760zm-175890 409890l-98220 230900 -99160 0 375390 -852240 365650 852240 -100220 0 -95990 -230900 -347450 0z"/>
   <polygon class="fil6" points="18822020,11262950 19456500,11927510 19456500,11297480 19546980,11297480 19546980,12147540 18912620,11484140 18912620,12110850 18822020,12110850 "/>
   <path class="fil6" d="M19873370 12026710c99270,0 182350,-14040 256750,-84140 67000,-62620 101500,-147780 101500,-238410 0,-92810 -35770,-182310 -105830,-243800 -74410,-65760 -156320,-78780 -252420,-78780l-65720 0 0 645130 65720 0zm-156420 -729260l153140 0c121920,0 221190,16220 317290,98170 92820,79800 134730,188740 134730,309670 0,118640 -43180,223240 -132720,303040 -97150,86290 -194100,102520 -321410,102520l-151030 0 0 -813400z"/>
   <polygon class="fil6" points="20997010,12110850 20906520,12110850 20906520,11381580 20710090,11381580 20710090,11297480 21195440,11297480 21195440,11381580 20997010,11381580 "/>
   <path class="fil6" d="M21379280 11673970l28040 0c102550,0 206060,-19440 206060,-145630 0,-133740 -98110,-146760 -207120,-146760l-26980 0 0 292390zm0 436880l-90600 0 0 -813400 117580 0c154200,0 297710,41020 297710,224360 0,125170 -78740,213650 -203830,224410l258760 364630 -110910 0 -246070 -357090 -22640 0 0 357090z"/>
   <path class="fil6" d="M22171540 11470060l-139170 325760 274960 0 -135790 -325760zm-175890 409890l-98210 230900 -99170 0 375280 -852240 365760 852240 -100330 0 -95880 -230900 -347450 0z"/>
   <path class="fil6" d="M22784850 12026710c99160,0 182240,-14040 256750,-84140 66670,-62620 101280,-147780 101280,-238410 0,-92810 -35560,-182310 -105620,-243800 -74510,-65760 -156530,-78780 -252410,-78780l-65940 0 0 645130 65940 0zm-156530 -729260l153250 0c121920,0 221080,16220 317070,98170 92820,79800 134940,188740 134940,309670 0,118640 -43180,223240 -132710,303040 -97160,86290 -194310,102520 -321630,102520l-150920 0 0 -813400z"/>
   <polygon class="fil6" points="23360050,11297450 23782010,11297450 23782010,11381580 23450860,11381580 23450860,11623200 23772270,11623200 23772270,11707340 23450860,11707340 23450860,12026710 23782010,12026710 23782010,12110810 23360050,12110810 "/>
   <path class="fil6" d="M6025920 12910700c0,183340 148840,336620 333310,336620 184500,0 333310,-153280 333310,-336620 0,-184500 -146650,-336520 -333310,-336520 -186590,0 -333310,152020 -333310,336520zm757280 1130c0,234000 -192050,419630 -423970,419630 -231910,0 -423920,-185630 -423920,-419630 0,-233050 192010,-421890 423920,-421890 231920,0 423970,188840 423970,421890z"/>
   <polygon class="fil6" points="6997440,12588120 6997440,12829770 7268230,12829770 7268230,12913870 6997440,12913870 6997440,13317380 6906810,13317380 6906810,12503980 7276840,12503980 7276840,12588120 "/>
   <polygon class="fil6" points="7971000,13317380 7880410,13317380 7880410,12588120 7684090,12588120 7684090,12503980 8169550,12503980 8169550,12588120 7971000,12588120 "/>
   <polygon class="fil6" points="8773890,12834110 8773890,12504020 8864550,12504020 8864550,13317380 8773890,13317380 8773890,12918250 8357540,12918250 8357540,13317380 8266910,13317380 8266910,12504020 8357540,12504020 8357540,12834110 "/>
   <polygon class="fil6" points="9033390,12504020 9455170,12504020 9455170,12588150 9123990,12588150 9123990,12829770 9445470,12829770 9445470,12913910 9123990,12913910 9123990,13233280 9455170,13233280 9455170,13317420 9033390,13317420 "/>
   <path class="fil6" d="M10562580 12681960c-64740,-66850 -154310,-107810 -248140,-107810 -181230,0 -327950,157410 -327950,336550 0,179070 147780,336580 330100,336580 91680,0 181250,-43180 245990,-107870l0 112140c-70130,50730 -156420,79870 -242710,79870 -229800,0 -423970,-186650 -423970,-417550 0,-232930 190960,-423930 423970,-423930 90590,0 170430,25930 242710,79870l0 112150z"/>
   <polygon class="fil6" points="11231900,13233240 11231900,13317380 10649360,13317380 11092730,12588120 10705490,12588120 10705490,12503980 11243720,12503980 10799330,13233240 "/>
   <polygon class="fil6" points="11348890,12504020 11770700,12504020 11770700,12588150 11439410,12588150 11439410,12829770 11761000,12829770 11761000,12913910 11439410,12913910 11439410,13233280 11770700,13233280 11770700,13317420 11348890,13317420 "/>
   <path class="fil6" d="M12545680 12681960c-64690,-66850 -154410,-107810 -248250,-107810 -181080,0 -327830,157410 -327830,336550 0,179070 147780,336580 330090,336580 91580,0 181300,-43180 245990,-107870l0 112140c-70270,50730 -156490,79870 -242880,79870 -229660,0 -423940,-186650 -423940,-417550 0,-232930 191000,-423930 423940,-423930 90770,0 170530,25930 242880,79870l0 112150z"/>
   <polygon class="fil6" points="13210640,12834110 13210640,12504020 13301160,12504020 13301160,13317380 13210640,13317380 13210640,12918250 12794320,12918250 12794320,13317380 12703590,13317380 12703590,12504020 12794320,12504020 12794320,12834110 "/>
   <path class="fil6" d="M13893190 12880500l27900 0c102520,0 206100,-19440 206100,-145620 0,-133740 -98180,-146760 -207120,-146760l-26880 0 0 292380zm0 436880l-90730 0 0 -813400 117610 0c154200,0 297850,41030 297850,224370 0,125160 -78740,213640 -204010,224400l259010 364630 -111230 0 -245960 -357080 -22540 0 0 357080z"/>
   <polygon class="fil6" points="14387610,12504020 14809280,12504020 14809280,12588150 14478130,12588150 14478130,12829770 14799580,12829770 14799580,12913910 14478130,12913910 14478130,13233280 14809280,13233280 14809280,13317420 14387610,13317420 "/>
   <path class="fil6" d="M15054680 12877290l60360 0c100260,0 185630,-30270 185630,-146750 0,-132720 -106890,-142420 -212520,-142420l-33470 0 0 289170zm0 440090l-90740 0 0 -813400 133740 0c70270,0 142420,2190 201750,43220 60540,42050 91760,113270 91760,185490 0,65860 -26880,132710 -77720,174800 -54990,45260 -125060,53940 -193070,53940l-65720 0 0 355950z"/>
   <path class="fil6" d="M15595410 12988420c0,60360 -2080,129400 35770,181180 35530,49600 104600,77720 163910,77720 58310,0 121740,-26990 159590,-72350 43180,-51790 39870,-122980 39870,-186550l0 -484400 90770 0 0 509200c0,88370 -6640,158540 -71340,225420 -56020,60470 -137010,92820 -218890,92820 -76700,0 -155440,-29140 -210440,-83120 -71080,-68010 -79760,-142410 -79760,-235120l0 -509200 90520 0 0 484400z"/>
   <path class="fil6" d="M16337060 13233240l90520 0c101460,0 208140,-24800 208140,-148830 0,-126300 -120650,-144570 -219920,-144570l-78740 0 0 293400zm0 -371120l34530 0c102520,0 189730,-11820 189730,-138110 0,-122870 -77720,-135890 -188700,-135890l-35560 0 0 274000zm-90740 -358140l133740 0c147820,0 272060,53980 272060,220030 0,65860 -24870,121950 -80010,158640 97160,23680 154410,111130 154410,208180 0,161850 -130700,226550 -291280,226550l-188920 0 0 -813400z"/>
   <polygon class="fil6" points="16950150,13233240 17174620,13233240 17174620,13317380 16859660,13317380 16859660,12503980 16950150,12503980 "/>
   <polygon class="fil6" points="17266590,13317380 17357180,13317380 17357180,12503980 17266590,12503980 "/>
   <path class="fil6" d="M18142680 12681960c-64770,-66850 -154200,-107810 -248070,-107810 -181300,0 -328090,157410 -328090,336550 0,179070 147850,336580 330100,336580 91860,0 181290,-43180 246060,-107870l0 112140c-70170,50730 -156530,79870 -242680,79870 -229870,0 -423960,-186650 -423960,-417550 0,-232930 190920,-423930 423960,-423930 90490,0 170290,25930 242680,79870l0 112150z"/>
  </g>
 </g>
</svg>