<svg xmlns="http://www.w3.org/2000/svg" xmlns:xlink="http://www.w3.org/1999/xlink" xmlns:xodm="http://www.corel.com/coreldraw/odm/2003" xml:space="preserve" version="1.1" style="shape-rendering:geometricPrecision; text-rendering:geometricPrecision; image-rendering:optimizeQuality; fill-rule:evenodd; clip-rule:evenodd" viewBox="6135000 4929220 10000000 4312080">
 <defs>
  <style type="text/css">
   <![CDATA[
    .fil2 {fill:#FEFEFE}
    .fil0 {fill:#CDE5E8}
    .fil1 {fill:#57A7B3}
    .fil3 {fill:#FEFEFE;fill-rule:nonzero}
    .fil4 {fill:#57A7B3;fill-rule:nonzero}
   ]]>
  </style>
 </defs>
 <g id="Vrstva_x0020_1">
  <metadata id="CorelCorpID_0Corel-Layer"/>
  <g id="_2417921368224">
   <polygon class="fil0" points="6135000,5956710 6431610,6470460 6728220,6984200 7321450,6984200 7914670,6984200 8211280,6470460 8507880,5956710 8211280,5442960 7914670,4929220 7321450,4929220 6728220,4929220 6431610,5442960 "/>
   <polygon class="fil0" points="13762120,5956710 14058730,6470460 14355340,6984200 14948560,6984200 15541790,6984200 15838400,6470460 16135000,5956710 15838400,5442960 15541790,4929220 14948560,4929220 14355340,4929220 14058730,5442960 "/>
   <polygon class="fil0" points="9948570,5956710 10245180,6470460 10541790,6984200 11135010,6984200 11728230,6984200 12024850,6470460 12321450,5956710 12024850,5442960 11728230,4929220 11135010,4929220 10541790,4929220 10245180,5442960 "/>
   <polygon class="fil1" points="11855350,7057590 12151960,7571330 12448570,8085070 13041790,8085070 13635010,8085070 13931620,7571330 14228230,7057590 13931620,6543840 13635010,6030100 13041790,6030100 12448570,6030100 12151960,6543840 "/>
   <polygon class="fil0" points="8041790,7057590 8338400,7571330 8635010,8085070 9228230,8085070 9821450,8085070 10118070,7571330 10414670,7057590 10118070,6543840 9821450,6030100 9228230,6030100 8635010,6030100 8338400,6543840 "/>
   <path class="fil2" d="M12415350 7057590c0,345910 280530,626430 626430,626430 345910,0 626430,-280520 626430,-626430 0,-345900 -280520,-626430 -626430,-626430 -345900,0 -626430,280530 -626430,626430zm151100 0c0,262480 212850,475340 475330,475340 262490,0 475340,-212860 475340,-475340 0,-262480 -212850,-475330 -475340,-475330 -262480,0 -475330,212850 -475330,475330z"/>
   <path class="fil3" d="M9661640 7528530c0,8190 -2850,14600 -8550,18510 -5340,4270 -13170,7480 -22780,9610 -9970,2140 -24210,3210 -42720,3210 -18150,0 -32750,-1070 -43430,-3210 -10680,-2130 -18510,-5340 -23490,-9610 -4990,-3910 -7120,-10320 -7120,-18510l0 -93980c-41300,43790 -86860,77960 -137410,102170 -50200,24210 -103590,36660 -159840,36660 -49480,0 -94330,-6400 -134200,-19570 -39870,-12820 -74050,-31330 -102170,-55540 -28120,-24560 -50190,-54460 -65860,-89700 -15300,-35600 -23130,-75830 -23130,-121040 0,-53040 10670,-98610 32030,-137760 21720,-38810 52690,-71200 92910,-96830 40230,-25990 89710,-45210 148090,-58030 58380,-12810 124240,-19220 197220,-19220l129220 0 0 -72970c0,-36310 -3920,-68350 -11390,-96120 -7830,-27770 -19940,-50900 -37030,-69060 -17080,-18510 -39150,-32390 -66210,-42010 -27050,-9250 -60510,-13880 -100030,-13880 -42720,0 -80450,4980 -114270,14950 -33820,10330 -63360,21360 -88640,33460 -25630,12110 -46630,23140 -63720,33470 -17090,9960 -29550,14950 -38090,14950 -5340,0 -10320,-1430 -14590,-3920 -4280,-2850 -7840,-7120 -11040,-12810 -2850,-5340 -5340,-12460 -6760,-21360 -1430,-8550 -2140,-18160 -2140,-28480 0,-17440 1420,-31330 3920,-41290 2490,-9970 8180,-19580 17800,-28840 9250,-8900 25270,-19580 48410,-31680 22780,-12100 49120,-23140 79030,-33460 29900,-9970 62650,-18160 98250,-24920 35240,-6770 71190,-9970 107500,-9970 67280,0 124600,7830 171940,23140 47350,15310 85440,37730 114630,67280 29190,29550 50550,66210 63720,110000 13170,43780 19940,94690 19940,153070l0 633290zm-171230 -428600l-147020 0c-47350,0 -88290,3920 -123170,11750 -34530,8180 -63370,19930 -86510,35590 -22780,15670 -39870,34540 -50540,56250 -10680,22070 -16020,46990 -16020,75470 0,48770 15300,87570 46270,116400 30970,28840 74400,43430 129940,43430 45210,0 86860,-11390 125660,-34530 38440,-22780 79030,-58020 121390,-105370l0 -198990z"/>
   <path class="fil3" d="M15323040 6171000c0,48060 -8900,90770 -26700,128150 -17800,37740 -43080,69420 -75830,95050 -32390,25630 -71550,45210 -116760,58380 -45210,13170 -94690,19930 -149160,19930 -33100,0 -65140,-2840 -95400,-7830 -30260,-5340 -57310,-12100 -81160,-19930 -24210,-7830 -44500,-16380 -61230,-24920 -16380,-8900 -28840,-16730 -36310,-23500 -7830,-7110 -13170,-16730 -16730,-29190 -3560,-12450 -5340,-29540 -5340,-51260 0,-13170 710,-24200 2130,-33460 1430,-8900 3210,-16020 5340,-21710 2140,-5700 4990,-9620 8900,-12110 3560,-2490 8190,-3560 12820,-3560 7830,0 19220,4630 34170,14240 14950,9260 33110,19580 55180,30620 21710,11030 47700,21360 77600,30610 29910,9610 64440,14240 103240,14240 29190,0 55530,-3200 79380,-9260 23500,-6400 44140,-15660 61590,-27760 17080,-12110 30610,-27770 39870,-46280 9610,-18870 14240,-41290 14240,-66920 0,-26350 -6770,-48770 -20290,-66570 -13530,-18160 -31690,-34180 -53760,-48060 -22420,-13880 -47340,-26340 -75110,-37020 -27770,-10680 -56600,-22070 -86150,-33820 -29540,-12100 -58380,-25280 -86500,-40230 -28120,-14950 -53400,-33100 -75470,-54820 -22430,-21710 -40230,-47340 -53750,-77250 -13530,-29900 -20290,-65500 -20290,-107500 0,-36670 7120,-71910 21360,-105730 14230,-33820 35590,-63360 64070,-88640 28480,-25270 64080,-45560 106800,-60870 42710,-15310 92910,-23140 149860,-23140 24920,0 49840,2140 75120,6410 24920,3910 47340,9250 67630,15660 20290,6050 37380,12820 51620,20290 14240,7120 24920,13530 32400,19220 7110,5700 12100,10330 14590,14600 2490,4270 4270,8900 5340,14240 1070,4980 1780,11390 2850,19220 1070,7480 1780,17090 1780,28120 0,11750 -710,22080 -1780,30620 -1070,8900 -2490,16020 -4990,21360 -2490,5690 -5340,9610 -8900,12100 -3560,2490 -7470,3560 -11390,3560 -6400,0 -15300,-3560 -27410,-11390 -11740,-7480 -27050,-15660 -45560,-24560 -18870,-8550 -40940,-16730 -66570,-24570 -25280,-7470 -54110,-11390 -86860,-11390 -29190,0 -54820,3210 -77250,9970 -22070,6760 -40580,16020 -54820,28120 -14240,12110 -24920,26700 -32390,43430 -7120,16730 -10680,34530 -10680,54110 0,27060 6760,49840 20640,68350 13890,18510 32040,34530 54470,48410 22070,13890 47340,26350 75820,37740 28840,11030 57670,22430 87220,34170 29540,12110 58730,25280 87570,39870 28830,14600 54460,32040 76890,53040 22070,21010 39870,45930 53400,75120 13530,29190 20650,64070 20650,104300z"/>
   <path class="fil3" d="M11851860 6433370c0,5340 -1320,10330 -3620,13890 -2630,3910 -6910,7120 -12500,9960 -5920,2850 -13810,4990 -24330,6410 -10200,1430 -23030,2140 -38480,2140 -16120,0 -29280,-710 -39480,-2140 -10190,-1420 -18410,-3560 -24660,-6410 -5930,-2840 -10200,-6050 -12830,-9960 -2630,-3560 -3940,-8550 -3940,-13890l0 -570640c0,-39510 -3290,-75820 -9550,-108210 -6580,-32750 -16770,-60880 -30910,-84730 -14150,-23490 -32230,-41650 -53940,-54110 -21710,-12460 -47700,-18860 -76970,-18860 -36830,0 -73670,15300 -110510,45920 -36830,30610 -77620,75470 -121690,134560l0 656070c0,5340 -1320,10330 -3940,13890 -2640,3910 -6920,7120 -13160,9960 -5920,2850 -14150,4990 -24350,6410 -10520,1430 -23340,2140 -38800,2140 -14800,0 -27300,-710 -37830,-2140 -10850,-1420 -19080,-3560 -25320,-6410 -5930,-2840 -10200,-6050 -12500,-9960 -1970,-3560 -3290,-8550 -3290,-13890l0 -570640c0,-39510 -3620,-75820 -10530,-108210 -7230,-32750 -17750,-60880 -31900,-84730 -14150,-23490 -31900,-41650 -53280,-54110 -21710,-12460 -47030,-18860 -76630,-18860 -36840,0 -73680,15300 -110850,45920 -37160,30610 -77950,75470 -121370,134560l0 656070c0,5340 -1310,10330 -3940,13890 -2630,3910 -6900,7120 -12490,9960 -5930,2850 -13830,4990 -24020,6410 -10520,1430 -23680,2140 -39790,2140 -15130,0 -27960,-710 -38480,-2140 -10200,-1420 -18430,-3560 -24350,-6410 -6240,-2840 -10520,-6050 -12490,-9960 -2310,-3560 -3620,-8550 -3620,-13890l0 -938720c0,-5700 990,-10320 2960,-14240 1970,-3560 5920,-7120 11510,-10320 5920,-3210 13150,-4990 22370,-6050 8880,-1070 20720,-1780 35520,-1780 14140,0 25980,710 35190,1780 9210,1060 16440,2840 21710,6050 4930,3200 8880,6760 11180,10320 1970,3920 3290,8540 3290,14240l0 124240c48680,-59100 96040,-102530 142090,-129940 46050,-27410 92420,-41290 139120,-41290 36190,0 68410,4630 97030,13530 28610,9250 53610,21710 75650,38090 21700,16370 40450,35950 55910,58380 15130,22780 28290,48060 38490,75820 28930,-34170 56240,-63010 82220,-86500 25980,-23850 51300,-43070 75320,-57670 24010,-14600 47360,-24920 70380,-31680 22690,-6770 45720,-9970 68740,-9970 55920,0 102950,10680 140770,32040 37830,21000 68420,49480 92100,84720 23350,35600 40130,77250 49990,124600 9860,47700 14800,97890 14800,150930l0 593420z"/>
   <path class="fil3" d="M8195800 5416140l-572330 2140c24220,24930 41300,52330 50920,82590 9960,30260 14590,61940 14590,94700 0,54110 -8540,102160 -25980,143820 -17440,41640 -42010,76890 -74410,105720 -32400,28830 -70840,50900 -115340,66210 -44490,15310 -93980,23140 -148080,23140 -38100,0 -74760,-4990 -108940,-15310 -34520,-9960 -61220,-22780 -79730,-38090 -12470,12460 -22790,26700 -30980,42720 -7820,16030 -11750,34540 -11750,55540 0,24200 11050,44490 33820,60520 22430,16010 52690,24560 90070,25970l245270 10340c46630,1410 89360,7830 128150,19210 38810,11750 72630,27770 101100,49130 28480,21350 50910,47340 66930,78320 16010,30970 23850,66920 23850,107860 0,43070 -8900,84010 -27050,123160 -18170,38810 -45930,72990 -82950,102530 -37380,29550 -84720,53050 -142400,70130 -57660,16740 -125660,25270 -204320,25270 -75830,0 -140260,-6400 -193660,-19220 -53030,-12810 -96830,-30250 -130650,-52690 -34160,-22070 -58730,-48760 -74030,-79740 -15310,-30970 -23140,-64420 -23140,-100740 0,-22770 2840,-45200 8530,-66570 5350,-21710 13880,-42000 25290,-61580 11730,-19580 25970,-38090 43070,-55890 16720,-17800 36660,-35250 58730,-52690 -34170,-17440 -59090,-39150 -75470,-65500 -16370,-26340 -24560,-55170 -24560,-85790 0,-42350 8550,-80090 25990,-113550 17440,-33470 39150,-63370 64780,-89710 -21700,-25630 -38800,-54820 -51260,-86860 -12450,-32400 -18870,-71550 -18870,-117480 0,-53390 9260,-101450 27420,-143810 17800,-42360 43080,-78320 75110,-107510 31680,-29190 70130,-51620 114990,-67270 44850,-15670 93970,-23500 146660,-23500 28470,0 55170,1430 79730,4630 24570,3200 46970,13160 69430,13170l643150 1010 78320 135670zm-671290 180150c0,-63730 -17790,-113570 -52670,-149520 -35250,-35950 -85080,-53760 -149880,-53760 -33460,0 -62290,5700 -86860,16740 -24920,11030 -45200,26340 -61580,45910 -16370,19580 -28480,42010 -36670,67290 -7830,25270 -12100,51970 -12100,79740 0,61940 17790,110710 52680,145950 35240,35600 84370,53400 147740,53400 34170,0 63720,-5350 88640,-16380 24910,-10680 45560,-25630 61930,-44860 16380,-18850 28490,-40920 36670,-66210 7830,-24910 12100,-50900 12100,-78300zm86510 743630c0,-40220 -16730,-71190 -49480,-93260 -33110,-21710 -77960,-33460 -134210,-34890l-243130 -8190c-22070,17080 -40230,33820 -54470,49490 -14230,15660 -25630,30600 -34170,44850 -8190,14240 -13880,28120 -17090,42000 -3200,13890 -4630,28130 -4630,42720 0,45220 22790,79740 68700,102880 45930,23140 110010,34890 191890,34890 52330,0 95740,-4990 130990,-14950 35250,-10320 63370,-23500 85080,-40240 21360,-16720 37020,-35950 46270,-57300 9260,-21720 14250,-44140 14250,-68000z"/>
   <g>
    <path class="fil4" d="M6406160 8315160c0,2930 -160,5470 -480,7780 -320,2220 -790,4120 -1430,5550 -630,1510 -1350,2540 -2300,3180 -950,550 -1990,870 -3020,870 -1900,0 -5000,-1430 -9280,-4370 -4370,-2930 -10160,-6190 -17470,-9760 -7300,-3570 -16030,-6830 -26190,-9760 -10160,-3020 -22230,-4450 -36120,-4450 -16590,0 -31510,3020 -44680,9050 -13180,6030 -24290,14450 -33500,25160 -9130,10640 -16110,23340 -21040,38100 -4840,14770 -7300,30720 -7300,47950 0,19200 2700,36270 8020,51110 5320,14930 12780,27470 22220,37710 9450,10240 20720,17940 33820,23250 13090,5240 27460,7860 43100,7860 9360,0 18730,-1110 28260,-3330 9600,-2300 18410,-5640 26670,-10160l0 -87630 -69770 0c-2620,0 -4610,-1350 -5960,-3970 -1270,-2620 -1980,-6750 -1980,-12300 0,-2940 160,-5480 470,-7540 320,-2150 800,-3810 1510,-5160 720,-1270 1510,-2310 2460,-2940 960,-560 2070,-870 3500,-870l95560 0c1750,0 3420,310 5160,870 1670,630 3260,1590 4610,2860 1420,1190 2460,2930 3250,5080 790,2140 1190,4680 1190,7460l0 114620c0,4040 -710,7540 -2140,10470 -1350,2940 -4290,5560 -8810,7780 -4530,2220 -10320,4680 -17470,7300 -7060,2700 -14440,4930 -22060,6750 -7620,1910 -15240,3260 -23020,4210 -7780,950 -15400,1430 -23020,1430 -23260,0 -44050,-3650 -62310,-10880 -18330,-7140 -33730,-17460 -46430,-30800 -12620,-13330 -22230,-29280 -28900,-47860 -6660,-18650 -10000,-39370 -10000,-62310 0,-23890 3580,-45560 10800,-64930 7220,-19360 17380,-35870 30480,-49530 13100,-13650 28810,-24210 47150,-31750 18410,-7460 38730,-11270 61040,-11270 11510,0 22300,1030 32380,3020 10080,2060 18970,4440 26830,7140 7860,2700 14450,5640 19760,8810 5320,3180 9050,5800 11040,7780 2060,2070 3410,4370 4200,6990 800,2620 1200,6430 1200,11430zm192240 58580c0,3410 -80,6270 -240,8570 -160,2380 -480,4200 -870,5470 -480,1350 -1120,2310 -1750,3020 -710,720 -1670,1030 -2940,1030 -1270,0 -2780,-310 -4520,-1030 -1830,-710 -3810,-1350 -6030,-2060 -2310,-720 -4770,-1350 -7540,-1990 -2860,-630 -5880,-950 -9130,-950 -3890,0 -7620,790 -11350,2380 -3730,1510 -7700,4050 -11750,7620 -4130,3570 -8410,8340 -12940,14210 -4440,5870 -9440,13100 -14840,21590l0 137720c0,1190 -320,2300 -950,3090 -640,870 -1670,1590 -3020,2220 -1430,640 -3330,1120 -5800,1430 -2540,320 -5710,480 -9600,480 -3650,0 -6750,-160 -9290,-480 -2460,-310 -4440,-790 -5870,-1430 -1510,-630 -2540,-1350 -3020,-2220 -550,-790 -870,-1900 -870,-3090l0 -209320c0,-1270 240,-2300 710,-3170 480,-800 1430,-1590 2780,-2300 1430,-720 3180,-1110 5400,-1350 2140,-240 5000,-400 8570,-400 3420,0 6270,160 8500,400 2220,240 3960,630 5230,1350 1200,710 2150,1500 2700,2300 480,870 800,1900 800,3170l0 30480c5710,-8410 11110,-15240 16110,-20480 5080,-5230 9840,-9440 14370,-12460 4440,-3010 8890,-5080 13330,-6270 4450,-1110 8890,-1740 13340,-1740 2060,0 4360,150 6900,390 2540,240 5240,640 8020,1270 2780,640 5320,1270 7540,2070 2300,790 3890,1580 4760,2300 960,790 1590,1510 1910,2220 320,720 550,1590 790,2700 240,1110 400,2700 480,4760 80,2070 80,4920 80,8500zm230660 88580c0,17060 -2220,32780 -6750,47070 -4440,14360 -11190,26750 -20080,37140 -8890,10400 -20080,18500 -33500,24290 -13410,5800 -28970,8740 -46590,8740 -17220,0 -32230,-2620 -45010,-7700 -12780,-5080 -23490,-12550 -31980,-22310 -8500,-9760 -14850,-21670 -19050,-35640 -4210,-13890 -6270,-29760 -6270,-47390 0,-17060 2220,-32780 6580,-47060 4450,-14370 11120,-26750 20010,-37150 8890,-10400 20080,-18420 33410,-24130 13340,-5800 28900,-8650 46680,-8650 17220,0 32220,2540 45000,7700 12780,5080 23500,12540 31990,22300 8570,9760 14920,21670 19210,35560 4280,13970 6350,29690 6350,47230zm-40400 2540c0,-11270 -1120,-21990 -3180,-32070 -2060,-10080 -5560,-18890 -10320,-26510 -4840,-7620 -11350,-13570 -19520,-18020 -8260,-4440 -18500,-6670 -30720,-6670 -11350,0 -21040,2070 -29210,6120 -8100,3960 -14850,9680 -20080,17060 -5320,7380 -9210,16110 -11750,26190 -2540,10090 -3810,21040 -3810,33020 0,11430 1030,22230 3090,32310 2070,10080 5560,18890 10480,26350 4840,7540 11430,13500 19610,17940 8250,4450 18490,6590 30720,6590 11190,0 20870,-1980 29050,-6030 8250,-4050 15000,-9690 20240,-16990 5320,-7220 9200,-15950 11670,-26030 2460,-10080 3730,-21120 3730,-33260zm276220 104460c0,1190 -240,2300 -800,3090 -550,870 -1500,1590 -2930,2220 -1350,640 -3180,1120 -5480,1430 -2220,320 -5000,480 -8250,480 -3580,0 -6430,-160 -8740,-480 -2220,-310 -3960,-790 -5310,-1430 -1350,-630 -2230,-1350 -2700,-2220 -400,-790 -640,-1900 -640,-3090l0 -27710c-11980,13180 -23730,22780 -35400,28820 -11590,6110 -23410,9130 -35320,9130 -13970,0 -25720,-2390 -35240,-6990 -9530,-4680 -17230,-10950 -23100,-18970 -5950,-8020 -10160,-17300 -12700,-27940 -2540,-10560 -3810,-23500 -3810,-38660l0 -127000c0,-1270 240,-2300 790,-3170 560,-800 1590,-1590 3100,-2300 1590,-720 3570,-1110 6110,-1350 2460,-240 5560,-400 9290,-400 3730,0 6820,160 9280,400 2460,240 4450,630 5960,1350 1430,710 2460,1500 3090,2300 640,870 960,1900 960,3170l0 121840c0,12230 870,22070 2690,29450 1750,7380 4450,13650 8100,18810 3650,5240 8260,9210 13810,12070 5640,2940 12150,4360 19610,4360 9600,0 19130,-3410 28650,-10230 9610,-6830 19690,-16830 30400,-30010l0 -146290c0,-1270 240,-2300 800,-3170 550,-800 1580,-1590 3170,-2300 1510,-720 3490,-1110 5870,-1350 2390,-240 5560,-400 9450,-400 3730,0 6830,160 9290,400 2460,240 4440,630 5790,1350 1430,710 2460,1500 3180,2300 710,870 1030,1900 1030,3170l0 209320zm263440 -107950c0,18330 -1980,34760 -5950,49290 -3890,14600 -9760,26980 -17380,37140 -7700,10160 -17230,17940 -28500,23500 -11350,5480 -24290,8260 -38890,8260 -6190,0 -11910,-640 -17150,-1910 -5310,-1190 -10470,-3180 -15470,-5790 -5080,-2620 -10090,-5960 -15010,-10010 -5000,-4040 -10240,-8730 -15790,-14200l0 104690c0,1190 -320,2300 -950,3260 -640,870 -1670,1660 -3020,2300 -1430,630 -3330,1110 -5800,1430 -2540,240 -5710,390 -9600,390 -3650,0 -6750,-150 -9290,-390 -2460,-320 -4440,-800 -5870,-1430 -1510,-640 -2540,-1430 -3020,-2300 -550,-960 -870,-2070 -870,-3260l0 -292340c0,-1430 240,-2540 710,-3330 480,-870 1430,-1590 2780,-2220 1430,-640 3180,-1030 5400,-1270 2140,-240 4760,-400 7860,-400 3250,0 5950,160 8020,400 2140,240 3880,630 5230,1270 1430,630 2390,1350 2940,2220 560,790 790,1900 790,3330l0 28180c6350,-6590 12470,-12220 18420,-16980 5870,-4850 11750,-8820 17780,-11990 5950,-3180 12060,-5640 18340,-7220 6270,-1670 12930,-2460 19920,-2460 15160,0 28100,2930 38810,8890 10720,5870 19370,13890 26120,24130 6740,10240 11670,22140 14760,35710 3180,13580 4680,27940 4680,43110zm-40480 4440c0,-10720 -790,-21030 -2380,-31040 -1670,-10000 -4440,-18890 -8410,-26670 -3970,-7690 -9290,-13890 -15960,-18570 -6660,-4600 -14920,-6980 -24840,-6980 -5000,0 -9840,710 -14690,2220 -4760,1510 -9680,3810 -14600,6980 -5000,3180 -10160,7390 -15640,12540 -5390,5240 -11110,11590 -17140,19210l0 83270c10480,12860 20480,22700 30000,29530 9450,6820 19370,10230 29770,10230 9600,0 17860,-2380 24760,-6980 6830,-4680 12460,-10870 16750,-18650 4210,-7700 7380,-16430 9370,-26040 2060,-9600 3010,-19290 3010,-29050zm401130 -3490c0,17060 -2220,32780 -6750,47070 -4440,14360 -11190,26750 -20080,37140 -8890,10400 -20080,18500 -33500,24290 -13410,5800 -28970,8740 -46590,8740 -17220,0 -32230,-2620 -45010,-7700 -12780,-5080 -23490,-12550 -31980,-22310 -8500,-9760 -14850,-21670 -19050,-35640 -4210,-13890 -6270,-29760 -6270,-47390 0,-17060 2220,-32780 6580,-47060 4450,-14370 11120,-26750 20010,-37150 8890,-10400 20080,-18420 33410,-24130 13340,-5800 28900,-8650 46680,-8650 17220,0 32220,2540 45000,7700 12780,5080 23500,12540 31990,22300 8570,9760 14920,21670 19210,35560 4280,13970 6350,29690 6350,47230zm-40400 2540c0,-11270 -1120,-21990 -3180,-32070 -2060,-10080 -5560,-18890 -10320,-26510 -4840,-7620 -11350,-13570 -19520,-18020 -8260,-4440 -18500,-6670 -30720,-6670 -11350,0 -21040,2070 -29210,6120 -8100,3960 -14850,9680 -20080,17060 -5320,7380 -9210,16110 -11750,26190 -2540,10090 -3810,21040 -3810,33020 0,11430 1030,22230 3090,32310 2070,10080 5560,18890 10480,26350 4840,7540 11430,13500 19610,17940 8250,4450 18490,6590 30720,6590 11190,0 20870,-1980 29050,-6030 8250,-4050 15000,-9690 20240,-16990 5320,-7220 9200,-15950 11670,-26030 2460,-10080 3730,-21120 3730,-33260zm211610 -190900c0,2940 -160,5320 -480,7070 -320,1820 -710,3250 -1030,4360 -400,1030 -950,1830 -1510,2140 -630,400 -1430,640 -2380,640 -1030,0 -2460,-400 -4050,-1030 -1670,-720 -3570,-1510 -5950,-2380 -2300,-800 -5080,-1590 -8260,-2310 -3170,-710 -6820,-1030 -11030,-1030 -5710,0 -10640,950 -14680,2780 -3970,1830 -7230,4760 -9770,8730 -2460,3970 -4200,9050 -5320,15320 -1110,6270 -1580,13890 -1580,22940l0 22780 46670 0c1270,0 2300,240 3170,790 880,560 1590,1510 2310,2780 710,1350 1270,3020 1660,5000 400,2070 560,4530 560,7460 0,5560 -720,9610 -2060,12070 -1430,2540 -3260,3730 -5640,3730l-46670 0 0 183520c0,1190 -320,2300 -960,3090 -630,870 -1660,1590 -3170,2220 -1430,640 -3410,1120 -5870,1430 -2540,320 -5640,480 -9370,480 -3650,0 -6830,-160 -9290,-480 -2460,-310 -4440,-790 -5950,-1430 -1430,-630 -2460,-1350 -3100,-2220 -630,-790 -950,-1900 -950,-3090l0 -183520 -29530 0c-2460,0 -4360,-1190 -5550,-3730 -1270,-2460 -1910,-6510 -1910,-12070 0,-2930 160,-5390 480,-7460 320,-1980 790,-3650 1430,-5000 630,-1270 1350,-2220 2300,-2780 950,-550 2060,-790 3250,-790l29530 0 0 -21670c0,-14520 1350,-27070 4050,-37540 2780,-10480 6910,-18970 12460,-25640 5640,-6670 12620,-11590 21040,-14840 8490,-3180 18410,-4770 29920,-4770 5400,0 10720,560 15800,1510 5160,1030 9040,2140 11820,3260 2860,1190 4690,2220 5640,3170 950,950 1670,2140 2300,3570 640,1510 1030,3260 1270,5400 240,2060 400,4600 400,7540zm368820 286940c1190,3410 1910,6190 1990,8260 70,2140 -560,3730 -1750,4760 -1270,1110 -3330,1830 -6190,2140 -2860,320 -6670,480 -11510,480 -4760,0 -8650,-160 -11510,-400 -2860,-240 -5000,-630 -6510,-1110 -1510,-560 -2540,-1350 -3250,-2220 -720,-950 -1350,-2150 -1990,-3490l-25800 -73270 -125090 0 -24690 72310c-470,1430 -1110,2620 -1820,3570 -800,1040 -1910,1910 -3410,2620 -1430,640 -3580,1200 -6280,1510 -2690,320 -6190,480 -10550,480 -4530,0 -8180,-240 -11040,-640 -2850,-390 -4920,-1110 -6030,-2220 -1190,-1030 -1740,-2620 -1660,-4760 70,-2070 710,-4840 1980,-8260l100890 -279480c630,-1740 1420,-3090 2460,-4200 1030,-1110 2460,-1910 4440,-2540 1910,-640 4370,-1030 7460,-1270 3020,-240 6830,-400 11510,-400 4920,0 9050,160 12300,400 3260,240 5880,630 7860,1270 2070,630 3570,1510 4690,2700 1110,1110 1900,2540 2540,4280l100960 279480zm-129540 -246700l-240 0 -51830 150020 104620 0 -52550 -150020zm354650 255120c0,1190 -240,2300 -800,3250 -550,870 -1500,1670 -2770,2220 -1350,480 -3100,960 -5240,1270 -2220,320 -4840,480 -7940,480 -3250,0 -5950,-160 -8100,-480 -2220,-310 -3960,-790 -5390,-1270 -1350,-550 -2380,-1350 -3020,-2220 -630,-950 -950,-2060 -950,-3250l0 -27710c-10960,11990 -22390,21280 -34290,27940 -11830,6670 -24850,10010 -38900,10010 -15390,0 -28490,-3020 -39370,-8970 -10790,-5960 -19600,-14050 -26350,-24210 -6750,-10160 -11670,-22070 -14760,-35800 -3100,-13730 -4690,-28180 -4690,-43340 0,-18020 1990,-34290 5800,-48740 3890,-14520 9680,-26910 17220,-37070 7620,-10230 17070,-18090 28260,-23650 11270,-5480 24210,-8250 38970,-8250 12230,0 23420,2690 33580,8010 10160,5400 20240,13260 30160,23660l0 -121690c0,-1030 240,-2060 800,-3090 550,-1030 1580,-1830 3170,-2300 1510,-560 3490,-1030 5870,-1430 2390,-400 5480,-560 9210,-560 3890,0 7070,160 9530,560 2460,400 4440,870 5790,1430 1430,470 2460,1270 3180,2300 710,1030 1030,2060 1030,3090l0 309810zm-38580 -147250c-10400,-12850 -20480,-22620 -30160,-29360 -9680,-6750 -19760,-10160 -30320,-10160 -9760,0 -18100,2380 -24850,6980 -6820,4680 -12380,10800 -16660,18420 -4290,7540 -7390,16190 -9290,25790 -1990,9610 -2940,19370 -2940,29290 0,10560 800,20880 2460,30960 1590,10000 4450,18970 8500,26830 4040,7860 9360,14130 16030,18810 6670,4760 15080,7140 25080,7140 5160,0 10080,-710 14840,-2140 4690,-1350 9530,-3730 14530,-6990 4920,-3250 10160,-7460 15560,-12620 5400,-5230 11190,-11580 17220,-19200l0 -83750zm281070 -62540c0,630 0,1270 -80,1980 -80,720 -240,1430 -400,2220 -80,800 -310,1590 -550,2540 -240,960 -480,1990 -800,3020l-71350 198830c-640,1750 -1510,3100 -2470,4210 -1030,1110 -2540,1910 -4520,2540 -2060,640 -4600,1030 -7700,1270 -3090,240 -6980,400 -11670,400 -4600,0 -8490,-160 -11590,-480 -3090,-310 -5630,-790 -7540,-1430 -1980,-630 -3490,-1430 -4520,-2540 -1110,-1110 -1990,-2380 -2620,-3970l-71120 -198830c-640,-1830 -1110,-3490 -1510,-4840 -400,-1430 -630,-2460 -710,-3180 -80,-710 -80,-1270 -80,-1740 0,-1190 320,-2300 870,-3260 640,-950 1670,-1660 3180,-2220 1420,-560 3410,-870 5790,-1030 2380,-160 5400,-240 8970,-240 4520,0 8100,160 10790,400 2700,240 4850,630 6280,1270 1500,630 2540,1350 3250,2300 710,950 1350,2060 1980,3490l59060 172560 950 2780 720 -2780 58340 -172560c310,-1430 870,-2540 1660,-3490 720,-950 1910,-1670 3340,-2300 1510,-640 3490,-1030 6030,-1270 2620,-240 5950,-400 10160,-400 3570,0 6510,80 8810,240 2300,160 4130,550 5480,1190 1350,630 2220,1350 2780,2220 550,800 790,1910 790,3100zm194230 210020c0,1830 -640,3260 -1910,4130 -1190,950 -2930,1670 -5080,2140 -2220,480 -5390,720 -9520,720 -4050,0 -7300,-240 -9690,-720 -2380,-470 -4120,-1190 -5230,-2140 -1120,-870 -1590,-2300 -1590,-4130l0 -20950c-9210,9760 -19370,17380 -30640,22780 -11190,5400 -23100,8180 -35640,8180 -11030,0 -21030,-1430 -29920,-4370 -8890,-2860 -16510,-6990 -22780,-12380 -6280,-5480 -11200,-12150 -14690,-20010 -3410,-7930 -5160,-16900 -5160,-26980 0,-11830 2380,-21990 7150,-30720 4840,-8650 11740,-15880 20710,-21590 8970,-5800 20000,-10080 33020,-12940 13020,-2860 27700,-4290 43980,-4290l28810 0 0 -16270c0,-8090 -870,-15240 -2540,-21430 -1750,-6190 -4450,-11350 -8260,-15400 -3810,-4130 -8730,-7220 -14760,-9360 -6030,-2070 -13490,-3100 -22300,-3100 -9530,0 -17940,1110 -25480,3330 -7540,2310 -14130,4770 -19770,7470 -5710,2690 -10400,5150 -14210,7460 -3810,2220 -6580,3330 -8490,3330 -1190,0 -2300,-320 -3250,-870 -960,-640 -1750,-1590 -2460,-2860 -640,-1190 -1190,-2780 -1510,-4760 -320,-1910 -480,-4050 -480,-6350 0,-3890 320,-6990 870,-9210 560,-2220 1830,-4370 3970,-6430 2070,-1980 5640,-4370 10800,-7060 5080,-2700 10950,-5160 17620,-7470 6670,-2220 13970,-4040 21910,-5550 7860,-1510 15870,-2220 23970,-2220 15000,0 27780,1740 38340,5160 10550,3410 19050,8410 25560,15000 6500,6590 11270,14760 14200,24520 2940,9770 4450,21120 4450,34140l0 141200zm-38180 -95560l-32780 0c-10560,0 -19690,870 -27470,2620 -7700,1820 -14130,4440 -19280,7930 -5080,3500 -8890,7700 -11280,12540 -2380,4930 -3570,10480 -3570,16830 0,10880 3420,19530 10320,25960 6910,6430 16590,9680 28970,9680 10080,0 19370,-2540 28020,-7700 8570,-5080 17620,-12940 27070,-23490l0 -44370zm288840 95330c0,1190 -320,2300 -950,3090 -640,870 -1590,1590 -3020,2220 -1430,640 -3330,1120 -5790,1430 -2540,320 -5640,480 -9290,480 -3890,0 -7060,-160 -9600,-480 -2460,-310 -4370,-790 -5800,-1430 -1350,-630 -2380,-1350 -3010,-2220 -640,-790 -960,-1900 -960,-3090l0 -122560c0,-11990 -870,-21590 -2770,-28810 -1830,-7310 -4530,-13580 -8100,-18890 -3570,-5240 -8180,-9290 -13890,-12070 -5640,-2780 -12150,-4210 -19610,-4210 -9600,0 -19210,3420 -28810,10240 -9680,6830 -19760,16830 -30240,30010l0 146290c0,1190 -320,2300 -950,3090 -640,870 -1670,1590 -3020,2220 -1430,640 -3330,1120 -5800,1430 -2540,320 -5710,480 -9600,480 -3650,0 -6750,-160 -9290,-480 -2460,-310 -4440,-790 -5870,-1430 -1510,-630 -2540,-1350 -3020,-2220 -550,-790 -870,-1900 -870,-3090l0 -209320c0,-1270 240,-2300 710,-3170 480,-800 1430,-1590 2780,-2300 1430,-720 3180,-1110 5400,-1350 2140,-240 5000,-400 8570,-400 3420,0 6270,160 8500,400 2220,240 3960,630 5230,1350 1200,710 2150,1500 2700,2300 480,870 800,1900 800,3170l0 27710c11740,-13180 23490,-22860 35240,-28980 11670,-6110 23490,-9200 35400,-9200 13970,0 25720,2380 35240,7140 9530,4680 17310,11030 23180,18890 5870,7940 10080,17230 12620,27780 2620,10640 3890,23420 3890,38260l0 127720z"/>
    <path class="fil4" d="M9361920 8537410c0,2700 -80,4920 -240,6900 -160,1910 -480,3570 -800,4840 -390,1350 -870,2540 -1430,3500 -550,1030 -1740,2540 -3730,4440 -1900,1910 -5230,4370 -9840,7220 -4680,2860 -9920,5400 -15710,7620 -5800,2310 -12150,4130 -18980,5480 -6820,1430 -13890,2150 -21190,2150 -15000,0 -28340,-2540 -39920,-7470 -11670,-5000 -21360,-12220 -29210,-21750 -7860,-9520 -13820,-21270 -17940,-35080 -4050,-13890 -6110,-29920 -6110,-48020 0,-20640 2460,-38340 7540,-53180 5000,-14770 11900,-26910 20710,-36360 8730,-9440 19050,-16510 30880,-21030 11910,-4600 24690,-6910 38500,-6910 6660,0 13170,640 19440,1910 6270,1190 12070,2860 17310,4840 5240,1990 10000,4370 14050,6990 4120,2620 7140,4840 8970,6740 1900,1830 3170,3340 3810,4450 710,1030 1350,2300 1740,3810 480,1510 800,3090 950,5000 160,1820 240,4210 240,6980 0,6040 -710,10240 -2060,12620 -1430,2460 -3100,3660 -5160,3660 -2300,0 -5000,-1270 -8020,-3810 -3010,-2620 -6820,-5400 -11510,-8500 -4600,-3090 -10240,-5950 -16820,-8490 -6590,-2620 -14370,-3890 -23420,-3890 -18410,0 -32540,7140 -42390,21270 -9840,14210 -14760,34770 -14760,61760 0,13490 1270,25320 3810,35480 2540,10160 6350,18650 11270,25480 5000,6820 11030,11900 18260,15240 7220,3330 15480,5000 24760,5000 8810,0 16590,-1430 23260,-4210 6670,-2780 12460,-5870 17300,-9210 4920,-3330 9050,-6350 12390,-9050 3330,-2700 5870,-4040 7770,-4040 1040,0 1990,310 2780,870 800,630 1430,1670 1990,3170 550,1510 870,3340 1110,5560 240,2300 400,4920 400,8020zm229460 -81840c0,6030 -1500,10400 -4520,12940 -3020,2540 -6430,3810 -10320,3810l-137240 0c0,11670 1190,22070 3490,31430 2310,9290 6200,17230 11670,23890 5400,6670 12460,11830 21120,15400 8730,3570 19280,5320 31900,5320 9930,0 18740,-790 26520,-2460 7700,-1590 14440,-3410 20080,-5480 5630,-1980 10320,-3810 13970,-5390 3650,-1670 6350,-2470 8250,-2470 1030,0 2070,240 2860,800 870,550 1510,1350 1980,2460 480,1110 880,2620 1120,4520 150,1910 310,4290 310,7070 0,2060 -80,3810 -230,5240 -160,1500 -320,2770 -560,3970 -240,1190 -640,2220 -1190,3170 -560,870 -1270,1830 -2060,2620 -880,870 -3420,2300 -7620,4210 -4130,1900 -9610,3810 -16280,5710 -6660,1830 -14360,3490 -23090,5000 -8740,1430 -18100,2230 -28020,2230 -17230,0 -32310,-2470 -45250,-7230 -12940,-4840 -23810,-11980 -32700,-21430 -8810,-9450 -15480,-21270 -20000,-35560 -4450,-14290 -6750,-30880 -6750,-49770 0,-17940 2380,-34130 6990,-48500 4680,-14280 11350,-26510 20160,-36510 8730,-10000 19280,-17620 31750,-23020 12380,-5320 26270,-8010 41590,-8010 16430,0 30400,2620 41990,7930 11510,5240 21030,12390 28490,21280 7470,8890 12860,19360 16360,31350 3490,12060 5230,24840 5230,38500l0 6980zm-38570 -11350c470,-20160 -3970,-36040 -13420,-47470 -9360,-11510 -23250,-17220 -41670,-17220 -9520,0 -17780,1830 -24920,5400 -7150,3490 -13100,8250 -17860,14130 -4840,5870 -8570,12780 -11190,20550 -2620,7860 -4130,16040 -4450,24610l113510 0zm276220 125100c0,1190 -240,2300 -800,3250 -550,870 -1500,1670 -2770,2220 -1350,480 -3100,960 -5240,1270 -2220,320 -4840,480 -7940,480 -3250,0 -5950,-160 -8100,-480 -2220,-310 -3960,-790 -5390,-1270 -1350,-550 -2380,-1350 -3020,-2220 -630,-950 -950,-2060 -950,-3250l0 -27710c-10960,11990 -22390,21280 -34290,27940 -11830,6670 -24850,10010 -38900,10010 -15390,0 -28490,-3020 -39370,-8970 -10790,-5960 -19600,-14050 -26350,-24210 -6750,-10160 -11670,-22070 -14760,-35800 -3100,-13730 -4690,-28180 -4690,-43340 0,-18020 1990,-34290 5800,-48740 3890,-14520 9680,-26910 17220,-37070 7620,-10230 17070,-18090 28260,-23650 11270,-5480 24210,-8250 38970,-8250 12230,0 23420,2690 33580,8010 10160,5400 20240,13260 30160,23660l0 -121690c0,-1030 240,-2060 800,-3090 550,-1030 1580,-1830 3170,-2300 1510,-560 3490,-1030 5870,-1430 2390,-400 5480,-560 9210,-560 3890,0 7070,160 9530,560 2460,400 4440,870 5790,1430 1430,470 2460,1270 3180,2300 710,1030 1030,2060 1030,3090l0 309810zm-38580 -147250c-10400,-12850 -20480,-22620 -30160,-29360 -9680,-6750 -19760,-10160 -30320,-10160 -9760,0 -18100,2380 -24850,6980 -6820,4680 -12380,10800 -16660,18420 -4290,7540 -7390,16190 -9290,25790 -1990,9610 -2940,19370 -2940,29290 0,10560 800,20880 2460,30960 1590,10000 4450,18970 8500,26830 4040,7860 9360,14130 16030,18810 6670,4760 15080,7140 25080,7140 5160,0 10080,-710 14840,-2140 4690,-1350 9530,-3730 14530,-6990 4920,-3250 10160,-7460 15560,-12620 5400,-5230 11190,-11580 17220,-19200l0 -83750zm549480 147010c0,1190 -320,2300 -950,3250 -640,950 -1670,1670 -3260,2220 -1510,560 -3490,960 -5870,1350 -2460,400 -5560,640 -9450,640 -3570,0 -6660,-240 -9200,-640 -2540,-390 -4530,-790 -6040,-1350 -1510,-550 -2540,-1270 -3170,-2220 -560,-950 -880,-2060 -880,-3250l0 -262100 -470 0 -107240 263210c-470,1110 -1110,2060 -1980,2860 -800,710 -2070,1420 -3650,1980 -1670,480 -3570,870 -5880,1110 -2220,240 -4920,400 -8010,400 -3260,0 -6040,-160 -8340,-480 -2380,-310 -4280,-790 -5870,-1270 -1510,-550 -2700,-1270 -3570,-1980 -880,-800 -1430,-1670 -1750,-2620l-102550 -263210 -240 0 0 262100c0,1190 -320,2300 -950,3250 -560,950 -1670,1670 -3260,2220 -1510,560 -3490,960 -6030,1350 -2460,400 -5640,640 -9520,640 -3740,0 -6830,-240 -9290,-640 -2460,-390 -4450,-790 -5950,-1350 -1430,-550 -2470,-1270 -3020,-2220 -560,-950 -790,-2060 -790,-3250l0 -276780c0,-6510 1660,-11120 5080,-13890 3410,-2780 7220,-4210 11430,-4210l24200 0c4930,0 9290,480 13020,1430 3730,870 6990,2380 9770,4360 2770,2070 5080,4610 6980,7700 1830,3100 3490,6750 4840,10960l87240 217880 1110 0 90720 -217250c1670,-4600 3570,-8570 5560,-11830 2060,-3250 4280,-5870 6670,-7770 2380,-1990 5080,-3340 8010,-4210 2940,-870 6350,-1270 10240,-1270l25320 0c2300,0 4530,320 6670,1030 2060,720 3810,1830 5320,3260 1510,1500 2700,3330 3570,5550 950,2300 1430,5000 1430,8260l0 276780zm233280 470c0,1830 -640,3260 -1910,4130 -1190,950 -2930,1670 -5080,2140 -2220,480 -5390,720 -9520,720 -4050,0 -7300,-240 -9690,-720 -2380,-470 -4120,-1190 -5230,-2140 -1120,-870 -1590,-2300 -1590,-4130l0 -20950c-9210,9760 -19370,17380 -30640,22780 -11190,5400 -23100,8180 -35640,8180 -11030,0 -21030,-1430 -29920,-4370 -8890,-2860 -16510,-6990 -22780,-12380 -6280,-5480 -11200,-12150 -14690,-20010 -3410,-7930 -5160,-16900 -5160,-26980 0,-11830 2380,-21990 7150,-30720 4840,-8650 11740,-15880 20710,-21590 8970,-5800 20000,-10080 33020,-12940 13020,-2860 27700,-4290 43980,-4290l28810 0 0 -16270c0,-8090 -870,-15240 -2540,-21430 -1750,-6190 -4450,-11350 -8260,-15400 -3810,-4130 -8730,-7220 -14760,-9360 -6030,-2070 -13490,-3100 -22300,-3100 -9530,0 -17940,1110 -25480,3330 -7540,2310 -14130,4770 -19770,7470 -5710,2690 -10400,5150 -14210,7460 -3810,2220 -6580,3330 -8490,3330 -1190,0 -2300,-320 -3250,-870 -960,-640 -1750,-1590 -2460,-2860 -640,-1190 -1190,-2780 -1510,-4760 -320,-1910 -480,-4050 -480,-6350 0,-3890 320,-6990 870,-9210 560,-2220 1830,-4370 3970,-6430 2070,-1980 5640,-4370 10800,-7060 5080,-2700 10950,-5160 17620,-7470 6670,-2220 13970,-4040 21910,-5550 7860,-1510 15870,-2220 23970,-2220 15000,0 27780,1740 38340,5160 10550,3410 19050,8410 25560,15000 6500,6590 11270,14760 14200,24520 2940,9770 4450,21120 4450,34140l0 141200zm-38180 -95560l-32780 0c-10560,0 -19690,870 -27470,2620 -7700,1820 -14130,4440 -19280,7930 -5080,3500 -8890,7700 -11280,12540 -2380,4930 -3570,10480 -3570,16830 0,10880 3420,19530 10320,25960 6910,6430 16590,9680 28970,9680 10080,0 19370,-2540 28020,-7700 8570,-5080 17620,-12940 27070,-23490l0 -44370zm212950 79930c0,4520 -310,8090 -870,10710 -630,2620 -1590,4610 -2860,5800 -1190,1270 -3090,2460 -5550,3490 -2460,1110 -5320,1980 -8500,2700 -3170,710 -6510,1270 -10080,1740 -3570,480 -7140,720 -10710,720 -10880,0 -20160,-1430 -27940,-4290 -7700,-2930 -14050,-7220 -19050,-13020 -4920,-5870 -8580,-13170 -10800,-22140 -2220,-8890 -3330,-19370 -3330,-31510l0 -122320 -29370 0c-2300,0 -4130,-1190 -5560,-3730 -1430,-2460 -2060,-6510 -2060,-12070 0,-2930 160,-5390 560,-7460 390,-1980 870,-3650 1500,-5000 640,-1270 1430,-2220 2460,-2780 1040,-550 2150,-790 3340,-790l29130 0 0 -49770c0,-1110 240,-2060 790,-3010 560,-960 1510,-1750 3020,-2460 1430,-720 3410,-1190 5950,-1510 2460,-320 5560,-480 9290,-480 3890,0 7060,160 9520,480 2460,320 4450,790 5800,1510 1430,710 2380,1500 3010,2460 640,950 960,1900 960,3010l0 49770 53730 0c1190,0 2310,240 3260,790 870,560 1740,1510 2380,2780 710,1350 1270,3020 1510,5000 310,2070 470,4530 470,7460 0,5560 -630,9610 -2060,12070 -1430,2540 -3250,3730 -5560,3730l-53730 0 0 116760c0,14450 2140,25320 6350,32700 4280,7310 11900,11040 22940,11040 3570,0 6740,-400 9520,-1040 2780,-710 5320,-1500 7460,-2220 2150,-790 4050,-1510 5560,-2220 1590,-710 2940,-1030 4210,-1030 790,0 1500,160 2220,550 710,400 1190,1110 1590,2230 390,1110 790,2540 1030,4360 310,1910 470,4210 470,6990zm224230 -98350c0,6030 -1500,10400 -4520,12940 -3020,2540 -6430,3810 -10320,3810l-137240 0c0,11670 1190,22070 3490,31430 2310,9290 6200,17230 11670,23890 5400,6670 12460,11830 21120,15400 8730,3570 19280,5320 31900,5320 9930,0 18740,-790 26520,-2460 7700,-1590 14440,-3410 20080,-5480 5630,-1980 10320,-3810 13970,-5390 3650,-1670 6350,-2470 8250,-2470 1030,0 2070,240 2860,800 870,550 1510,1350 1980,2460 480,1110 880,2620 1120,4520 150,1910 310,4290 310,7070 0,2060 -80,3810 -230,5240 -160,1500 -320,2770 -560,3970 -240,1190 -640,2220 -1190,3170 -560,870 -1270,1830 -2060,2620 -880,870 -3420,2300 -7620,4210 -4130,1900 -9610,3810 -16280,5710 -6660,1830 -14360,3490 -23090,5000 -8740,1430 -18100,2230 -28020,2230 -17230,0 -32310,-2470 -45250,-7230 -12940,-4840 -23810,-11980 -32700,-21430 -8810,-9450 -15480,-21270 -20000,-35560 -4450,-14290 -6750,-30880 -6750,-49770 0,-17940 2380,-34130 6990,-48500 4680,-14280 11350,-26510 20160,-36510 8730,-10000 19280,-17620 31750,-23020 12380,-5320 26270,-8010 41590,-8010 16430,0 30400,2620 41990,7930 11510,5240 21030,12390 28490,21280 7470,8890 12860,19360 16360,31350 3490,12060 5230,24840 5230,38500l0 6980zm-38570 -11350c470,-20160 -3970,-36040 -13420,-47470 -9360,-11510 -23250,-17220 -41670,-17220 -9520,0 -17780,1830 -24920,5400 -7150,3490 -13100,8250 -17860,14130 -4840,5870 -8570,12780 -11190,20550 -2620,7860 -4130,16040 -4450,24610l113510 0zm219230 -70480c0,3410 -80,6270 -240,8570 -160,2380 -480,4200 -870,5470 -480,1350 -1120,2310 -1750,3020 -710,720 -1670,1030 -2940,1030 -1270,0 -2780,-310 -4520,-1030 -1830,-710 -3810,-1350 -6030,-2060 -2310,-720 -4770,-1350 -7540,-1990 -2860,-630 -5880,-950 -9130,-950 -3890,0 -7620,790 -11350,2380 -3730,1510 -7700,4050 -11750,7620 -4130,3570 -8410,8340 -12940,14210 -4440,5870 -9440,13100 -14840,21590l0 137720c0,1190 -320,2300 -950,3090 -640,870 -1670,1590 -3020,2220 -1430,640 -3330,1120 -5800,1430 -2540,320 -5710,480 -9600,480 -3650,0 -6750,-160 -9290,-480 -2460,-310 -4440,-790 -5870,-1430 -1510,-630 -2540,-1350 -3020,-2220 -550,-790 -870,-1900 -870,-3090l0 -209320c0,-1270 240,-2300 710,-3170 480,-800 1430,-1590 2780,-2300 1430,-720 3180,-1110 5400,-1350 2140,-240 5000,-400 8570,-400 3420,0 6270,160 8500,400 2220,240 3960,630 5230,1350 1200,710 2150,1500 2700,2300 480,870 800,1900 800,3170l0 30480c5710,-8410 11110,-15240 16110,-20480 5080,-5230 9840,-9440 14370,-12460 4440,-3010 8890,-5080 13330,-6270 4450,-1110 8890,-1740 13340,-1740 2060,0 4360,150 6900,390 2540,240 5240,640 8020,1270 2780,640 5320,1270 7540,2070 2300,790 3890,1580 4760,2300 960,790 1590,1510 1910,2220 320,720 550,1590 790,2700 240,1110 400,2700 480,4760 80,2070 80,4920 80,8500zm82150 195580c0,1190 -320,2300 -950,3090 -640,870 -1670,1590 -3020,2220 -1430,640 -3330,1120 -5800,1430 -2540,320 -5710,480 -9600,480 -3650,0 -6750,-160 -9290,-480 -2460,-310 -4440,-790 -5870,-1430 -1510,-630 -2540,-1350 -3020,-2220 -550,-790 -870,-1900 -870,-3090l0 -209320c0,-1110 320,-2060 870,-3010 480,-960 1510,-1750 3020,-2300 1430,-640 3410,-1120 5870,-1430 2540,-320 5640,-480 9290,-480 3890,0 7060,160 9600,480 2470,310 4370,790 5800,1430 1350,550 2380,1340 3020,2300 630,950 950,1900 950,3010l0 209320zm4360 -280040c0,9050 -1660,15160 -5080,18420 -3410,3250 -9680,4840 -18810,4840 -9050,0 -15160,-1590 -18490,-4770 -3340,-3170 -5000,-9120 -5000,-18010 0,-8970 1660,-15080 5080,-18340 3410,-3250 9680,-4920 18810,-4920 9050,0 15160,1590 18490,4760 3340,3180 5000,9210 5000,18020zm224240 280270c0,1830 -640,3260 -1910,4130 -1190,950 -2930,1670 -5080,2140 -2220,480 -5390,720 -9520,720 -4050,0 -7300,-240 -9690,-720 -2380,-470 -4120,-1190 -5230,-2140 -1120,-870 -1590,-2300 -1590,-4130l0 -20950c-9210,9760 -19370,17380 -30640,22780 -11190,5400 -23100,8180 -35640,8180 -11030,0 -21030,-1430 -29920,-4370 -8890,-2860 -16510,-6990 -22780,-12380 -6280,-5480 -11200,-12150 -14690,-20010 -3410,-7930 -5160,-16900 -5160,-26980 0,-11830 2380,-21990 7150,-30720 4840,-8650 11740,-15880 20710,-21590 8970,-5800 20000,-10080 33020,-12940 13020,-2860 27700,-4290 43980,-4290l28810 0 0 -16270c0,-8090 -870,-15240 -2540,-21430 -1750,-6190 -4450,-11350 -8260,-15400 -3810,-4130 -8730,-7220 -14760,-9360 -6030,-2070 -13490,-3100 -22300,-3100 -9530,0 -17940,1110 -25480,3330 -7540,2310 -14130,4770 -19770,7470 -5710,2690 -10400,5150 -14210,7460 -3810,2220 -6580,3330 -8490,3330 -1190,0 -2300,-320 -3250,-870 -960,-640 -1750,-1590 -2460,-2860 -640,-1190 -1190,-2780 -1510,-4760 -320,-1910 -480,-4050 -480,-6350 0,-3890 320,-6990 870,-9210 560,-2220 1830,-4370 3970,-6430 2070,-1980 5640,-4370 10800,-7060 5080,-2700 10950,-5160 17620,-7470 6670,-2220 13970,-4040 21910,-5550 7860,-1510 15870,-2220 23970,-2220 15000,0 27780,1740 38340,5160 10550,3410 19050,8410 25560,15000 6500,6590 11270,14760 14200,24520 2940,9770 4450,21120 4450,34140l0 141200zm-38180 -95560l-32780 0c-10560,0 -19690,870 -27470,2620 -7700,1820 -14130,4440 -19280,7930 -5080,3500 -8890,7700 -11280,12540 -2380,4930 -3570,10480 -3570,16830 0,10880 3420,19530 10320,25960 6910,6430 16590,9680 28970,9680 10080,0 19370,-2540 28020,-7700 8570,-5080 17620,-12940 27070,-23490l0 -44370zm147000 95330c0,1190 -320,2300 -950,3090 -640,870 -1670,1590 -3020,2220 -1430,640 -3330,1120 -5800,1430 -2540,320 -5710,480 -9600,480 -3650,0 -6750,-160 -9290,-480 -2460,-310 -4440,-790 -5870,-1430 -1510,-630 -2540,-1350 -3020,-2220 -550,-790 -870,-1900 -870,-3090l0 -310680c0,-1270 320,-2380 870,-3250 480,-960 1510,-1750 3020,-2380 1430,-560 3410,-1040 5870,-1350 2540,-320 5640,-480 9290,-480 3890,0 7060,160 9600,480 2470,310 4370,790 5800,1350 1350,630 2380,1420 3020,2380 630,870 950,1980 950,3250l0 310680zm202330 -57000c0,10720 -1990,20240 -5960,28580 -3970,8410 -9600,15480 -16900,21190 -7230,5720 -15960,10080 -26040,13020 -10080,2940 -21110,4450 -33260,4450 -7380,0 -14520,-640 -21270,-1750 -6750,-1190 -12780,-2700 -18100,-4450 -5400,-1740 -9920,-3650 -13650,-5550 -3650,-1990 -6430,-3730 -8100,-5240 -1740,-1590 -2930,-3730 -3730,-6510 -790,-2780 -1190,-6590 -1190,-11430 0,-2940 160,-5400 480,-7460 320,-1990 710,-3570 1190,-4840 480,-1270 1110,-2150 1980,-2700 800,-560 1830,-800 2860,-800 1750,0 4290,1040 7620,3180 3330,2060 7380,4360 12300,6830 4850,2460 10640,4760 17310,6820 6670,2140 14360,3180 23020,3180 6510,0 12380,-720 17700,-2070 5240,-1430 9840,-3490 13730,-6190 3810,-2700 6830,-6190 8890,-10320 2140,-4200 3170,-9200 3170,-14920 0,-5870 -1500,-10870 -4520,-14840 -3020,-4050 -7060,-7620 -11990,-10720 -5000,-3090 -10550,-5870 -16740,-8250 -6200,-2380 -12620,-4920 -19210,-7540 -6590,-2700 -13020,-5640 -19290,-8970 -6270,-3340 -11910,-7390 -16830,-12230 -5000,-4840 -8970,-10550 -11980,-17220 -3020,-6670 -4530,-14610 -4530,-23970 0,-8180 1590,-16040 4760,-23580 3180,-7540 7940,-14130 14290,-19760 6350,-5640 14290,-10160 23810,-13570 9530,-3420 20720,-5160 33420,-5160 5560,0 11110,470 16750,1420 5560,880 10560,2070 15080,3500 4520,1350 8330,2850 11510,4520 3170,1590 5560,3020 7220,4290 1590,1270 2700,2300 3260,3250 550,950 950,1990 1190,3180 240,1110 390,2540 630,4280 240,1670 400,3810 400,6270 0,2620 -160,4930 -400,6830 -240,1980 -550,3570 -1110,4760 -550,1270 -1190,2150 -1980,2700 -800,560 -1670,800 -2540,800 -1430,0 -3420,-800 -6110,-2540 -2620,-1670 -6040,-3500 -10160,-5480 -4210,-1910 -9130,-3730 -14850,-5480 -5630,-1670 -12060,-2540 -19370,-2540 -6500,0 -12220,720 -17220,2220 -4920,1510 -9050,3580 -12220,6270 -3180,2700 -5560,5960 -7230,9690 -1580,3730 -2380,7700 -2380,12060 0,6040 1510,11120 4610,15240 3090,4130 7140,7700 12140,10800 4920,3090 10560,5870 16910,8410 6430,2460 12860,5000 19440,7620 6590,2700 13100,5640 19530,8890 6430,3260 12140,7150 17150,11830 4920,4680 8890,10240 11900,16750 3020,6510 4610,14280 4610,23250z"/>
    <path class="fil4" d="M12095720 8569550c0,1830 -640,3260 -1910,4130 -1190,950 -2930,1670 -5080,2140 -2220,480 -5390,720 -9520,720 -4050,0 -7300,-240 -9690,-720 -2380,-470 -4120,-1190 -5230,-2140 -1120,-870 -1590,-2300 -1590,-4130l0 -20950c-9210,9760 -19370,17380 -30640,22780 -11190,5400 -23100,8180 -35640,8180 -11030,0 -21030,-1430 -29920,-4370 -8890,-2860 -16510,-6990 -22780,-12380 -6280,-5480 -11200,-12150 -14690,-20010 -3410,-7930 -5160,-16900 -5160,-26980 0,-11830 2380,-21990 7150,-30720 4840,-8650 11740,-15880 20710,-21590 8970,-5800 20000,-10080 33020,-12940 13020,-2860 27700,-4290 43980,-4290l28810 0 0 -16270c0,-8090 -870,-15240 -2540,-21430 -1750,-6190 -4450,-11350 -8260,-15400 -3810,-4130 -8730,-7220 -14760,-9360 -6030,-2070 -13490,-3100 -22300,-3100 -9530,0 -17940,1110 -25480,3330 -7540,2310 -14130,4770 -19770,7470 -5710,2690 -10400,5150 -14210,7460 -3810,2220 -6580,3330 -8490,3330 -1190,0 -2300,-320 -3250,-870 -960,-640 -1750,-1590 -2460,-2860 -640,-1190 -1190,-2780 -1510,-4760 -320,-1910 -480,-4050 -480,-6350 0,-3890 320,-6990 870,-9210 560,-2220 1830,-4370 3970,-6430 2070,-1980 5640,-4370 10800,-7060 5080,-2700 10950,-5160 17620,-7470 6670,-2220 13970,-4040 21910,-5550 7860,-1510 15870,-2220 23970,-2220 15000,0 27780,1740 38340,5160 10550,3410 19050,8410 25560,15000 6500,6590 11270,14760 14200,24520 2940,9770 4450,21120 4450,34140l0 141200zm-38180 -95560l-32780 0c-10560,0 -19690,870 -27470,2620 -7700,1820 -14130,4440 -19280,7930 -5080,3500 -8890,7700 -11280,12540 -2380,4930 -3570,10480 -3570,16830 0,10880 3420,19530 10320,25960 6910,6430 16590,9680 28970,9680 10080,0 19370,-2540 28020,-7700 8570,-5080 17620,-12940 27070,-23490l0 -44370zm288840 95330c0,1190 -320,2300 -950,3090 -640,870 -1590,1590 -3020,2220 -1430,640 -3330,1120 -5790,1430 -2540,320 -5640,480 -9290,480 -3890,0 -7060,-160 -9600,-480 -2460,-310 -4370,-790 -5800,-1430 -1350,-630 -2380,-1350 -3010,-2220 -640,-790 -960,-1900 -960,-3090l0 -122560c0,-11990 -870,-21590 -2770,-28810 -1830,-7310 -4530,-13580 -8100,-18890 -3570,-5240 -8180,-9290 -13890,-12070 -5640,-2780 -12150,-4210 -19610,-4210 -9600,0 -19210,3420 -28810,10240 -9680,6830 -19760,16830 -30240,30010l0 146290c0,1190 -320,2300 -950,3090 -640,870 -1670,1590 -3020,2220 -1430,640 -3330,1120 -5800,1430 -2540,320 -5710,480 -9600,480 -3650,0 -6750,-160 -9290,-480 -2460,-310 -4440,-790 -5870,-1430 -1510,-630 -2540,-1350 -3020,-2220 -550,-790 -870,-1900 -870,-3090l0 -209320c0,-1270 240,-2300 710,-3170 480,-800 1430,-1590 2780,-2300 1430,-720 3180,-1110 5400,-1350 2140,-240 5000,-400 8570,-400 3420,0 6270,160 8500,400 2220,240 3960,630 5230,1350 1200,710 2150,1500 2700,2300 480,870 800,1900 800,3170l0 27710c11740,-13180 23490,-22860 35240,-28980 11670,-6110 23490,-9200 35400,-9200 13970,0 25720,2380 35240,7140 9530,4680 17310,11030 23180,18890 5870,7940 10080,17230 12620,27780 2620,10640 3890,23420 3890,38260l0 127720zm249240 0c0,1190 -240,2300 -800,3250 -550,870 -1500,1670 -2770,2220 -1350,480 -3100,960 -5240,1270 -2220,320 -4840,480 -7940,480 -3250,0 -5950,-160 -8100,-480 -2220,-310 -3960,-790 -5390,-1270 -1350,-550 -2380,-1350 -3020,-2220 -630,-950 -950,-2060 -950,-3250l0 -27710c-10960,11990 -22390,21280 -34290,27940 -11830,6670 -24850,10010 -38900,10010 -15390,0 -28490,-3020 -39370,-8970 -10790,-5960 -19600,-14050 -26350,-24210 -6750,-10160 -11670,-22070 -14760,-35800 -3100,-13730 -4690,-28180 -4690,-43340 0,-18020 1990,-34290 5800,-48740 3890,-14520 9680,-26910 17220,-37070 7620,-10230 17070,-18090 28260,-23650 11270,-5480 24210,-8250 38970,-8250 12230,0 23420,2690 33580,8010 10160,5400 20240,13260 30160,23660l0 -121690c0,-1030 240,-2060 800,-3090 550,-1030 1580,-1830 3170,-2300 1510,-560 3490,-1030 5870,-1430 2390,-400 5480,-560 9210,-560 3890,0 7070,160 9530,560 2460,400 4440,870 5790,1430 1430,470 2460,1270 3180,2300 710,1030 1030,2060 1030,3090l0 309810zm-38580 -147250c-10400,-12850 -20480,-22620 -30160,-29360 -9680,-6750 -19760,-10160 -30320,-10160 -9760,0 -18100,2380 -24850,6980 -6820,4680 -12380,10800 -16660,18420 -4290,7540 -7390,16190 -9290,25790 -1990,9610 -2940,19370 -2940,29290 0,10560 800,20880 2460,30960 1590,10000 4450,18970 8500,26830 4040,7860 9360,14130 16030,18810 6670,4760 15080,7140 25080,7140 5160,0 10080,-710 14840,-2140 4690,-1350 9530,-3730 14530,-6990 4920,-3250 10160,-7460 15560,-12620 5400,-5230 11190,-11580 17220,-19200l0 -83750zm474390 -870c0,24290 -2860,46280 -8650,65800 -5720,19530 -14290,36120 -25640,49850 -11430,13730 -25720,24290 -42940,31670 -17230,7300 -37310,11040 -60250,11040 -22620,0 -42150,-3420 -58660,-10170 -16580,-6740 -30160,-16510 -40950,-29360 -10800,-12860 -18810,-28900 -24050,-47950 -5320,-19050 -7940,-41030 -7940,-65800 0,-23730 2860,-45240 8570,-64610 5800,-19450 14370,-35880 25880,-49450 11430,-13570 25790,-24050 43020,-31430 17140,-7310 37230,-11040 60170,-11040 22220,0 41510,3340 57940,10010 16430,6660 30080,16430 41040,29210 10950,12770 19050,28570 24440,47460 5320,18810 8020,40400 8020,64770zm-42150 2780c0,-17070 -1510,-32940 -4520,-47550 -3020,-14680 -8020,-27380 -15080,-38180 -7070,-10790 -16510,-19200 -28260,-25240 -11830,-6030 -26350,-9050 -43740,-9050 -17380,0 -31910,3260 -43730,9770 -11750,6510 -21350,15160 -28660,26030 -7380,10880 -12700,23580 -15870,38020 -3180,14530 -4760,29770 -4760,45720 0,17620 1500,33980 4440,48820 2940,14920 7940,27700 14840,38500 6990,10790 16360,19130 28020,25080 11750,6030 26440,8970 44140,8970 17460,0 32220,-3260 44130,-9770 11980,-6500 21590,-15310 28890,-26350 7220,-11110 12460,-23970 15560,-38490 3090,-14610 4600,-30010 4600,-46280zm223290 -50240c0,3410 -80,6270 -240,8570 -160,2380 -480,4200 -870,5470 -480,1350 -1120,2310 -1750,3020 -710,720 -1670,1030 -2940,1030 -1270,0 -2780,-310 -4520,-1030 -1830,-710 -3810,-1350 -6030,-2060 -2310,-720 -4770,-1350 -7540,-1990 -2860,-630 -5880,-950 -9130,-950 -3890,0 -7620,790 -11350,2380 -3730,1510 -7700,4050 -11750,7620 -4130,3570 -8410,8340 -12940,14210 -4440,5870 -9440,13100 -14840,21590l0 137720c0,1190 -320,2300 -950,3090 -640,870 -1670,1590 -3020,2220 -1430,640 -3330,1120 -5800,1430 -2540,320 -5710,480 -9600,480 -3650,0 -6750,-160 -9290,-480 -2460,-310 -4440,-790 -5870,-1430 -1510,-630 -2540,-1350 -3020,-2220 -550,-790 -870,-1900 -870,-3090l0 -209320c0,-1270 240,-2300 710,-3170 480,-800 1430,-1590 2780,-2300 1430,-720 3180,-1110 5400,-1350 2140,-240 5000,-400 8570,-400 3420,0 6270,160 8500,400 2220,240 3960,630 5230,1350 1200,710 2150,1500 2700,2300 480,870 800,1900 800,3170l0 30480c5710,-8410 11110,-15240 16110,-20480 5080,-5230 9840,-9440 14370,-12460 4440,-3010 8890,-5080 13330,-6270 4450,-1110 8890,-1740 13340,-1740 2060,0 4360,150 6900,390 2540,240 5240,640 8020,1270 2780,640 5320,1270 7540,2070 2300,790 3890,1580 4760,2300 960,790 1590,1510 1910,2220 320,720 550,1590 790,2700 240,1110 400,2700 480,4760 80,2070 80,4920 80,8500zm212080 -4210c0,5480 -710,9360 -2140,11750 -1510,2380 -3410,3650 -5710,3650l-30010 0c5400,5550 9210,11670 11350,18410 2220,6750 3260,13810 3260,21120 0,12060 -1910,22780 -5800,32060 -3890,9290 -9360,17150 -16590,23580 -7220,6430 -15790,11350 -25710,14760 -9930,3410 -20960,5160 -33020,5160 -8500,0 -16670,-1110 -24290,-3410 -7700,-2220 -13660,-5080 -17780,-8500 -2780,2780 -5080,5960 -6910,9530 -1750,3570 -2620,7700 -2620,12380 0,5400 2460,9920 7540,13500 5000,3570 11750,5470 20080,5790l54690 2300c10400,320 19930,1750 28580,4290 8650,2620 16190,6190 22540,10950 6350,4760 11350,10560 14920,17460 3580,6910 5320,14930 5320,24060 0,9600 -1980,18730 -6030,27460 -4050,8650 -10240,16270 -18500,22860 -8330,6590 -18890,11830 -31750,15640 -12850,3730 -28010,5630 -45560,5630 -16900,0 -31270,-1430 -43180,-4280 -11820,-2860 -21590,-6750 -29130,-11750 -7620,-4920 -13090,-10880 -16510,-17780 -3410,-6910 -5160,-14370 -5160,-22460 0,-5080 640,-10090 1910,-14850 1190,-4840 3090,-9360 5630,-13730 2620,-4370 5800,-8490 9610,-12460 3730,-3970 8170,-7860 13100,-11750 -7620,-3890 -13180,-8730 -16830,-14600 -3650,-5880 -5480,-12310 -5480,-19130 0,-9450 1910,-17860 5800,-25320 3880,-7470 8730,-14130 14440,-20010 -4840,-5710 -8650,-12220 -11430,-19360 -2780,-7230 -4210,-15960 -4210,-26200 0,-11900 2070,-22620 6120,-32070 3970,-9440 9600,-17460 16740,-23970 7070,-6510 15640,-11510 25640,-15000 10000,-3490 20960,-5240 32710,-5240 6350,0 12300,320 17780,1030 5470,720 10630,1670 15470,2940l63270 0c2610,0 4600,1270 5870,3810 1350,2540 1980,6510 1980,11750zm-59920 55080c0,-14200 -3970,-25320 -11750,-33330 -7860,-8020 -18970,-11990 -33420,-11990 -7460,0 -13890,1270 -19370,3730 -5550,2460 -10080,5880 -13730,10240 -3650,4370 -6350,9370 -8170,15000 -1750,5640 -2700,11590 -2700,17780 0,13810 3970,24690 11740,32550 7860,7930 18820,11900 32950,11900 7620,0 14200,-1190 19760,-3650 5560,-2380 10160,-5710 13810,-10000 3650,-4210 6350,-9130 8180,-14760 1740,-5560 2700,-11350 2700,-17470zm19280 165820c0,-8970 -3730,-15880 -11030,-20800 -7380,-4840 -17380,-7460 -29920,-7780l-54220 -1820c-4920,3810 -8970,7540 -12140,11030 -3180,3490 -5720,6830 -7620,10000 -1830,3180 -3100,6270 -3810,9370 -720,3100 -1030,6270 -1030,9520 0,10090 5080,17780 15320,22940 10240,5160 24520,7780 42780,7780 11670,0 21350,-1110 29210,-3330 7860,-2300 14130,-5240 18970,-8970 4760,-3730 8250,-8020 10320,-12780 2060,-4840 3170,-9840 3170,-15160zm238850 -20880c0,1830 -640,3260 -1910,4130 -1190,950 -2930,1670 -5080,2140 -2220,480 -5390,720 -9520,720 -4050,0 -7300,-240 -9690,-720 -2380,-470 -4120,-1190 -5230,-2140 -1120,-870 -1590,-2300 -1590,-4130l0 -20950c-9210,9760 -19370,17380 -30640,22780 -11190,5400 -23100,8180 -35640,8180 -11030,0 -21030,-1430 -29920,-4370 -8890,-2860 -16510,-6990 -22780,-12380 -6280,-5480 -11200,-12150 -14690,-20010 -3410,-7930 -5160,-16900 -5160,-26980 0,-11830 2380,-21990 7150,-30720 4840,-8650 11740,-15880 20710,-21590 8970,-5800 20000,-10080 33020,-12940 13020,-2860 27700,-4290 43980,-4290l28810 0 0 -16270c0,-8090 -870,-15240 -2540,-21430 -1750,-6190 -4450,-11350 -8260,-15400 -3810,-4130 -8730,-7220 -14760,-9360 -6030,-2070 -13490,-3100 -22300,-3100 -9530,0 -17940,1110 -25480,3330 -7540,2310 -14130,4770 -19770,7470 -5710,2690 -10400,5150 -14210,7460 -3810,2220 -6580,3330 -8490,3330 -1190,0 -2300,-320 -3250,-870 -960,-640 -1750,-1590 -2460,-2860 -640,-1190 -1190,-2780 -1510,-4760 -320,-1910 -480,-4050 -480,-6350 0,-3890 320,-6990 870,-9210 560,-2220 1830,-4370 3970,-6430 2070,-1980 5640,-4370 10800,-7060 5080,-2700 10950,-5160 17620,-7470 6670,-2220 13970,-4040 21910,-5550 7860,-1510 15870,-2220 23970,-2220 15000,0 27780,1740 38340,5160 10550,3410 19050,8410 25560,15000 6500,6590 11270,14760 14200,24520 2940,9770 4450,21120 4450,34140l0 141200zm-38180 -95560l-32780 0c-10560,0 -19690,870 -27470,2620 -7700,1820 -14130,4440 -19280,7930 -5080,3500 -8890,7700 -11280,12540 -2380,4930 -3570,10480 -3570,16830 0,10880 3420,19530 10320,25960 6910,6430 16590,9680 28970,9680 10080,0 19370,-2540 28020,-7700 8570,-5080 17620,-12940 27070,-23490l0 -44370zm288840 95330c0,1190 -320,2300 -950,3090 -640,870 -1590,1590 -3020,2220 -1430,640 -3330,1120 -5790,1430 -2540,320 -5640,480 -9290,480 -3890,0 -7060,-160 -9600,-480 -2460,-310 -4370,-790 -5800,-1430 -1350,-630 -2380,-1350 -3010,-2220 -640,-790 -960,-1900 -960,-3090l0 -122560c0,-11990 -870,-21590 -2770,-28810 -1830,-7310 -4530,-13580 -8100,-18890 -3570,-5240 -8180,-9290 -13890,-12070 -5640,-2780 -12150,-4210 -19610,-4210 -9600,0 -19210,3420 -28810,10240 -9680,6830 -19760,16830 -30240,30010l0 146290c0,1190 -320,2300 -950,3090 -640,870 -1670,1590 -3020,2220 -1430,640 -3330,1120 -5800,1430 -2540,320 -5710,480 -9600,480 -3650,0 -6750,-160 -9290,-480 -2460,-310 -4440,-790 -5870,-1430 -1510,-630 -2540,-1350 -3020,-2220 -550,-790 -870,-1900 -870,-3090l0 -209320c0,-1270 240,-2300 710,-3170 480,-800 1430,-1590 2780,-2300 1430,-720 3180,-1110 5400,-1350 2140,-240 5000,-400 8570,-400 3420,0 6270,160 8500,400 2220,240 3960,630 5230,1350 1200,710 2150,1500 2700,2300 480,870 800,1900 800,3170l0 27710c11740,-13180 23490,-22860 35240,-28980 11670,-6110 23490,-9200 35400,-9200 13970,0 25720,2380 35240,7140 9530,4680 17310,11030 23180,18890 5870,7940 10080,17230 12620,27780 2620,10640 3890,23420 3890,38260l0 127720zm108350 0c0,1190 -320,2300 -950,3090 -640,870 -1670,1590 -3020,2220 -1430,640 -3330,1120 -5800,1430 -2540,320 -5710,480 -9600,480 -3650,0 -6750,-160 -9290,-480 -2460,-310 -4440,-790 -5870,-1430 -1510,-630 -2540,-1350 -3020,-2220 -550,-790 -870,-1900 -870,-3090l0 -209320c0,-1110 320,-2060 870,-3010 480,-960 1510,-1750 3020,-2300 1430,-640 3410,-1120 5870,-1430 2540,-320 5640,-480 9290,-480 3890,0 7060,160 9600,480 2470,310 4370,790 5800,1430 1350,550 2380,1340 3020,2300 630,950 950,1900 950,3010l0 209320zm4360 -280040c0,9050 -1660,15160 -5080,18420 -3410,3250 -9680,4840 -18810,4840 -9050,0 -15160,-1590 -18490,-4770 -3340,-3170 -5000,-9120 -5000,-18010 0,-8970 1660,-15080 5080,-18340 3410,-3250 9680,-4920 18810,-4920 9050,0 15160,1590 18490,4760 3340,3180 5000,9210 5000,18020zm217020 248130c0,2700 -80,4920 -240,6900 -160,1910 -480,3570 -800,4840 -390,1350 -870,2540 -1430,3500 -550,1030 -1740,2540 -3730,4440 -1900,1910 -5230,4370 -9840,7220 -4680,2860 -9920,5400 -15710,7620 -5800,2310 -12150,4130 -18980,5480 -6820,1430 -13890,2150 -21190,2150 -15000,0 -28340,-2540 -39920,-7470 -11670,-5000 -21360,-12220 -29210,-21750 -7860,-9520 -13820,-21270 -17940,-35080 -4050,-13890 -6110,-29920 -6110,-48020 0,-20640 2460,-38340 7540,-53180 5000,-14770 11900,-26910 20710,-36360 8730,-9440 19050,-16510 30880,-21030 11910,-4600 24690,-6910 38500,-6910 6660,0 13170,640 19440,1910 6270,1190 12070,2860 17310,4840 5240,1990 10000,4370 14050,6990 4120,2620 7140,4840 8970,6740 1900,1830 3170,3340 3810,4450 710,1030 1350,2300 1740,3810 480,1510 800,3090 950,5000 160,1820 240,4210 240,6980 0,6040 -710,10240 -2060,12620 -1430,2460 -3100,3660 -5160,3660 -2300,0 -5000,-1270 -8020,-3810 -3010,-2620 -6820,-5400 -11510,-8500 -4600,-3090 -10240,-5950 -16820,-8490 -6590,-2620 -14370,-3890 -23420,-3890 -18410,0 -32540,7140 -42390,21270 -9840,14210 -14760,34770 -14760,61760 0,13490 1270,25320 3810,35480 2540,10160 6350,18650 11270,25480 5000,6820 11030,11900 18260,15240 7220,3330 15480,5000 24760,5000 8810,0 16590,-1430 23260,-4210 6670,-2780 12460,-5870 17300,-9210 4920,-3330 9050,-6350 12390,-9050 3330,-2700 5870,-4040 7770,-4040 1040,0 1990,310 2780,870 800,630 1430,1670 1990,3170 550,1510 870,3340 1110,5560 240,2300 400,4920 400,8020zm325310 -46680c0,14050 -2620,26590 -7780,37630 -5230,11030 -12380,20320 -21670,28020 -9200,7700 -20000,13490 -32540,17300 -12460,3890 -25880,5880 -40320,5880 -10080,0 -19450,-880 -28020,-2620 -8570,-1670 -16270,-3740 -23020,-6280 -6750,-2460 -12380,-5000 -16990,-7620 -4600,-2690 -7770,-4920 -9520,-6740 -1830,-1910 -3100,-4290 -3970,-7150 -870,-2850 -1270,-6660 -1270,-11510 0,-3410 160,-6190 480,-8490 310,-2220 790,-4050 1350,-5400 630,-1420 1420,-2380 2380,-2930 870,-560 1980,-800 3250,-800 2140,0 5240,1270 9130,3890 3970,2700 9050,5560 15240,8650 6270,3100 13730,6040 22460,8740 8730,2690 18890,4040 30320,4040 8740,0 16670,-1190 23900,-3490 7220,-2300 13410,-5630 18570,-9840 5240,-4290 9210,-9530 11990,-15720 2770,-6190 4200,-13250 4200,-21190 0,-8490 -1980,-15800 -5870,-21830 -3810,-6030 -8970,-11350 -15320,-15950 -6350,-4610 -13570,-8730 -21750,-12540 -8100,-3810 -16430,-7700 -25000,-11670 -8500,-3890 -16830,-8340 -24850,-13100 -8090,-4840 -15320,-10480 -21670,-16990 -6350,-6500 -11510,-14120 -15470,-22930 -3890,-8740 -5880,-19210 -5880,-31520 0,-12540 2300,-23730 6830,-33570 4600,-9840 10950,-18100 19050,-24770 8170,-6660 17860,-11740 29130,-15240 11190,-3490 23330,-5240 36350,-5240 6670,0 13420,640 20160,1750 6750,1190 13100,2700 19050,4680 5960,1910 11270,4130 15880,6510 4680,2380 7780,4370 9210,5800 1500,1500 2460,2620 2930,3490 480,870 880,1980 1110,3250 320,1350 560,2940 720,4770 160,1900 240,4280 240,7220 0,2780 -80,5240 -320,7460 -240,2140 -640,3970 -1030,5480 -480,1430 -1190,2540 -1990,3250 -870,640 -1820,1030 -2930,1030 -1670,0 -4370,-1110 -8020,-3250 -3650,-2220 -8100,-4600 -13340,-7380 -5310,-2700 -11510,-5160 -18730,-7380 -7220,-2310 -15320,-3420 -24290,-3420 -8410,0 -15710,1110 -21900,3420 -6200,2220 -11280,5230 -15320,8960 -4050,3660 -7070,8100 -9050,13260 -2070,5080 -3100,10480 -3100,16270 0,8340 1990,15560 5880,21590 3880,6030 8960,11430 15470,16040 6430,4680 13740,8970 21910,12780 8260,3880 16590,7770 25160,11740 8500,3970 16910,8340 25090,13020 8250,4760 15550,10320 21980,16750 6430,6430 11670,14050 15560,22780 3970,8810 5950,19130 5950,31110z"/>
    <path class="fil4" d="M14670890 8575110l-27860 76990c-950,2460 -3330,4370 -7070,5720 -3810,1270 -9600,1900 -17380,1900 -4050,0 -7300,-150 -9760,-550 -2460,-400 -4370,-1030 -5720,-1990 -1270,-950 -1980,-2140 -2140,-3730 -160,-1500 240,-3410 1110,-5550l28890 -72790c-1420,-640 -2770,-1670 -3960,-3020 -1270,-1430 -2150,-2850 -2620,-4440l-74620 -199950c-1270,-3250 -1820,-5870 -1820,-7700 0,-1820 550,-3330 1820,-4440 1270,-1030 3260,-1830 6040,-2140 2770,-400 6500,-640 11190,-640 4600,0 8250,160 10950,400 2620,240 4680,630 6270,1270 1510,630 2620,1510 3340,2620 710,1190 1420,2770 2220,4760l59770 167960 710 0 57630 -168830c950,-2940 2060,-4850 3410,-5720 1270,-870 3260,-1510 5880,-1820 2690,-400 6420,-640 11430,-640 4360,0 7930,240 10710,640 2780,310 4840,1110 6110,2140 1350,1110 1990,2620 1990,4440 0,1830 -480,4210 -1350,6990l-75170 208120zm300510 -5790c0,1190 -320,2300 -950,3090 -640,870 -1590,1590 -3020,2220 -1430,640 -3330,1120 -5790,1430 -2540,320 -5640,480 -9290,480 -3890,0 -7060,-160 -9600,-480 -2460,-310 -4370,-790 -5800,-1430 -1350,-630 -2380,-1350 -3010,-2220 -640,-790 -960,-1900 -960,-3090l0 -122560c0,-11990 -870,-21590 -2770,-28810 -1830,-7310 -4530,-13580 -8100,-18890 -3570,-5240 -8180,-9290 -13890,-12070 -5640,-2780 -12150,-4210 -19610,-4210 -9600,0 -19210,3420 -28810,10240 -9680,6830 -19760,16830 -30240,30010l0 146290c0,1190 -320,2300 -950,3090 -640,870 -1670,1590 -3020,2220 -1430,640 -3330,1120 -5800,1430 -2540,320 -5710,480 -9600,480 -3650,0 -6750,-160 -9290,-480 -2460,-310 -4440,-790 -5870,-1430 -1510,-630 -2540,-1350 -3020,-2220 -550,-790 -870,-1900 -870,-3090l0 -209320c0,-1270 240,-2300 710,-3170 480,-800 1430,-1590 2780,-2300 1430,-720 3180,-1110 5400,-1350 2140,-240 5000,-400 8570,-400 3420,0 6270,160 8500,400 2220,240 3960,630 5230,1350 1200,710 2150,1500 2700,2300 480,870 800,1900 800,3170l0 27710c11740,-13180 23490,-22860 35240,-28980 11670,-6110 23490,-9200 35400,-9200 13970,0 25720,2380 35240,7140 9530,4680 17310,11030 23180,18890 5870,7940 10080,17230 12620,27780 2620,10640 3890,23420 3890,38260l0 127720zm174300 -15400c0,4520 -310,8090 -870,10710 -630,2620 -1590,4610 -2860,5800 -1190,1270 -3090,2460 -5550,3490 -2460,1110 -5320,1980 -8500,2700 -3170,710 -6510,1270 -10080,1740 -3570,480 -7140,720 -10710,720 -10880,0 -20160,-1430 -27940,-4290 -7700,-2930 -14050,-7220 -19050,-13020 -4920,-5870 -8580,-13170 -10800,-22140 -2220,-8890 -3330,-19370 -3330,-31510l0 -122320 -29370 0c-2300,0 -4130,-1190 -5560,-3730 -1430,-2460 -2060,-6510 -2060,-12070 0,-2930 160,-5390 560,-7460 390,-1980 870,-3650 1500,-5000 640,-1270 1430,-2220 2460,-2780 1040,-550 2150,-790 3340,-790l29130 0 0 -49770c0,-1110 240,-2060 790,-3010 560,-960 1510,-1750 3020,-2460 1430,-720 3410,-1190 5950,-1510 2460,-320 5560,-480 9290,-480 3890,0 7060,160 9520,480 2460,320 4450,790 5800,1510 1430,710 2380,1500 3010,2460 640,950 960,1900 960,3010l0 49770 53730 0c1190,0 2310,240 3260,790 870,560 1740,1510 2380,2780 710,1350 1270,3020 1510,5000 310,2070 470,4530 470,7460 0,5560 -630,9610 -2060,12070 -1430,2540 -3250,3730 -5560,3730l-53730 0 0 116760c0,14450 2140,25320 6350,32700 4280,7310 11900,11040 22940,11040 3570,0 6740,-400 9520,-1040 2780,-710 5320,-1500 7460,-2220 2150,-790 4050,-1510 5560,-2220 1590,-710 2940,-1030 4210,-1030 790,0 1500,160 2220,550 710,400 1190,1110 1590,2230 390,1110 790,2540 1030,4360 310,1910 470,4210 470,6990zm230980 15400c0,1190 -320,2300 -950,3090 -640,870 -1590,1590 -3020,2220 -1430,640 -3330,1120 -5790,1430 -2540,320 -5640,480 -9290,480 -3890,0 -7060,-160 -9600,-480 -2460,-310 -4370,-790 -5800,-1430 -1350,-630 -2380,-1350 -3010,-2220 -640,-790 -960,-1900 -960,-3090l0 -122560c0,-11990 -870,-21590 -2770,-28810 -1830,-7310 -4530,-13580 -8100,-18890 -3570,-5240 -8180,-9290 -13890,-12070 -5640,-2780 -12150,-4210 -19610,-4210 -9600,0 -19210,3420 -28810,10240 -9680,6830 -19760,16830 -30240,30010l0 146290c0,1190 -320,2300 -950,3090 -640,870 -1670,1590 -3020,2220 -1430,640 -3330,1120 -5800,1430 -2540,320 -5710,480 -9600,480 -3650,0 -6750,-160 -9290,-480 -2460,-310 -4440,-790 -5870,-1430 -1510,-630 -2540,-1350 -3020,-2220 -550,-790 -870,-1900 -870,-3090l0 -310680c0,-1270 320,-2380 870,-3250 480,-960 1510,-1750 3020,-2380 1430,-560 3410,-1040 5870,-1350 2540,-320 5640,-480 9290,-480 3890,0 7060,160 9600,480 2470,310 4370,790 5800,1350 1350,630 2380,1420 3020,2380 630,870 950,1980 950,3250l0 125330c10950,-11660 22060,-20320 33260,-25950 11110,-5640 22380,-8490 33650,-8490 13970,0 25720,2380 35240,7140 9530,4680 17310,11030 23180,18890 5870,7940 10080,17230 12620,27780 2620,10640 3890,23500 3890,38500l0 127480zm248520 -113750c0,6030 -1500,10400 -4520,12940 -3020,2540 -6430,3810 -10320,3810l-137240 0c0,11670 1190,22070 3490,31430 2310,9290 6200,17230 11670,23890 5400,6670 12460,11830 21120,15400 8730,3570 19280,5320 31900,5320 9930,0 18740,-790 26520,-2460 7700,-1590 14440,-3410 20080,-5480 5630,-1980 10320,-3810 13970,-5390 3650,-1670 6350,-2470 8250,-2470 1030,0 2070,240 2860,800 870,550 1510,1350 1980,2460 480,1110 880,2620 1120,4520 150,1910 310,4290 310,7070 0,2060 -80,3810 -230,5240 -160,1500 -320,2770 -560,3970 -240,1190 -640,2220 -1190,3170 -560,870 -1270,1830 -2060,2620 -880,870 -3420,2300 -7620,4210 -4130,1900 -9610,3810 -16280,5710 -6660,1830 -14360,3490 -23090,5000 -8740,1430 -18100,2230 -28020,2230 -17230,0 -32310,-2470 -45250,-7230 -12940,-4840 -23810,-11980 -32700,-21430 -8810,-9450 -15480,-21270 -20000,-35560 -4450,-14290 -6750,-30880 -6750,-49770 0,-17940 2380,-34130 6990,-48500 4680,-14280 11350,-26510 20160,-36510 8730,-10000 19280,-17620 31750,-23020 12380,-5320 26270,-8010 41590,-8010 16430,0 30400,2620 41990,7930 11510,5240 21030,12390 28490,21280 7470,8890 12860,19360 16360,31350 3490,12060 5230,24840 5230,38500l0 6980zm-38570 -11350c470,-20160 -3970,-36040 -13420,-47470 -9360,-11510 -23250,-17220 -41670,-17220 -9520,0 -17780,1830 -24920,5400 -7150,3490 -13100,8250 -17860,14130 -4840,5870 -8570,12780 -11190,20550 -2620,7860 -4130,16040 -4450,24610l113510 0zm228360 68100c0,10720 -1990,20240 -5960,28580 -3970,8410 -9600,15480 -16900,21190 -7230,5720 -15960,10080 -26040,13020 -10080,2940 -21110,4450 -33260,4450 -7380,0 -14520,-640 -21270,-1750 -6750,-1190 -12780,-2700 -18100,-4450 -5400,-1740 -9920,-3650 -13650,-5550 -3650,-1990 -6430,-3730 -8100,-5240 -1740,-1590 -2930,-3730 -3730,-6510 -790,-2780 -1190,-6590 -1190,-11430 0,-2940 160,-5400 480,-7460 320,-1990 710,-3570 1190,-4840 480,-1270 1110,-2150 1980,-2700 800,-560 1830,-800 2860,-800 1750,0 4290,1040 7620,3180 3330,2060 7380,4360 12300,6830 4850,2460 10640,4760 17310,6820 6670,2140 14360,3180 23020,3180 6510,0 12380,-720 17700,-2070 5240,-1430 9840,-3490 13730,-6190 3810,-2700 6830,-6190 8890,-10320 2140,-4200 3170,-9200 3170,-14920 0,-5870 -1500,-10870 -4520,-14840 -3020,-4050 -7060,-7620 -11990,-10720 -5000,-3090 -10550,-5870 -16740,-8250 -6200,-2380 -12620,-4920 -19210,-7540 -6590,-2700 -13020,-5640 -19290,-8970 -6270,-3340 -11910,-7390 -16830,-12230 -5000,-4840 -8970,-10550 -11980,-17220 -3020,-6670 -4530,-14610 -4530,-23970 0,-8180 1590,-16040 4760,-23580 3180,-7540 7940,-14130 14290,-19760 6350,-5640 14290,-10160 23810,-13570 9530,-3420 20720,-5160 33420,-5160 5560,0 11110,470 16750,1420 5560,880 10560,2070 15080,3500 4520,1350 8330,2850 11510,4520 3170,1590 5560,3020 7220,4290 1590,1270 2700,2300 3260,3250 550,950 950,1990 1190,3180 240,1110 390,2540 630,4280 240,1670 400,3810 400,6270 0,2620 -160,4930 -400,6830 -240,1980 -550,3570 -1110,4760 -550,1270 -1190,2150 -1980,2700 -800,560 -1670,800 -2540,800 -1430,0 -3420,-800 -6110,-2540 -2620,-1670 -6040,-3500 -10160,-5480 -4210,-1910 -9130,-3730 -14850,-5480 -5630,-1670 -12060,-2540 -19370,-2540 -6500,0 -12220,720 -17220,2220 -4920,1510 -9050,3580 -12220,6270 -3180,2700 -5560,5960 -7230,9690 -1580,3730 -2380,7700 -2380,12060 0,6040 1510,11120 4610,15240 3090,4130 7140,7700 12140,10800 4920,3090 10560,5870 16910,8410 6430,2460 12860,5000 19440,7620 6590,2700 13100,5640 19530,8890 6430,3260 12140,7150 17150,11830 4920,4680 8890,10240 11900,16750 3020,6510 4610,14280 4610,23250zm93260 57000c0,1190 -320,2300 -950,3090 -640,870 -1670,1590 -3020,2220 -1430,640 -3330,1120 -5800,1430 -2540,320 -5710,480 -9600,480 -3650,0 -6750,-160 -9290,-480 -2460,-310 -4440,-790 -5870,-1430 -1510,-630 -2540,-1350 -3020,-2220 -550,-790 -870,-1900 -870,-3090l0 -209320c0,-1110 320,-2060 870,-3010 480,-960 1510,-1750 3020,-2300 1430,-640 3410,-1120 5870,-1430 2540,-320 5640,-480 9290,-480 3890,0 7060,160 9600,480 2470,310 4370,790 5800,1430 1350,550 2380,1340 3020,2300 630,950 950,1900 950,3010l0 209320zm4360 -280040c0,9050 -1660,15160 -5080,18420 -3410,3250 -9680,4840 -18810,4840 -9050,0 -15160,-1590 -18490,-4770 -3340,-3170 -5000,-9120 -5000,-18010 0,-8970 1660,-15080 5080,-18340 3410,-3250 9680,-4920 18810,-4920 9050,0 15160,1590 18490,4760 3340,3180 5000,9210 5000,18020zm197970 223040c0,10720 -1990,20240 -5960,28580 -3970,8410 -9600,15480 -16900,21190 -7230,5720 -15960,10080 -26040,13020 -10080,2940 -21110,4450 -33260,4450 -7380,0 -14520,-640 -21270,-1750 -6750,-1190 -12780,-2700 -18100,-4450 -5400,-1740 -9920,-3650 -13650,-5550 -3650,-1990 -6430,-3730 -8100,-5240 -1740,-1590 -2930,-3730 -3730,-6510 -790,-2780 -1190,-6590 -1190,-11430 0,-2940 160,-5400 480,-7460 320,-1990 710,-3570 1190,-4840 480,-1270 1110,-2150 1980,-2700 800,-560 1830,-800 2860,-800 1750,0 4290,1040 7620,3180 3330,2060 7380,4360 12300,6830 4850,2460 10640,4760 17310,6820 6670,2140 14360,3180 23020,3180 6510,0 12380,-720 17700,-2070 5240,-1430 9840,-3490 13730,-6190 3810,-2700 6830,-6190 8890,-10320 2140,-4200 3170,-9200 3170,-14920 0,-5870 -1500,-10870 -4520,-14840 -3020,-4050 -7060,-7620 -11990,-10720 -5000,-3090 -10550,-5870 -16740,-8250 -6200,-2380 -12620,-4920 -19210,-7540 -6590,-2700 -13020,-5640 -19290,-8970 -6270,-3340 -11910,-7390 -16830,-12230 -5000,-4840 -8970,-10550 -11980,-17220 -3020,-6670 -4530,-14610 -4530,-23970 0,-8180 1590,-16040 4760,-23580 3180,-7540 7940,-14130 14290,-19760 6350,-5640 14290,-10160 23810,-13570 9530,-3420 20720,-5160 33420,-5160 5560,0 11110,470 16750,1420 5560,880 10560,2070 15080,3500 4520,1350 8330,2850 11510,4520 3170,1590 5560,3020 7220,4290 1590,1270 2700,2300 3260,3250 550,950 950,1990 1190,3180 240,1110 390,2540 630,4280 240,1670 400,3810 400,6270 0,2620 -160,4930 -400,6830 -240,1980 -550,3570 -1110,4760 -550,1270 -1190,2150 -1980,2700 -800,560 -1670,800 -2540,800 -1430,0 -3420,-800 -6110,-2540 -2620,-1670 -6040,-3500 -10160,-5480 -4210,-1910 -9130,-3730 -14850,-5480 -5630,-1670 -12060,-2540 -19370,-2540 -6500,0 -12220,720 -17220,2220 -4920,1510 -9050,3580 -12220,6270 -3180,2700 -5560,5960 -7230,9690 -1580,3730 -2380,7700 -2380,12060 0,6040 1510,11120 4610,15240 3090,4130 7140,7700 12140,10800 4920,3090 10560,5870 16910,8410 6430,2460 12860,5000 19440,7620 6590,2700 13100,5640 19530,8890 6430,3260 12140,7150 17150,11830 4920,4680 8890,10240 11900,16750 3020,6510 4610,14280 4610,23250zm-9642120 428550c0,1110 -150,2380 -470,3970 -320,1580 -870,3490 -1670,5790l-61590 198830c-480,1750 -1190,3100 -2230,4210 -1030,1110 -2380,1910 -4200,2540 -1750,640 -4210,1030 -7310,1270 -3090,240 -6980,400 -11580,400 -4850,0 -8890,-160 -12150,-480 -3250,-310 -5790,-790 -7780,-1430 -1900,-630 -3330,-1430 -4280,-2540 -960,-1110 -1670,-2380 -2070,-3970l-43970 -151840 -480 -2060 -470 2060 -40720 151840c-400,1750 -1190,3100 -2150,4210 -1030,1110 -2540,1910 -4520,2540 -2060,640 -4680,1030 -7860,1270 -3170,240 -7060,400 -11750,400 -4760,0 -8650,-160 -11740,-480 -3020,-310 -5480,-790 -7390,-1430 -1980,-630 -3410,-1430 -4280,-2540 -950,-1110 -1670,-2380 -2140,-3970l-61120 -198830c-800,-2300 -1350,-4210 -1670,-5790 -320,-1590 -480,-2860 -480,-3970 0,-1350 320,-2540 960,-3340 630,-870 1660,-1580 3170,-2140 1430,-560 3410,-870 5870,-1030 2540,-160 5560,-240 9130,-240 4290,0 7780,160 10400,400 2700,240 4680,550 6110,1110 1350,550 2380,1350 3020,2380 550,950 1110,2140 1590,3570l50480 172560 480 2070 470 -2070 46280 -172560c240,-1430 790,-2620 1510,-3570 630,-1030 1740,-1830 3090,-2380 1430,-560 3330,-870 5720,-1110 2380,-240 5550,-400 9440,-400 3650,0 6750,160 9130,400 2460,240 4370,550 5710,1110 1430,550 2390,1270 3020,2220 640,950 1110,1990 1430,3260l50010 173030 470 2070 160 -2070 49770 -172560c320,-1430 870,-2620 1510,-3570 710,-1030 1820,-1830 3250,-2380 1510,-560 3490,-870 6110,-1110 2540,-240 5800,-400 9850,-400 3730,0 6740,80 8970,240 2220,160 4040,550 5310,1190 1350,630 2310,1270 2780,2060 560,800 870,1910 870,3260zm691670 0c0,1110 -150,2380 -470,3970 -320,1580 -870,3490 -1670,5790l-61590 198830c-480,1750 -1190,3100 -2230,4210 -1030,1110 -2380,1910 -4200,2540 -1750,640 -4210,1030 -7310,1270 -3090,240 -6980,400 -11580,400 -4850,0 -8890,-160 -12150,-480 -3250,-310 -5790,-790 -7780,-1430 -1900,-630 -3330,-1430 -4280,-2540 -960,-1110 -1670,-2380 -2070,-3970l-43970 -151840 -480 -2060 -470 2060 -40720 151840c-400,1750 -1190,3100 -2150,4210 -1030,1110 -2540,1910 -4520,2540 -2060,640 -4680,1030 -7860,1270 -3170,240 -7060,400 -11750,400 -4760,0 -8650,-160 -11740,-480 -3020,-310 -5480,-790 -7390,-1430 -1980,-630 -3410,-1430 -4280,-2540 -950,-1110 -1670,-2380 -2140,-3970l-61120 -198830c-800,-2300 -1350,-4210 -1670,-5790 -320,-1590 -480,-2860 -480,-3970 0,-1350 320,-2540 960,-3340 630,-870 1660,-1580 3170,-2140 1430,-560 3410,-870 5870,-1030 2540,-160 5560,-240 9130,-240 4290,0 7780,160 10400,400 2700,240 4680,550 6110,1110 1350,550 2380,1350 3020,2380 550,950 1110,2140 1590,3570l50480 172560 480 2070 470 -2070 46280 -172560c240,-1430 790,-2620 1510,-3570 630,-1030 1740,-1830 3090,-2380 1430,-560 3330,-870 5720,-1110 2380,-240 5550,-400 9440,-400 3650,0 6750,160 9130,400 2460,240 4370,550 5710,1110 1430,550 2390,1270 3020,2220 640,950 1110,1990 1430,3260l50010 173030 470 2070 160 -2070 49770 -172560c320,-1430 870,-2620 1510,-3570 710,-1030 1820,-1830 3250,-2380 1510,-560 3490,-870 6110,-1110 2540,-240 5800,-400 9850,-400 3730,0 6740,80 8970,240 2220,160 4040,550 5310,1190 1350,630 2310,1270 2780,2060 560,800 870,1910 870,3260zm691670 0c0,1110 -150,2380 -470,3970 -320,1580 -870,3490 -1670,5790l-61590 198830c-480,1750 -1190,3100 -2230,4210 -1030,1110 -2380,1910 -4200,2540 -1750,640 -4210,1030 -7310,1270 -3090,240 -6980,400 -11580,400 -4850,0 -8890,-160 -12150,-480 -3250,-310 -5790,-790 -7780,-1430 -1900,-630 -3330,-1430 -4280,-2540 -960,-1110 -1670,-2380 -2070,-3970l-43970 -151840 -480 -2060 -470 2060 -40720 151840c-400,1750 -1190,3100 -2150,4210 -1030,1110 -2540,1910 -4520,2540 -2060,640 -4680,1030 -7860,1270 -3170,240 -7060,400 -11750,400 -4760,0 -8650,-160 -11740,-480 -3020,-310 -5480,-790 -7390,-1430 -1980,-630 -3410,-1430 -4280,-2540 -950,-1110 -1670,-2380 -2140,-3970l-61120 -198830c-800,-2300 -1350,-4210 -1670,-5790 -320,-1590 -480,-2860 -480,-3970 0,-1350 320,-2540 960,-3340 630,-870 1660,-1580 3170,-2140 1430,-560 3410,-870 5870,-1030 2540,-160 5560,-240 9130,-240 4290,0 7780,160 10400,400 2700,240 4680,550 6110,1110 1350,550 2380,1350 3020,2380 550,950 1110,2140 1590,3570l50480 172560 480 2070 470 -2070 46280 -172560c240,-1430 790,-2620 1510,-3570 630,-1030 1740,-1830 3090,-2380 1430,-560 3330,-870 5720,-1110 2380,-240 5550,-400 9440,-400 3650,0 6750,160 9130,400 2460,240 4370,550 5710,1110 1430,550 2390,1270 3020,2220 640,950 1110,1990 1430,3260l50010 173030 470 2070 160 -2070 49770 -172560c320,-1430 870,-2620 1510,-3570 710,-1030 1820,-1830 3250,-2380 1510,-560 3490,-870 6110,-1110 2540,-240 5800,-400 9850,-400 3730,0 6740,80 8970,240 2220,160 4040,550 5310,1190 1350,630 2310,1270 2780,2060 560,800 870,1910 870,3260zm416080 190260c0,10950 -1830,18330 -5480,21990 -3570,3570 -10240,5390 -19840,5390 -9290,0 -15720,-1740 -19290,-5310 -3570,-3580 -5400,-10720 -5400,-21440 0,-10950 1830,-18330 5480,-21900 3650,-3650 10320,-5480 19920,-5480 9290,0 15720,1750 19290,5320 3570,3570 5320,10710 5320,21430z"/>
    <path class="fil4" d="M8867940 8950870c0,5480 -710,9360 -2140,11750 -1510,2380 -3410,3650 -5710,3650l-30010 0c5400,5550 9210,11670 11350,18410 2220,6750 3260,13810 3260,21120 0,12060 -1910,22780 -5800,32060 -3890,9290 -9360,17150 -16590,23580 -7220,6430 -15790,11350 -25710,14760 -9930,3410 -20960,5160 -33020,5160 -8500,0 -16670,-1110 -24290,-3410 -7700,-2220 -13660,-5080 -17780,-8500 -2780,2780 -5080,5960 -6910,9530 -1750,3570 -2620,7700 -2620,12380 0,5400 2460,9920 7540,13500 5000,3570 11750,5470 20080,5790l54690 2300c10400,320 19930,1750 28580,4290 8650,2620 16190,6190 22540,10950 6350,4760 11350,10560 14920,17460 3580,6910 5320,14930 5320,24060 0,9600 -1980,18730 -6030,27460 -4050,8650 -10240,16270 -18500,22860 -8330,6590 -18890,11830 -31750,15640 -12850,3730 -28010,5630 -45560,5630 -16900,0 -31270,-1430 -43180,-4280 -11820,-2860 -21590,-6750 -29130,-11750 -7620,-4920 -13090,-10880 -16510,-17780 -3410,-6910 -5160,-14370 -5160,-22460 0,-5080 640,-10090 1910,-14850 1190,-4840 3090,-9360 5630,-13730 2620,-4370 5800,-8490 9610,-12460 3730,-3970 8170,-7860 13100,-11750 -7620,-3890 -13180,-8730 -16830,-14600 -3650,-5880 -5480,-12310 -5480,-19130 0,-9450 1910,-17860 5800,-25320 3880,-7470 8730,-14130 14440,-20010 -4840,-5710 -8650,-12220 -11430,-19360 -2780,-7230 -4210,-15960 -4210,-26200 0,-11900 2070,-22620 6120,-32070 3970,-9440 9600,-17460 16740,-23970 7070,-6510 15640,-11510 25640,-15000 10000,-3490 20960,-5240 32710,-5240 6350,0 12300,320 17780,1030 5470,720 10630,1670 15470,2940l63270 0c2610,0 4600,1270 5870,3810 1350,2540 1980,6510 1980,11750zm-59920 55080c0,-14200 -3970,-25320 -11750,-33330 -7860,-8020 -18970,-11990 -33420,-11990 -7460,0 -13890,1270 -19370,3730 -5550,2460 -10080,5880 -13730,10240 -3650,4370 -6350,9370 -8170,15000 -1750,5640 -2700,11590 -2700,17780 0,13810 3970,24690 11740,32550 7860,7930 18820,11900 32950,11900 7620,0 14200,-1190 19760,-3650 5560,-2380 10160,-5710 13810,-10000 3650,-4210 6350,-9130 8180,-14760 1740,-5560 2700,-11350 2700,-17470zm19280 165820c0,-8970 -3730,-15880 -11030,-20800 -7380,-4840 -17380,-7460 -29920,-7780l-54220 -1820c-4920,3810 -8970,7540 -12140,11030 -3180,3490 -5720,6830 -7620,10000 -1830,3180 -3100,6270 -3810,9370 -720,3100 -1030,6270 -1030,9520 0,10090 5080,17780 15320,22940 10240,5160 24520,7780 42780,7780 11670,0 21350,-1110 29210,-3330 7860,-2300 14130,-5240 18970,-8970 4760,-3730 8250,-8020 10320,-12780 2060,-4840 3170,-9840 3170,-15160zm588250 -20880c0,1830 -640,3260 -1910,4130 -1190,950 -2930,1670 -5080,2140 -2220,480 -5390,720 -9520,720 -4050,0 -7300,-240 -9690,-720 -2380,-470 -4120,-1190 -5230,-2140 -1120,-870 -1590,-2300 -1590,-4130l0 -20950c-9210,9760 -19370,17380 -30640,22780 -11190,5400 -23100,8180 -35640,8180 -11030,0 -21030,-1430 -29920,-4370 -8890,-2860 -16510,-6990 -22780,-12380 -6280,-5480 -11200,-12150 -14690,-20010 -3410,-7930 -5160,-16900 -5160,-26980 0,-11830 2380,-21990 7150,-30720 4840,-8650 11740,-15880 20710,-21590 8970,-5800 20000,-10080 33020,-12940 13020,-2860 27700,-4290 43980,-4290l28810 0 0 -16270c0,-8090 -870,-15240 -2540,-21430 -1750,-6190 -4450,-11350 -8260,-15400 -3810,-4130 -8730,-7220 -14760,-9360 -6030,-2070 -13490,-3100 -22300,-3100 -9530,0 -17940,1110 -25480,3330 -7540,2310 -14130,4770 -19770,7470 -5710,2690 -10400,5150 -14210,7460 -3810,2220 -6580,3330 -8490,3330 -1190,0 -2300,-320 -3250,-870 -960,-640 -1750,-1590 -2460,-2860 -640,-1190 -1190,-2780 -1510,-4760 -320,-1910 -480,-4050 -480,-6350 0,-3890 320,-6990 870,-9210 560,-2220 1830,-4370 3970,-6430 2070,-1980 5640,-4370 10800,-7060 5080,-2700 10950,-5160 17620,-7470 6670,-2220 13970,-4040 21910,-5550 7860,-1510 15870,-2220 23970,-2220 15000,0 27780,1740 38340,5160 10550,3410 19050,8410 25560,15000 6500,6590 11270,14760 14200,24520 2940,9770 4450,21120 4450,34140l0 141200zm-38180 -95560l-32780 0c-10560,0 -19690,870 -27470,2620 -7700,1820 -14130,4440 -19280,7930 -5080,3500 -8890,7700 -11280,12540 -2380,4930 -3570,10480 -3570,16830 0,10880 3420,19530 10320,25960 6910,6430 16590,9680 28970,9680 10080,0 19370,-2540 28020,-7700 8570,-5080 17620,-12940 27070,-23490l0 -44370zm768420 95330c0,1190 -320,2300 -880,3090 -630,870 -1660,1590 -3010,2220 -1430,640 -3340,1120 -5880,1430 -2460,320 -5550,480 -9280,480 -3890,0 -7070,-160 -9530,-480 -2460,-310 -4440,-790 -5950,-1430 -1430,-630 -2460,-1350 -3100,-2220 -630,-790 -950,-1900 -950,-3090l0 -127240c0,-8810 -790,-16910 -2300,-24130 -1590,-7310 -4050,-13580 -7460,-18890 -3420,-5240 -7780,-9290 -13020,-12070 -5240,-2780 -11510,-4210 -18570,-4210 -8890,0 -17780,3420 -26670,10240 -8890,6830 -18740,16830 -29370,30010l0 146290c0,1190 -320,2300 -960,3090 -630,870 -1660,1590 -3170,2220 -1430,640 -3410,1120 -5870,1430 -2540,320 -5640,480 -9370,480 -3570,0 -6590,-160 -9130,-480 -2620,-310 -4600,-790 -6110,-1430 -1430,-630 -2460,-1350 -3020,-2220 -470,-790 -790,-1900 -790,-3090l0 -127240c0,-8810 -870,-16910 -2540,-24130 -1750,-7310 -4290,-13580 -7700,-18890 -3410,-5240 -7700,-9290 -12860,-12070 -5240,-2780 -11350,-4210 -18490,-4210 -8890,0 -17780,3420 -26750,10240 -8970,6830 -18810,16830 -29290,30010l0 146290c0,1190 -320,2300 -950,3090 -640,870 -1670,1590 -3020,2220 -1430,640 -3330,1120 -5800,1430 -2540,320 -5710,480 -9600,480 -3650,0 -6750,-160 -9290,-480 -2460,-310 -4440,-790 -5870,-1430 -1510,-630 -2540,-1350 -3020,-2220 -550,-790 -870,-1900 -870,-3090l0 -209320c0,-1270 240,-2300 710,-3170 480,-800 1430,-1590 2780,-2300 1430,-720 3180,-1110 5400,-1350 2140,-240 5000,-400 8570,-400 3420,0 6270,160 8500,400 2220,240 3960,630 5230,1350 1200,710 2150,1500 2700,2300 480,870 800,1900 800,3170l0 27710c11740,-13180 23170,-22860 34290,-28980 11110,-6110 22300,-9200 33570,-9200 8730,0 16510,1030 23420,3010 6900,2070 12940,4840 18250,8500 5240,3650 9770,8010 13500,13010 3650,5080 6820,10720 9290,16910 6980,-7620 13570,-14050 19840,-19290 6270,-5320 12380,-9600 18180,-12860 5790,-3250 11430,-5550 16980,-7060 5480,-1510 11040,-2220 16590,-2220 13500,0 24850,2380 33970,7140 9130,4680 16510,11030 22230,18890 5630,7940 9680,17230 12060,27780 2390,10640 3580,21830 3580,33660l0 132320zm614030 -107000c0,17060 -2220,32780 -6750,47070 -4440,14360 -11190,26750 -20080,37140 -8890,10400 -20080,18500 -33500,24290 -13410,5800 -28970,8740 -46590,8740 -17220,0 -32230,-2620 -45010,-7700 -12780,-5080 -23490,-12550 -31980,-22310 -8500,-9760 -14850,-21670 -19050,-35640 -4210,-13890 -6270,-29760 -6270,-47390 0,-17060 2220,-32780 6580,-47060 4450,-14370 11120,-26750 20010,-37150 8890,-10400 20080,-18420 33410,-24130 13340,-5800 28900,-8650 46680,-8650 17220,0 32220,2540 45000,7700 12780,5080 23500,12540 31990,22300 8570,9760 14920,21670 19210,35560 4280,13970 6350,29690 6350,47230zm-40400 2540c0,-11270 -1120,-21990 -3180,-32070 -2060,-10080 -5560,-18890 -10320,-26510 -4840,-7620 -11350,-13570 -19520,-18020 -8260,-4440 -18500,-6670 -30720,-6670 -11350,0 -21040,2070 -29210,6120 -8100,3960 -14850,9680 -20080,17060 -5320,7380 -9210,16110 -11750,26190 -2540,10090 -3810,21040 -3810,33020 0,11430 1030,22230 3090,32310 2070,10080 5560,18890 10480,26350 4840,7540 11430,13500 19610,17940 8250,4450 18490,6590 30720,6590 11190,0 20870,-1980 29050,-6030 8250,-4050 15000,-9690 20240,-16990 5320,-7220 9200,-15950 11670,-26030 2460,-10080 3730,-21120 3730,-33260zm577760 47460c0,10720 -1990,20240 -5960,28580 -3970,8410 -9600,15480 -16900,21190 -7230,5720 -15960,10080 -26040,13020 -10080,2940 -21110,4450 -33260,4450 -7380,0 -14520,-640 -21270,-1750 -6750,-1190 -12780,-2700 -18100,-4450 -5400,-1740 -9920,-3650 -13650,-5550 -3650,-1990 -6430,-3730 -8100,-5240 -1740,-1590 -2930,-3730 -3730,-6510 -790,-2780 -1190,-6590 -1190,-11430 0,-2940 160,-5400 480,-7460 320,-1990 710,-3570 1190,-4840 480,-1270 1110,-2150 1980,-2700 800,-560 1830,-800 2860,-800 1750,0 4290,1040 7620,3180 3330,2060 7380,4360 12300,6830 4850,2460 10640,4760 17310,6820 6670,2140 14360,3180 23020,3180 6510,0 12380,-720 17700,-2070 5240,-1430 9840,-3490 13730,-6190 3810,-2700 6830,-6190 8890,-10320 2140,-4200 3170,-9200 3170,-14920 0,-5870 -1500,-10870 -4520,-14840 -3020,-4050 -7060,-7620 -11990,-10720 -5000,-3090 -10550,-5870 -16740,-8250 -6200,-2380 -12620,-4920 -19210,-7540 -6590,-2700 -13020,-5640 -19290,-8970 -6270,-3340 -11910,-7390 -16830,-12230 -5000,-4840 -8970,-10550 -11980,-17220 -3020,-6670 -4530,-14610 -4530,-23970 0,-8180 1590,-16040 4760,-23580 3180,-7540 7940,-14130 14290,-19760 6350,-5640 14290,-10160 23810,-13570 9530,-3420 20720,-5160 33420,-5160 5560,0 11110,470 16750,1420 5560,880 10560,2070 15080,3500 4520,1350 8330,2850 11510,4520 3170,1590 5560,3020 7220,4290 1590,1270 2700,2300 3260,3250 550,950 950,1990 1190,3180 240,1110 390,2540 630,4280 240,1670 400,3810 400,6270 0,2620 -160,4930 -400,6830 -240,1980 -550,3570 -1110,4760 -550,1270 -1190,2150 -1980,2700 -800,560 -1670,800 -2540,800 -1430,0 -3420,-800 -6110,-2540 -2620,-1670 -6040,-3500 -10160,-5480 -4210,-1910 -9130,-3730 -14850,-5480 -5630,-1670 -12060,-2540 -19370,-2540 -6500,0 -12220,720 -17220,2220 -4920,1510 -9050,3580 -12220,6270 -3180,2700 -5560,5960 -7230,9690 -1580,3730 -2380,7700 -2380,12060 0,6040 1510,11120 4610,15240 3090,4130 7140,7700 12140,10800 4920,3090 10560,5870 16910,8410 6430,2460 12860,5000 19440,7620 6590,2700 13100,5640 19530,8890 6430,3260 12140,7150 17150,11830 4920,4680 8890,10240 11900,16750 3020,6510 4610,14280 4610,23250zm554740 25090c0,2700 -80,4920 -240,6900 -160,1910 -480,3570 -800,4840 -390,1350 -870,2540 -1430,3500 -550,1030 -1740,2540 -3730,4440 -1900,1910 -5230,4370 -9840,7220 -4680,2860 -9920,5400 -15710,7620 -5800,2310 -12150,4130 -18980,5480 -6820,1430 -13890,2150 -21190,2150 -15000,0 -28340,-2540 -39920,-7470 -11670,-5000 -21360,-12220 -29210,-21750 -7860,-9520 -13820,-21270 -17940,-35080 -4050,-13890 -6110,-29920 -6110,-48020 0,-20640 2460,-38340 7540,-53180 5000,-14770 11900,-26910 20710,-36360 8730,-9440 19050,-16510 30880,-21030 11910,-4600 24690,-6910 38500,-6910 6660,0 13170,640 19440,1910 6270,1190 12070,2860 17310,4840 5240,1990 10000,4370 14050,6990 4120,2620 7140,4840 8970,6740 1900,1830 3170,3340 3810,4450 710,1030 1350,2300 1740,3810 480,1510 800,3090 950,5000 160,1820 240,4210 240,6980 0,6040 -710,10240 -2060,12620 -1430,2460 -3100,3660 -5160,3660 -2300,0 -5000,-1270 -8020,-3810 -3010,-2620 -6820,-5400 -11510,-8500 -4600,-3090 -10240,-5950 -16820,-8490 -6590,-2620 -14370,-3890 -23420,-3890 -18410,0 -32540,7140 -42390,21270 -9840,14210 -14760,34770 -14760,61760 0,13490 1270,25320 3810,35480 2540,10160 6350,18650 11270,25480 5000,6820 11030,11900 18260,15240 7220,3330 15480,5000 24760,5000 8810,0 16590,-1430 23260,-4210 6670,-2780 12460,-5870 17300,-9210 4920,-3330 9050,-6350 12390,-9050 3330,-2700 5870,-4040 7770,-4040 1040,0 1990,310 2780,870 800,630 1430,1670 1990,3170 550,1510 870,3340 1110,5560 240,2300 400,4920 400,8020zm580530 31910c0,1190 -320,2300 -950,3090 -640,870 -1590,1590 -3020,2220 -1430,640 -3330,1120 -5790,1430 -2540,320 -5640,480 -9290,480 -3890,0 -7060,-160 -9600,-480 -2460,-310 -4370,-790 -5800,-1430 -1350,-630 -2380,-1350 -3010,-2220 -640,-790 -960,-1900 -960,-3090l0 -122560c0,-11990 -870,-21590 -2770,-28810 -1830,-7310 -4530,-13580 -8100,-18890 -3570,-5240 -8180,-9290 -13890,-12070 -5640,-2780 -12150,-4210 -19610,-4210 -9600,0 -19210,3420 -28810,10240 -9680,6830 -19760,16830 -30240,30010l0 146290c0,1190 -320,2300 -950,3090 -640,870 -1670,1590 -3020,2220 -1430,640 -3330,1120 -5800,1430 -2540,320 -5710,480 -9600,480 -3650,0 -6750,-160 -9290,-480 -2460,-310 -4440,-790 -5870,-1430 -1510,-630 -2540,-1350 -3020,-2220 -550,-790 -870,-1900 -870,-3090l0 -310680c0,-1270 320,-2380 870,-3250 480,-960 1510,-1750 3020,-2380 1430,-560 3410,-1040 5870,-1350 2540,-320 5640,-480 9290,-480 3890,0 7060,160 9600,480 2470,310 4370,790 5800,1350 1350,630 2380,1420 3020,2380 630,870 950,1980 950,3250l0 125330c10950,-11660 22060,-20320 33260,-25950 11110,-5640 22380,-8490 33650,-8490 13970,0 25720,2380 35240,7140 9530,4680 17310,11030 23180,18890 5870,7940 10080,17230 12620,27780 2620,10640 3890,23500 3890,38500l0 127480zm597920 -113750c0,6030 -1500,10400 -4520,12940 -3020,2540 -6430,3810 -10320,3810l-137240 0c0,11670 1190,22070 3490,31430 2310,9290 6200,17230 11670,23890 5400,6670 12460,11830 21120,15400 8730,3570 19280,5320 31900,5320 9930,0 18740,-790 26520,-2460 7700,-1590 14440,-3410 20080,-5480 5630,-1980 10320,-3810 13970,-5390 3650,-1670 6350,-2470 8250,-2470 1030,0 2070,240 2860,800 870,550 1510,1350 1980,2460 480,1110 880,2620 1120,4520 150,1910 310,4290 310,7070 0,2060 -80,3810 -230,5240 -160,1500 -320,2770 -560,3970 -240,1190 -640,2220 -1190,3170 -560,870 -1270,1830 -2060,2620 -880,870 -3420,2300 -7620,4210 -4130,1900 -9610,3810 -16280,5710 -6660,1830 -14360,3490 -23090,5000 -8740,1430 -18100,2230 -28020,2230 -17230,0 -32310,-2470 -45250,-7230 -12940,-4840 -23810,-11980 -32700,-21430 -8810,-9450 -15480,-21270 -20000,-35560 -4450,-14290 -6750,-30880 -6750,-49770 0,-17940 2380,-34130 6990,-48500 4680,-14280 11350,-26510 20160,-36510 8730,-10000 19280,-17620 31750,-23020 12380,-5320 26270,-8010 41590,-8010 16430,0 30400,2620 41990,7930 11510,5240 21030,12390 28490,21280 7470,8890 12860,19360 16360,31350 3490,12060 5230,24840 5230,38500l0 6980zm-38570 -11350c470,-20160 -3970,-36040 -13420,-47470 -9360,-11510 -23250,-17220 -41670,-17220 -9520,0 -17780,1830 -24920,5400 -7150,3490 -13100,8250 -17860,14130 -4840,5870 -8570,12780 -11190,20550 -2620,7860 -4130,16040 -4450,24610l113510 0zm756750 125100c0,1190 -320,2300 -880,3090 -630,870 -1660,1590 -3010,2220 -1430,640 -3340,1120 -5880,1430 -2460,320 -5550,480 -9280,480 -3890,0 -7070,-160 -9530,-480 -2460,-310 -4440,-790 -5950,-1430 -1430,-630 -2460,-1350 -3100,-2220 -630,-790 -950,-1900 -950,-3090l0 -127240c0,-8810 -790,-16910 -2300,-24130 -1590,-7310 -4050,-13580 -7460,-18890 -3420,-5240 -7780,-9290 -13020,-12070 -5240,-2780 -11510,-4210 -18570,-4210 -8890,0 -17780,3420 -26670,10240 -8890,6830 -18740,16830 -29370,30010l0 146290c0,1190 -320,2300 -960,3090 -630,870 -1660,1590 -3170,2220 -1430,640 -3410,1120 -5870,1430 -2540,320 -5640,480 -9370,480 -3570,0 -6590,-160 -9130,-480 -2620,-310 -4600,-790 -6110,-1430 -1430,-630 -2460,-1350 -3020,-2220 -470,-790 -790,-1900 -790,-3090l0 -127240c0,-8810 -870,-16910 -2540,-24130 -1750,-7310 -4290,-13580 -7700,-18890 -3410,-5240 -7700,-9290 -12860,-12070 -5240,-2780 -11350,-4210 -18490,-4210 -8890,0 -17780,3420 -26750,10240 -8970,6830 -18810,16830 -29290,30010l0 146290c0,1190 -320,2300 -950,3090 -640,870 -1670,1590 -3020,2220 -1430,640 -3330,1120 -5800,1430 -2540,320 -5710,480 -9600,480 -3650,0 -6750,-160 -9290,-480 -2460,-310 -4440,-790 -5870,-1430 -1510,-630 -2540,-1350 -3020,-2220 -550,-790 -870,-1900 -870,-3090l0 -209320c0,-1270 240,-2300 710,-3170 480,-800 1430,-1590 2780,-2300 1430,-720 3180,-1110 5400,-1350 2140,-240 5000,-400 8570,-400 3420,0 6270,160 8500,400 2220,240 3960,630 5230,1350 1200,710 2150,1500 2700,2300 480,870 800,1900 800,3170l0 27710c11740,-13180 23170,-22860 34290,-28980 11110,-6110 22300,-9200 33570,-9200 8730,0 16510,1030 23420,3010 6900,2070 12940,4840 18250,8500 5240,3650 9770,8010 13500,13010 3650,5080 6820,10720 9290,16910 6980,-7620 13570,-14050 19840,-19290 6270,-5320 12380,-9600 18180,-12860 5790,-3250 11430,-5550 16980,-7060 5480,-1510 11040,-2220 16590,-2220 13500,0 24850,2380 33970,7140 9130,4680 16510,11030 22230,18890 5630,7940 9680,17230 12060,27780 2390,10640 3580,21830 3580,33660l0 132320zm468930 -19530c0,10950 -1830,18330 -5480,21990 -3570,3570 -10240,5390 -19840,5390 -9290,0 -15720,-1740 -19290,-5310 -3570,-3580 -5400,-10720 -5400,-21440 0,-10950 1830,-18330 5480,-21900 3650,-3650 10320,-5480 19920,-5480 9290,0 15720,1750 19290,5320 3570,3570 5320,10710 5320,21430zm570620 -12380c0,2700 -80,4920 -240,6900 -160,1910 -480,3570 -800,4840 -390,1350 -870,2540 -1430,3500 -550,1030 -1740,2540 -3730,4440 -1900,1910 -5230,4370 -9840,7220 -4680,2860 -9920,5400 -15710,7620 -5800,2310 -12150,4130 -18980,5480 -6820,1430 -13890,2150 -21190,2150 -15000,0 -28340,-2540 -39920,-7470 -11670,-5000 -21360,-12220 -29210,-21750 -7860,-9520 -13820,-21270 -17940,-35080 -4050,-13890 -6110,-29920 -6110,-48020 0,-20640 2460,-38340 7540,-53180 5000,-14770 11900,-26910 20710,-36360 8730,-9440 19050,-16510 30880,-21030 11910,-4600 24690,-6910 38500,-6910 6660,0 13170,640 19440,1910 6270,1190 12070,2860 17310,4840 5240,1990 10000,4370 14050,6990 4120,2620 7140,4840 8970,6740 1900,1830 3170,3340 3810,4450 710,1030 1350,2300 1740,3810 480,1510 800,3090 950,5000 160,1820 240,4210 240,6980 0,6040 -710,10240 -2060,12620 -1430,2460 -3100,3660 -5160,3660 -2300,0 -5000,-1270 -8020,-3810 -3010,-2620 -6820,-5400 -11510,-8500 -4600,-3090 -10240,-5950 -16820,-8490 -6590,-2620 -14370,-3890 -23420,-3890 -18410,0 -32540,7140 -42390,21270 -9840,14210 -14760,34770 -14760,61760 0,13490 1270,25320 3810,35480 2540,10160 6350,18650 11270,25480 5000,6820 11030,11900 18260,15240 7220,3330 15480,5000 24760,5000 8810,0 16590,-1430 23260,-4210 6670,-2780 12460,-5870 17300,-9210 4920,-3330 9050,-6350 12390,-9050 3330,-2700 5870,-4040 7770,-4040 1040,0 1990,310 2780,870 800,630 1430,1670 1990,3170 550,1510 870,3340 1110,5560 240,2300 400,4920 400,8020z"/>
    <path class="fil4" d="M15379030 9043660c0,17060 -2220,32780 -6750,47070 -4440,14360 -11190,26750 -20080,37140 -8890,10400 -20080,18500 -33500,24290 -13410,5800 -28970,8740 -46590,8740 -17220,0 -32230,-2620 -45010,-7700 -12780,-5080 -23490,-12550 -31980,-22310 -8500,-9760 -14850,-21670 -19050,-35640 -4210,-13890 -6270,-29760 -6270,-47390 0,-17060 2220,-32780 6580,-47060 4450,-14370 11120,-26750 20010,-37150 8890,-10400 20080,-18420 33410,-24130 13340,-5800 28900,-8650 46680,-8650 17220,0 32220,2540 45000,7700 12780,5080 23500,12540 31990,22300 8570,9760 14920,21670 19210,35560 4280,13970 6350,29690 6350,47230zm-40400 2540c0,-11270 -1120,-21990 -3180,-32070 -2060,-10080 -5560,-18890 -10320,-26510 -4840,-7620 -11350,-13570 -19520,-18020 -8260,-4440 -18500,-6670 -30720,-6670 -11350,0 -21040,2070 -29210,6120 -8100,3960 -14850,9680 -20080,17060 -5320,7380 -9210,16110 -11750,26190 -2540,10090 -3810,21040 -3810,33020 0,11430 1030,22230 3090,32310 2070,10080 5560,18890 10480,26350 4840,7540 11430,13500 19610,17940 8250,4450 18490,6590 30720,6590 11190,0 20870,-1980 29050,-6030 8250,-4050 15000,-9690 20240,-16990 5320,-7220 9200,-15950 11670,-26030 2460,-10080 3730,-21120 3730,-33260zm756750 104460c0,1190 -320,2300 -880,3090 -630,870 -1660,1590 -3010,2220 -1430,640 -3340,1120 -5880,1430 -2460,320 -5550,480 -9280,480 -3890,0 -7070,-160 -9530,-480 -2460,-310 -4440,-790 -5950,-1430 -1430,-630 -2460,-1350 -3100,-2220 -630,-790 -950,-1900 -950,-3090l0 -127240c0,-8810 -790,-16910 -2300,-24130 -1590,-7310 -4050,-13580 -7460,-18890 -3420,-5240 -7780,-9290 -13020,-12070 -5240,-2780 -11510,-4210 -18570,-4210 -8890,0 -17780,3420 -26670,10240 -8890,6830 -18740,16830 -29370,30010l0 146290c0,1190 -320,2300 -960,3090 -630,870 -1660,1590 -3170,2220 -1430,640 -3410,1120 -5870,1430 -2540,320 -5640,480 -9370,480 -3570,0 -6590,-160 -9130,-480 -2620,-310 -4600,-790 -6110,-1430 -1430,-630 -2460,-1350 -3020,-2220 -470,-790 -790,-1900 -790,-3090l0 -127240c0,-8810 -870,-16910 -2540,-24130 -1750,-7310 -4290,-13580 -7700,-18890 -3410,-5240 -7700,-9290 -12860,-12070 -5240,-2780 -11350,-4210 -18490,-4210 -8890,0 -17780,3420 -26750,10240 -8970,6830 -18810,16830 -29290,30010l0 146290c0,1190 -320,2300 -950,3090 -640,870 -1670,1590 -3020,2220 -1430,640 -3330,1120 -5800,1430 -2540,320 -5710,480 -9600,480 -3650,0 -6750,-160 -9290,-480 -2460,-310 -4440,-790 -5870,-1430 -1510,-630 -2540,-1350 -3020,-2220 -550,-790 -870,-1900 -870,-3090l0 -209320c0,-1270 240,-2300 710,-3170 480,-800 1430,-1590 2780,-2300 1430,-720 3180,-1110 5400,-1350 2140,-240 5000,-400 8570,-400 3420,0 6270,160 8500,400 2220,240 3960,630 5230,1350 1200,710 2150,1500 2700,2300 480,870 800,1900 800,3170l0 27710c11740,-13180 23170,-22860 34290,-28980 11110,-6110 22300,-9200 33570,-9200 8730,0 16510,1030 23420,3010 6900,2070 12940,4840 18250,8500 5240,3650 9770,8010 13500,13010 3650,5080 6820,10720 9290,16910 6980,-7620 13570,-14050 19840,-19290 6270,-5320 12380,-9600 18180,-12860 5790,-3250 11430,-5550 16980,-7060 5480,-1510 11040,-2220 16590,-2220 13500,0 24850,2380 33970,7140 9130,4680 16510,11030 22230,18890 5630,7940 9680,17230 12060,27780 2390,10640 3580,21830 3580,33660l0 132320z"/>
   </g>
  </g>
 </g>
</svg>