<svg xmlns="http://www.w3.org/2000/svg" xmlns:xlink="http://www.w3.org/1999/xlink" xmlns:xodm="http://www.corel.com/coreldraw/odm/2003" xml:space="preserve" version="1.1" style="shape-rendering:geometricPrecision; text-rendering:geometricPrecision; image-rendering:optimizeQuality; fill-rule:evenodd; clip-rule:evenodd" viewBox="1462890 5820550 18059960 18059960">
 <defs>
  <style type="text/css">
   <![CDATA[
    .fil1 {fill:#57A7B3}
    .fil0 {fill:white}
   ]]>
  </style>
 </defs>
 <g id="Vrstva_x0020_1">
  <metadata id="CorelCorpID_0Corel-Layer"/>
  <circle class="fil0" cx="10492870" cy="14850530" r="9029980"/>
  <path class="fil1" d="M14210860 11941630c306050,-187290 699770,-679840 820850,-1136910 -390980,166440 -792630,470100 -1308210,497250 -432200,-660980 -1563360,-894500 -2412700,-360400 -627210,394410 -1108410,1235620 -935730,2314190 -768250,65110 -1897450,-411700 -2431790,-723330 -1103550,-643580 -1506830,-1360600 -1689080,-1468740 -178160,539870 -351120,894980 -171360,1637970 62810,259630 169960,496220 298400,686900l460680 517860c-427780,-21680 -539380,-121010 -858870,-250620 -17320,568310 200940,1054080 461320,1398590 113230,149820 313100,332880 474600,443040 235370,160540 359510,168640 605050,294290 -384950,105070 -518650,35730 -859880,58150 279490,790660 812430,1384130 1808990,1446790 -192630,231100 -823170,568530 -1219050,699670 -645100,213680 -955290,188950 -1654530,182860 1765780,1292380 4299840,1246970 6088480,18750 739700,-507920 1363030,-1226020 1843130,-2142450 543550,-1037590 687000,-1941860 727830,-3261730 305260,-173050 860490,-820320 1023210,-1152440 -342360,113540 -640350,291320 -1071340,300310z"/>
 </g>
</svg>